ISO-10303-21;
HEADER;
FILE_DESCRIPTION (( 'STEP AP214' ),
    '1' );
FILE_NAME ('CF_Tube_Insert.STEP',
    '2025-11-12T18:10:10',
    ( '' ),
    ( '' ),
    'SwSTEP 2.0',
    'SolidWorks 2024',
    '' );
FILE_SCHEMA (( 'AUTOMOTIVE_DESIGN' ));
ENDSEC;

DATA;
#1 = DIRECTION ( 'NONE',  ( 0.000000000000000000, -0.000000000000000000, 1.000000000000000000 ) ) ;
#2 = LINE ( 'NONE', #1047, #725 ) ;
#3 = DIRECTION ( 'NONE',  ( -0.000000000000000000, -1.000000000000000000, -0.000000000000000000 ) ) ;
#4 = ORIENTED_EDGE ( 'NONE', *, *, #37, .F. ) ;
#5 = LINE ( 'NONE', #366, #1116 ) ;
#6 = VECTOR ( 'NONE', #74, 1000.000000000000000 ) ;
#7 = CARTESIAN_POINT ( 'NONE',  ( 0.000000000000000000, 10.50000000000000355, -13.49999999999999822 ) ) ;
#8 = AXIS2_PLACEMENT_3D ( 'NONE', #951, #865, #66 ) ;
#9 = DIRECTION ( 'NONE',  ( -0.000000000000000000, -1.000000000000000000, -0.000000000000000000 ) ) ;
#10 = ADVANCED_FACE ( 'NONE', ( #937 ), #1011, .T. ) ;
#11 = PLANE ( 'NONE',  #511 ) ;
#12 = VERTEX_POINT ( 'NONE', #944 ) ;
#13 = CYLINDRICAL_SURFACE ( 'NONE', #444, 11.99999999999999822 ) ;
#14 = ADVANCED_FACE ( 'NONE', ( #55 ), #411, .T. ) ;
#15 = VERTEX_POINT ( 'NONE', #308 ) ;
#16 = EDGE_CURVE ( 'NONE', #15, #153, #582, .T. ) ;
#17 = AXIS2_PLACEMENT_3D ( 'NONE', #468, #721, #975 ) ;
#18 = PLANE ( 'NONE',  #943 ) ;
#19 = CARTESIAN_POINT ( 'NONE',  ( 0.000000000000000000, 19.99999999999999645, -12.00000000000000355 ) ) ;
#20 = EDGE_LOOP ( 'NONE', ( #723, #326 ) ) ;
#21 = ADVANCED_FACE ( 'NONE', ( #234, #753 ), #575, .T. ) ;
#22 = DIRECTION ( 'NONE',  ( 0.000000000000000000, 0.000000000000000000, -1.000000000000000000 ) ) ;
#23 = DIRECTION ( 'NONE',  ( -0.000000000000000000, -1.000000000000000000, -0.000000000000000000 ) ) ;
#24 = CONICAL_SURFACE ( 'NONE', #307, 11.99999999999999822, 0.7853981633974485010 ) ;
#25 = VERTEX_POINT ( 'NONE', #1107 ) ;
#26 = AXIS2_PLACEMENT_3D ( 'NONE', #610, #351, #570 ) ;
#27 = ADVANCED_FACE ( 'NONE', ( #185 ), #84, .T. ) ;
#28 = DIRECTION ( 'NONE',  ( 0.000000000000000000, 0.000000000000000000, -1.000000000000000000 ) ) ;
#29 = CYLINDRICAL_SURFACE ( 'NONE', #967, 12.00000000000000355 ) ;
#30 = CARTESIAN_POINT ( 'NONE',  ( 0.000000000000000000, 5.499999999999999112, 0.000000000000000000 ) ) ;
#31 = EDGE_LOOP ( 'NONE', ( #461, #236, #435, #1103 ) ) ;
#32 = ORIENTED_EDGE ( 'NONE', *, *, #528, .T. ) ;
#33 = AXIS2_PLACEMENT_3D ( 'NONE', #712, #1070, #979 ) ;
#34 = CARTESIAN_POINT ( 'NONE',  ( 0.000000000000000000, 24.49999999999999645, -6.000000000000000000 ) ) ;
#35 = DIRECTION ( 'NONE',  ( 0.000000000000000000, 0.000000000000000000, -1.000000000000000000 ) ) ;
#36 = CARTESIAN_POINT ( 'NONE',  ( 0.000000000000000000, 10.50000000000000355, 0.000000000000000000 ) ) ;
#37 = EDGE_CURVE ( 'NONE', #911, #356, #601, .T. ) ;
#38 = DIRECTION ( 'NONE',  ( -0.000000000000000000, -1.000000000000000000, -0.000000000000000000 ) ) ;
#39 = EDGE_LOOP ( 'NONE', ( #52, #481 ) ) ;
#40 = EDGE_LOOP ( 'NONE', ( #91, #1078, #1017, #416 ) ) ;
#41 = DIRECTION ( 'NONE',  ( -0.000000000000000000, -1.000000000000000000, -0.000000000000000000 ) ) ;
#42 = CARTESIAN_POINT ( 'NONE',  ( 0.000000000000000000, 2.000000000000000000, 0.000000000000000000 ) ) ;
#43 = ADVANCED_FACE ( 'NONE', ( #522, #329 ), #179, .T. ) ;
#44 = ORIENTED_EDGE ( 'NONE', *, *, #629, .T. ) ;
#45 = AXIS2_PLACEMENT_3D ( 'NONE', #349, #800, #82 ) ;
#46 = DIRECTION ( 'NONE',  ( 0.000000000000000000, 0.000000000000000000, -1.000000000000000000 ) ) ;
#47 = ORIENTED_EDGE ( 'NONE', *, *, #1013, .F. ) ;
#48 = ORIENTED_EDGE ( 'NONE', *, *, #310, .T. ) ;
#49 = CARTESIAN_POINT ( 'NONE',  ( 0.000000000000000000, 2.000000000000000000, 0.000000000000000000 ) ) ;
#50 = VERTEX_POINT ( 'NONE', #246 ) ;
#51 = AXIS2_PLACEMENT_3D ( 'NONE', #452, #636, #819 ) ;
#52 = ORIENTED_EDGE ( 'NONE', *, *, #508, .T. ) ;
#53 = DIRECTION ( 'NONE',  ( -0.000000000000000000, -1.000000000000000000, -0.000000000000000000 ) ) ;
#54 = EDGE_CURVE ( 'NONE', #57, #128, #674, .T. ) ;
#55 = FACE_OUTER_BOUND ( 'NONE', #81, .T. ) ;
#56 = AXIS2_PLACEMENT_3D ( 'NONE', #627, #798, #685 ) ;
#57 = VERTEX_POINT ( 'NONE', #79 ) ;
#58 = AXIS2_PLACEMENT_3D ( 'NONE', #154, #515, #1130 ) ;
#59 =( NAMED_UNIT ( * ) PLANE_ANGLE_UNIT ( ) SI_UNIT ( $, .RADIAN. ) );
#60 = CIRCLE ( 'NONE', #1008, 11.99999999999999822 ) ;
#61 = FACE_OUTER_BOUND ( 'NONE', #198, .T. ) ;
#62 = ORIENTED_EDGE ( 'NONE', *, *, #164, .F. ) ;
#63 = VERTEX_POINT ( 'NONE', #706 ) ;
#64 = CARTESIAN_POINT ( 'NONE',  ( 0.000000000000000000, 0.000000000000000000, 0.000000000000000000 ) ) ;
#65 = LINE ( 'NONE', #731, #755 ) ;
#66 = DIRECTION ( 'NONE',  ( 0.000000000000000000, 0.000000000000000000, 1.000000000000000000 ) ) ;
#67 = DIRECTION ( 'NONE',  ( -0.000000000000000000, -1.000000000000000000, -0.000000000000000000 ) ) ;
#68 = CARTESIAN_POINT ( 'NONE',  ( 0.000000000000000000, 5.499999999999999112, 0.000000000000000000 ) ) ;
#69 =( GEOMETRIC_REPRESENTATION_CONTEXT ( 3 ) GLOBAL_UNCERTAINTY_ASSIGNED_CONTEXT ( ( #303 ) ) GLOBAL_UNIT_ASSIGNED_CONTEXT ( ( #507, #59, #317 ) ) REPRESENTATION_CONTEXT ( 'NONE', 'WORKASPACE' ) );
#70 = ORIENTED_EDGE ( 'NONE', *, *, #1105, .F. ) ;
#71 = FACE_OUTER_BOUND ( 'NONE', #146, .T. ) ;
#72 = DIRECTION ( 'NONE',  ( 0.000000000000000000, 0.7071067811865479058, 0.7071067811865471286 ) ) ;
#73 = CYLINDRICAL_SURFACE ( 'NONE', #858, 15.00000000000000000 ) ;
#74 = DIRECTION ( 'NONE',  ( -0.000000000000000000, -1.000000000000000000, -0.000000000000000000 ) ) ;
#75 = EDGE_CURVE ( 'NONE', #12, #490, #424, .T. ) ;
#76 = VERTEX_POINT ( 'NONE', #258 ) ;
#77 = CIRCLE ( 'NONE', #1063, 6.000000000000000000 ) ;
#78 = AXIS2_PLACEMENT_3D ( 'NONE', #952, #1134, #517 ) ;
#79 = CARTESIAN_POINT ( 'NONE',  ( 1.714505518806294441E-15, 24.99999999999998579, 13.00000000000000000 ) ) ;
#80 = DIRECTION ( 'NONE',  ( 0.000000000000000000, 0.000000000000000000, -1.000000000000000000 ) ) ;
#81 = EDGE_LOOP ( 'NONE', ( #634, #703, #136, #408 ) ) ;
#82 = DIRECTION ( 'NONE',  ( 0.000000000000000000, 0.000000000000000000, 1.000000000000000000 ) ) ;
#83 = CARTESIAN_POINT ( 'NONE',  ( 0.000000000000000000, 0.5000000000000004441, 0.000000000000000000 ) ) ;
#84 = CYLINDRICAL_SURFACE ( 'NONE', #902, 12.00000000000000000 ) ;
#85 = DIRECTION ( 'NONE',  ( -0.000000000000000000, -1.000000000000000000, -0.000000000000000000 ) ) ;
#86 = ORIENTED_EDGE ( 'NONE', *, *, #662, .F. ) ;
#87 = AXIS2_PLACEMENT_3D ( 'NONE', #913, #651, #645 ) ;
#88 = DIRECTION ( 'NONE',  ( 0.000000000000000000, -0.000000000000000000, 1.000000000000000000 ) ) ;
#89 = CYLINDRICAL_SURFACE ( 'NONE', #98, 12.00000000000000000 ) ;
#90 = FACE_OUTER_BOUND ( 'NONE', #916, .T. ) ;
#91 = ORIENTED_EDGE ( 'NONE', *, *, #742, .F. ) ;
#92 = AXIS2_PLACEMENT_3D ( 'NONE', #573, #41, #545 ) ;
#93 = VECTOR ( 'NONE', #682, 1000.000000000000000 ) ;
#94 = EDGE_CURVE ( 'NONE', #811, #1114, #177, .T. ) ;
#95 = DIRECTION ( 'NONE',  ( 0.000000000000000000, 1.000000000000000000, 0.000000000000000000 ) ) ;
#96 = CIRCLE ( 'NONE', #115, 11.99999999999999822 ) ;
#97 = PLANE ( 'NONE',  #971 ) ;
#98 = AXIS2_PLACEMENT_3D ( 'NONE', #527, #67, #362 ) ;
#99 = EDGE_CURVE ( 'NONE', #63, #325, #346, .T. ) ;
#100 = CYLINDRICAL_SURFACE ( 'NONE', #319, 4.499999999999995559 ) ;
#101 = ORIENTED_EDGE ( 'NONE', *, *, #390, .T. ) ;
#102 = DIRECTION ( 'NONE',  ( 0.000000000000000000, 1.000000000000000000, 0.000000000000000000 ) ) ;
#103 = FACE_OUTER_BOUND ( 'NONE', #1120, .T. ) ;
#104 = VERTEX_POINT ( 'NONE', #797 ) ;
#105 = ORIENTED_EDGE ( 'NONE', *, *, #926, .T. ) ;
#106 = CIRCLE ( 'NONE', #396, 12.00000000000000178 ) ;
#107 = DIRECTION ( 'NONE',  ( -1.224646799147354440E-16, 0.000000000000000000, -1.000000000000000000 ) ) ;
#108 = DIRECTION ( 'NONE',  ( 0.000000000000000000, 0.000000000000000000, -1.000000000000000000 ) ) ;
#109 = EDGE_LOOP ( 'NONE', ( #669, #151, #868, #989 ) ) ;
#110 = EDGE_CURVE ( 'NONE', #648, #1085, #2, .T. ) ;
#111 = ORIENTED_EDGE ( 'NONE', *, *, #166, .F. ) ;
#112 = CARTESIAN_POINT ( 'NONE',  ( 0.000000000000000000, 14.00000000000000178, 0.000000000000000000 ) ) ;
#113 = FACE_OUTER_BOUND ( 'NONE', #1021, .T. ) ;
#114 = AXIS2_PLACEMENT_3D ( 'NONE', #863, #238, #671 ) ;
#115 = AXIS2_PLACEMENT_3D ( 'NONE', #852, #1132, #345 ) ;
#116 = VERTEX_POINT ( 'NONE', #1127 ) ;
#117 = AXIS2_PLACEMENT_3D ( 'NONE', #813, #9, #993 ) ;
#118 = ORIENTED_EDGE ( 'NONE', *, *, #629, .F. ) ;
#119 = ADVANCED_FACE ( 'NONE', ( #165 ), #89, .T. ) ;
#120 = DIRECTION ( 'NONE',  ( 0.000000000000000000, 0.000000000000000000, -1.000000000000000000 ) ) ;
#121 = CARTESIAN_POINT ( 'NONE',  ( 0.000000000000000000, 5.499999999999999112, 0.000000000000000000 ) ) ;
#122 = CARTESIAN_POINT ( 'NONE',  ( 0.000000000000000000, 0.000000000000000000, 0.000000000000000000 ) ) ;
#123 = ORIENTED_EDGE ( 'NONE', *, *, #217, .F. ) ;
#124 = ORIENTED_EDGE ( 'NONE', *, *, #590, .T. ) ;
#125 = AXIS2_PLACEMENT_3D ( 'NONE', #112, #737, #28 ) ;
#126 = ADVANCED_FACE ( 'NONE', ( #626, #879 ), #1066, .T. ) ;
#127 = CARTESIAN_POINT ( 'NONE',  ( 0.000000000000000000, 16.00000000000000000, 0.000000000000000000 ) ) ;
#128 = VERTEX_POINT ( 'NONE', #459 ) ;
#129 = ORIENTED_EDGE ( 'NONE', *, *, #926, .F. ) ;
#130 = DIRECTION ( 'NONE',  ( 0.000000000000000000, 0.000000000000000000, 1.000000000000000000 ) ) ;
#131 = EDGE_CURVE ( 'NONE', #1104, #76, #1037, .T. ) ;
#132 = AXIS2_PLACEMENT_3D ( 'NONE', #1014, #1009, #314 ) ;
#133 = EDGE_LOOP ( 'NONE', ( #824, #686, #491, #982 ) ) ;
#134 = ADVANCED_FACE ( 'NONE', ( #976 ), #73, .T. ) ;
#135 = EDGE_CURVE ( 'NONE', #172, #498, #1024, .T. ) ;
#136 = ORIENTED_EDGE ( 'NONE', *, *, #1058, .T. ) ;
#137 = CIRCLE ( 'NONE', #919, 11.99999999999999822 ) ;
#138 = CIRCLE ( 'NONE', #672, 11.99999999999999822 ) ;
#139 = DIRECTION ( 'NONE',  ( 0.000000000000000000, 0.000000000000000000, -1.000000000000000000 ) ) ;
#140 = DIRECTION ( 'NONE',  ( 0.000000000000000000, 0.000000000000000000, -1.000000000000000000 ) ) ;
#141 = PRODUCT ( 'CF_Tube_Insert', 'CF_Tube_Insert', '', ( #275 ) ) ;
#142 = ORIENTED_EDGE ( 'NONE', *, *, #94, .F. ) ;
#143 = DIRECTION ( 'NONE',  ( -0.000000000000000000, -1.000000000000000000, -0.000000000000000000 ) ) ;
#144 = CARTESIAN_POINT ( 'NONE',  ( 0.000000000000000000, 7.000000000000000000, 13.49999999999999822 ) ) ;
#145 = DIRECTION ( 'NONE',  ( 0.000000000000000000, 1.000000000000000000, 0.000000000000000000 ) ) ;
#146 = EDGE_LOOP ( 'NONE', ( #933, #815, #710, #675 ) ) ;
#147 = ADVANCED_FACE ( 'NONE', ( #1052 ), #778, .T. ) ;
#148 = DIRECTION ( 'NONE',  ( 0.000000000000000000, 0.000000000000000000, -1.000000000000000000 ) ) ;
#149 = EDGE_CURVE ( 'NONE', #995, #356, #970, .T. ) ;
#150 = DIRECTION ( 'NONE',  ( 0.000000000000000000, 0.000000000000000000, 1.000000000000000000 ) ) ;
#151 = ORIENTED_EDGE ( 'NONE', *, *, #426, .T. ) ;
#152 = CONICAL_SURFACE ( 'NONE', #599, 11.99999999999999822, 0.7853981633974477239 ) ;
#153 = VERTEX_POINT ( 'NONE', #914 ) ;
#154 = CARTESIAN_POINT ( 'NONE',  ( 0.000000000000000000, 0.000000000000000000, 0.000000000000000000 ) ) ;
#155 = VECTOR ( 'NONE', #973, 1000.000000000000000 ) ;
#156 = DIRECTION ( 'NONE',  ( 8.659560562354932858E-17, 0.7071067811865474617, -0.7071067811865474617 ) ) ;
#157 = CIRCLE ( 'NONE', #117, 13.50000000000000178 ) ;
#158 = EDGE_CURVE ( 'NONE', #153, #421, #370, .T. ) ;
#159 = DIRECTION ( 'NONE',  ( 0.000000000000000000, 0.000000000000000000, -1.000000000000000000 ) ) ;
#160 = CARTESIAN_POINT ( 'NONE',  ( 0.000000000000000000, 0.000000000000000000, 0.000000000000000000 ) ) ;
#161 = ORIENTED_EDGE ( 'NONE', *, *, #99, .F. ) ;
#162 = DIRECTION ( 'NONE',  ( -0.000000000000000000, -1.000000000000000000, -0.000000000000000000 ) ) ;
#163 = DIRECTION ( 'NONE',  ( 0.000000000000000000, 1.000000000000000000, 0.000000000000000000 ) ) ;
#164 = EDGE_CURVE ( 'NONE', #25, #421, #1067, .T. ) ;
#165 = FACE_OUTER_BOUND ( 'NONE', #403, .T. ) ;
#166 = EDGE_CURVE ( 'NONE', #412, #638, #561, .T. ) ;
#167 = LINE ( 'NONE', #788, #475 ) ;
#168 = ORIENTED_EDGE ( 'NONE', *, *, #528, .F. ) ;
#169 = CARTESIAN_POINT ( 'NONE',  ( 0.000000000000000000, 24.99999999999999645, 0.000000000000000000 ) ) ;
#170 = DIRECTION ( 'NONE',  ( -0.000000000000000000, -1.000000000000000000, -0.000000000000000000 ) ) ;
#171 = CARTESIAN_POINT ( 'NONE',  ( 0.000000000000000000, 5.499999999999999112, -11.99999999999999822 ) ) ;
#172 = VERTEX_POINT ( 'NONE', #722 ) ;
#173 =( GEOMETRIC_REPRESENTATION_CONTEXT ( 3 ) GLOBAL_UNCERTAINTY_ASSIGNED_CONTEXT ( ( #823 ) ) GLOBAL_UNIT_ASSIGNED_CONTEXT ( ( #330, #428, #540 ) ) REPRESENTATION_CONTEXT ( 'NONE', 'WORKASPACE' ) );
#174 = CARTESIAN_POINT ( 'NONE',  ( 1.469576158976824144E-15, 17.50000000000000000, 12.00000000000000178 ) ) ;
#175 = CONICAL_SURFACE ( 'NONE', #114, 11.99999999999999822, 0.7853981633974471688 ) ;
#176 = AXIS2_PLACEMENT_3D ( 'NONE', #1140, #449, #794 ) ;
#177 = CIRCLE ( 'NONE', #78, 12.00000000000000178 ) ;
#178 = DIRECTION ( 'NONE',  ( -0.000000000000000000, -1.000000000000000000, -0.000000000000000000 ) ) ;
#179 = PLANE ( 'NONE',  #216 ) ;
#180 = CARTESIAN_POINT ( 'NONE',  ( 5.510910596163083639E-16, 24.49999999999999645, -4.499999999999995559 ) ) ;
#181 = EDGE_LOOP ( 'NONE', ( #204, #208, #875, #789 ) ) ;
#182 = EDGE_CURVE ( 'NONE', #50, #487, #787, .T. ) ;
#183 = CARTESIAN_POINT ( 'NONE',  ( 0.000000000000000000, 0.5000000000000004441, 0.000000000000000000 ) ) ;
#184 = FACE_OUTER_BOUND ( 'NONE', #650, .T. ) ;
#185 = FACE_OUTER_BOUND ( 'NONE', #829, .T. ) ;
#186 = DIRECTION ( 'NONE',  ( -0.000000000000000000, -1.000000000000000000, -0.000000000000000000 ) ) ;
#187 = ORIENTED_EDGE ( 'NONE', *, *, #194, .T. ) ;
#188 = CARTESIAN_POINT ( 'NONE',  ( 5.510910596163083639E-16, 0.5000000000000004441, -4.499999999999995559 ) ) ;
#189 = DIRECTION ( 'NONE',  ( -0.000000000000000000, -1.000000000000000000, -0.000000000000000000 ) ) ;
#190 = DIRECTION ( 'NONE',  ( -0.000000000000000000, -1.000000000000000000, -0.000000000000000000 ) ) ;
#191 = EDGE_LOOP ( 'NONE', ( #283, #187 ) ) ;
#192 = VECTOR ( 'NONE', #584, 1000.000000000000000 ) ;
#193 = LINE ( 'NONE', #359, #445 ) ;
#194 = EDGE_CURVE ( 'NONE', #487, #50, #623, .T. ) ;
#195 = LINE ( 'NONE', #718, #1056 ) ;
#196 = CARTESIAN_POINT ( 'NONE',  ( 1.469576158976824342E-15, 3.851859888774471706E-31, 12.00000000000000355 ) ) ;
#197 = ORIENTED_EDGE ( 'NONE', *, *, #149, .T. ) ;
#198 = EDGE_LOOP ( 'NONE', ( #409, #496, #1095, #395 ) ) ;
#199 = CARTESIAN_POINT ( 'NONE',  ( 0.000000000000000000, 9.000000000000001776, 0.000000000000000000 ) ) ;
#200 = DIRECTION ( 'NONE',  ( 0.000000000000000000, 0.000000000000000000, -1.000000000000000000 ) ) ;
#201 = ADVANCED_FACE ( 'NONE', ( #1002, #113 ), #97, .T. ) ;
#202 = ORIENTED_EDGE ( 'NONE', *, *, #984, .T. ) ;
#203 = EDGE_CURVE ( 'NONE', #638, #888, #157, .T. ) ;
#204 = ORIENTED_EDGE ( 'NONE', *, *, #1018, .F. ) ;
#205 = CIRCLE ( 'NONE', #577, 12.00000000000000178 ) ;
#206 = DIRECTION ( 'NONE',  ( 0.000000000000000000, 0.000000000000000000, -1.000000000000000000 ) ) ;
#207 = DIRECTION ( 'NONE',  ( -0.000000000000000000, -1.000000000000000000, -0.000000000000000000 ) ) ;
#208 = ORIENTED_EDGE ( 'NONE', *, *, #906, .F. ) ;
#209 = AXIS2_PLACEMENT_3D ( 'NONE', #709, #772, #248 ) ;
#210 = DIRECTION ( 'NONE',  ( -0.000000000000000000, -1.000000000000000000, -0.000000000000000000 ) ) ;
#211 = DIRECTION ( 'NONE',  ( -0.000000000000000000, 1.000000000000000000, -0.000000000000000000 ) ) ;
#212 = DIRECTION ( 'NONE',  ( -0.000000000000000000, -1.000000000000000000, -0.000000000000000000 ) ) ;
#213 = CIRCLE ( 'NONE', #891, 6.000000000000000000 ) ;
#214 = CARTESIAN_POINT ( 'NONE',  ( 0.000000000000000000, 9.000000000000001776, 0.000000000000000000 ) ) ;
#215 = ORIENTED_EDGE ( 'NONE', *, *, #647, .T. ) ;
#216 = AXIS2_PLACEMENT_3D ( 'NONE', #453, #690, #786 ) ;
#217 = EDGE_CURVE ( 'NONE', #389, #502, #514, .T. ) ;
#218 = CARTESIAN_POINT ( 'NONE',  ( 0.000000000000000000, 0.000000000000000000, 0.000000000000000000 ) ) ;
#219 = DIRECTION ( 'NONE',  ( 0.000000000000000000, 0.000000000000000000, -1.000000000000000000 ) ) ;
#220 = DIRECTION ( 'NONE',  ( -0.000000000000000000, -1.000000000000000000, -0.000000000000000000 ) ) ;
#221 = CIRCLE ( 'NONE', #775, 13.50000000000000000 ) ;
#222 = CARTESIAN_POINT ( 'NONE',  ( 1.836970198721029589E-15, 19.99999999999999645, 15.00000000000000000 ) ) ;
#223 = EDGE_CURVE ( 'NONE', #972, #260, #631, .T. ) ;
#224 = ORIENTED_EDGE ( 'NONE', *, *, #873, .T. ) ;
#225 = ORIENTED_EDGE ( 'NONE', *, *, #606, .T. ) ;
#226 = FACE_OUTER_BOUND ( 'NONE', #304, .T. ) ;
#227 = PRESENTATION_LAYER_ASSIGNMENT (  '', '', ( #707 ) ) ;
#228 = ORIENTED_EDGE ( 'NONE', *, *, #906, .T. ) ;
#229 = ORIENTED_EDGE ( 'NONE', *, *, #931, .T. ) ;
#230 = AXIS2_PLACEMENT_3D ( 'NONE', #262, #336, #618 ) ;
#231 = CIRCLE ( 'NONE', #26, 13.49999999999999822 ) ;
#232 = DIRECTION ( 'NONE',  ( -0.000000000000000000, -1.000000000000000000, -0.000000000000000000 ) ) ;
#233 = CARTESIAN_POINT ( 'NONE',  ( 0.000000000000000000, 7.000000000000000000, 0.000000000000000000 ) ) ;
#234 = FACE_BOUND ( 'NONE', #473, .T. ) ;
#235 = EDGE_CURVE ( 'NONE', #502, #389, #137, .T. ) ;
#236 = ORIENTED_EDGE ( 'NONE', *, *, #291, .T. ) ;
#237 = DIRECTION ( 'NONE',  ( -0.000000000000000000, 1.000000000000000000, -0.000000000000000000 ) ) ;
#238 = DIRECTION ( 'NONE',  ( 0.000000000000000000, 1.000000000000000000, 0.000000000000000000 ) ) ;
#239 = ORIENTED_EDGE ( 'NONE', *, *, #377, .F. ) ;
#240 = AXIS2_PLACEMENT_3D ( 'NONE', #483, #670, #1091 ) ;
#241 = ORIENTED_EDGE ( 'NONE', *, *, #16, .T. ) ;
#242 = CYLINDRICAL_SURFACE ( 'NONE', #58, 12.00000000000000000 ) ;
#243 = LINE ( 'NONE', #759, #681 ) ;
#244 = CARTESIAN_POINT ( 'NONE',  ( 0.000000000000000000, 3.851859888774471706E-31, -12.00000000000000178 ) ) ;
#245 = DIRECTION ( 'NONE',  ( 0.000000000000000000, 0.7071067811865474617, 0.7071067811865474617 ) ) ;
#246 = CARTESIAN_POINT ( 'NONE',  ( 0.000000000000000000, 19.99999999999999645, -15.00000000000000000 ) ) ;
#247 = AXIS2_PLACEMENT_3D ( 'NONE', #127, #805, #579 ) ;
#248 = DIRECTION ( 'NONE',  ( 0.000000000000000000, 0.000000000000000000, -1.000000000000000000 ) ) ;
#249 = EDGE_LOOP ( 'NONE', ( #591, #513 ) ) ;
#250 = AXIS2_PLACEMENT_3D ( 'NONE', #936, #594, #139 ) ;
#251 = DIRECTION ( 'NONE',  ( 0.000000000000000000, 0.000000000000000000, -1.000000000000000000 ) ) ;
#252 = ADVANCED_FACE ( 'NONE', ( #910 ), #13, .T. ) ;
#253 = CARTESIAN_POINT ( 'NONE',  ( 0.000000000000000000, 0.000000000000000000, 0.000000000000000000 ) ) ;
#254 = ORIENTED_EDGE ( 'NONE', *, *, #991, .F. ) ;
#255 = CARTESIAN_POINT ( 'NONE',  ( 0.000000000000000000, 9.000000000000001776, 11.99999999999999822 ) ) ;
#256 = DIRECTION ( 'NONE',  ( 0.000000000000000000, 0.000000000000000000, 1.000000000000000000 ) ) ;
#257 = EDGE_CURVE ( 'NONE', #1026, #837, #60, .T. ) ;
#258 = CARTESIAN_POINT ( 'NONE',  ( 0.000000000000000000, 0.000000000000000000, -6.000000000000000000 ) ) ;
#259 = AXIS2_PLACEMENT_3D ( 'NONE', #1117, #430, #148 ) ;
#260 = VERTEX_POINT ( 'NONE', #393 ) ;
#261 = CARTESIAN_POINT ( 'NONE',  ( 1.653273178848927064E-15, 17.50000000000000000, -13.50000000000000178 ) ) ;
#262 = CARTESIAN_POINT ( 'NONE',  ( 0.000000000000000000, 0.000000000000000000, 0.000000000000000000 ) ) ;
#263 = CARTESIAN_POINT ( 'NONE',  ( 0.000000000000000000, 3.499999999999999112, 13.49999999999999822 ) ) ;
#264 = EDGE_LOOP ( 'NONE', ( #588, #290, #505, #1023 ) ) ;
#265 = CLOSED_SHELL ( 'NONE', ( #762, #896, #751, #471, #134, #10, #801, #864, #414, #27, #938, #252, #779, #727, #587, #147, #1074, #694, #558, #482, #344, #201, #542, #578, #956, #850, #612, #918, #119, #876, #126, #563, #285, #14, #294, #1005, #343, #21, #501, #1040, #43, #552 ) ) ;
#266 = DIRECTION ( 'NONE',  ( 0.000000000000000000, 0.000000000000000000, -1.000000000000000000 ) ) ;
#267 = CONICAL_SURFACE ( 'NONE', #856, 11.99999999999999822, 0.7853981633974485010 ) ;
#268 = CIRCLE ( 'NONE', #903, 6.000000000000000000 ) ;
#269 = VECTOR ( 'NONE', #791, 1000.000000000000000 ) ;
#270 = CARTESIAN_POINT ( 'NONE',  ( 0.000000000000000000, 14.00000000000000178, -13.50000000000000000 ) ) ;
#271 = CARTESIAN_POINT ( 'NONE',  ( 0.000000000000000000, 0.000000000000000000, 0.000000000000000000 ) ) ;
#272 = FACE_OUTER_BOUND ( 'NONE', #994, .T. ) ;
#273 = EDGE_CURVE ( 'NONE', #676, #541, #808, .T. ) ;
#274 = EDGE_LOOP ( 'NONE', ( #758, #757, #743, #519 ) ) ;
#275 = PRODUCT_CONTEXT ( 'NONE', #818, 'mechanical' ) ;
#276 = DIRECTION ( 'NONE',  ( -0.000000000000000000, -1.000000000000000000, -0.000000000000000000 ) ) ;
#277 = CARTESIAN_POINT ( 'NONE',  ( 0.000000000000000000, 2.000000000000000000, 0.000000000000000000 ) ) ;
#278 = CARTESIAN_POINT ( 'NONE',  ( 1.653273178848926669E-15, 7.000000000000000000, -13.49999999999999822 ) ) ;
#279 = VERTEX_POINT ( 'NONE', #196 ) ;
#280 = VECTOR ( 'NONE', #1065, 1000.000000000000000 ) ;
#281 = DIRECTION ( 'NONE',  ( 0.000000000000000000, 1.000000000000000000, 0.000000000000000000 ) ) ;
#282 = CARTESIAN_POINT ( 'NONE',  ( 0.000000000000000000, 20.00000000000000000, 0.000000000000000000 ) ) ;
#283 = ORIENTED_EDGE ( 'NONE', *, *, #182, .T. ) ;
#284 = ORIENTED_EDGE ( 'NONE', *, *, #984, .F. ) ;
#285 = ADVANCED_FACE ( 'NONE', ( #465, #550 ), #729, .T. ) ;
#286 = CARTESIAN_POINT ( 'NONE',  ( 0.000000000000000000, 16.00000000000000000, -12.00000000000000000 ) ) ;
#287 = VECTOR ( 'NONE', #1030, 1000.000000000000000 ) ;
#288 = DIRECTION ( 'NONE',  ( 0.000000000000000000, 0.000000000000000000, -1.000000000000000000 ) ) ;
#289 = ORIENTED_EDGE ( 'NONE', *, *, #1111, .F. ) ;
#290 = ORIENTED_EDGE ( 'NONE', *, *, #291, .F. ) ;
#291 = EDGE_CURVE ( 'NONE', #153, #15, #724, .T. ) ;
#292 = CARTESIAN_POINT ( 'NONE',  ( 0.000000000000000000, 24.99999999999999289, 4.499999999999995559 ) ) ;
#293 = CARTESIAN_POINT ( 'NONE',  ( 0.000000000000000000, 22.99999999999998579, 0.000000000000000000 ) ) ;
#294 = ADVANCED_FACE ( 'NONE', ( #103 ), #1099, .T. ) ;
#295 = EDGE_LOOP ( 'NONE', ( #1054, #197, #730, #693 ) ) ;
#296 = ORIENTED_EDGE ( 'NONE', *, *, #790, .F. ) ;
#297 = CARTESIAN_POINT ( 'NONE',  ( 0.000000000000000000, 24.49999999999999645, 0.000000000000000000 ) ) ;
#298 = CARTESIAN_POINT ( 'NONE',  ( 0.000000000000000000, 0.000000000000000000, 0.000000000000000000 ) ) ;
#299 = CARTESIAN_POINT ( 'NONE',  ( 5.510910596163083639E-16, 24.99999999999999289, -4.499999999999995559 ) ) ;
#300 = CYLINDRICAL_SURFACE ( 'NONE', #990, 11.99999999999999822 ) ;
#301 = ORIENTED_EDGE ( 'NONE', *, *, #166, .T. ) ;
#302 = EDGE_CURVE ( 'NONE', #609, #559, #492, .T. ) ;
#303 = UNCERTAINTY_MEASURE_WITH_UNIT (LENGTH_MEASURE( 1.000000000000000082E-05 ), #507, 'distance_accuracy_value', 'NONE');
#304 = EDGE_LOOP ( 'NONE', ( #668, #313, #853, #621 ) ) ;
#305 = PLANE ( 'NONE',  #132 ) ;
#306 = DIRECTION ( 'NONE',  ( 0.000000000000000000, 0.000000000000000000, -1.000000000000000000 ) ) ;
#307 = AXIS2_PLACEMENT_3D ( 'NONE', #49, #795, #983 ) ;
#308 = CARTESIAN_POINT ( 'NONE',  ( 0.000000000000000000, 2.000000000000000000, -11.99999999999999822 ) ) ;
#309 = AXIS2_PLACEMENT_3D ( 'NONE', #803, #1081, #288 ) ;
#310 = EDGE_CURVE ( 'NONE', #1119, #1085, #77, .T. ) ;
#311 = CARTESIAN_POINT ( 'NONE',  ( 0.000000000000000000, 24.99999999999999289, 0.000000000000000000 ) ) ;
#312 = ORIENTED_EDGE ( 'NONE', *, *, #436, .F. ) ;
#313 = ORIENTED_EDGE ( 'NONE', *, *, #235, .T. ) ;
#314 = DIRECTION ( 'NONE',  ( 0.000000000000000000, 0.000000000000000000, -1.000000000000000000 ) ) ;
#315 = EDGE_LOOP ( 'NONE', ( #1060, #105 ) ) ;
#316 = ORIENTED_EDGE ( 'NONE', *, *, #742, .T. ) ;
#317 =( NAMED_UNIT ( * ) SI_UNIT ( $, .STERADIAN. ) SOLID_ANGLE_UNIT ( ) );
#318 = EDGE_CURVE ( 'NONE', #260, #1109, #1042, .T. ) ;
#319 = AXIS2_PLACEMENT_3D ( 'NONE', #311, #211, #410 ) ;
#320 = EDGE_LOOP ( 'NONE', ( #596, #835, #553, #907 ) ) ;
#321 = ORIENTED_EDGE ( 'NONE', *, *, #873, .F. ) ;
#322 = AXIS2_PLACEMENT_3D ( 'NONE', #556, #1071, #997 ) ;
#323 = CARTESIAN_POINT ( 'NONE',  ( 7.347880794884119736E-16, 0.000000000000000000, 6.000000000000000000 ) ) ;
#324 = DIRECTION ( 'NONE',  ( -0.000000000000000000, -1.000000000000000000, -0.000000000000000000 ) ) ;
#325 = VERTEX_POINT ( 'NONE', #1010 ) ;
#326 = ORIENTED_EDGE ( 'NONE', *, *, #531, .F. ) ;
#327 = LINE ( 'NONE', #1087, #1032 ) ;
#328 = PRODUCT_DEFINITION_FORMATION_WITH_SPECIFIED_SOURCE ( 'ANY', '', #141, .NOT_KNOWN. ) ;
#329 = FACE_BOUND ( 'NONE', #848, .T. ) ;
#330 =( LENGTH_UNIT ( ) NAMED_UNIT ( * ) SI_UNIT ( .MILLI., .METRE. ) );
#331 = EDGE_CURVE ( 'NONE', #589, #279, #383, .T. ) ;
#332 = ORIENTED_EDGE ( 'NONE', *, *, #401, .F. ) ;
#333 = DIRECTION ( 'NONE',  ( 0.000000000000000000, 0.000000000000000000, 1.000000000000000000 ) ) ;
#334 = LINE ( 'NONE', #688, #93 ) ;
#335 = CARTESIAN_POINT ( 'NONE',  ( 0.000000000000000000, 0.000000000000000000, 0.000000000000000000 ) ) ;
#336 = DIRECTION ( 'NONE',  ( -0.000000000000000000, -1.000000000000000000, -0.000000000000000000 ) ) ;
#337 = AXIS2_PLACEMENT_3D ( 'NONE', #771, #220, #140 ) ;
#338 = CIRCLE ( 'NONE', #547, 13.00000000000000000 ) ;
#339 = DIRECTION ( 'NONE',  ( 0.000000000000000000, 0.000000000000000000, -1.000000000000000000 ) ) ;
#340 = ORIENTED_EDGE ( 'NONE', *, *, #572, .F. ) ;
#341 = DIRECTION ( 'NONE',  ( -0.000000000000000000, -1.000000000000000000, -0.000000000000000000 ) ) ;
#342 = CIRCLE ( 'NONE', #1133, 11.99999999999999822 ) ;
#343 = ADVANCED_FACE ( 'NONE', ( #363 ), #1053, .F. ) ;
#344 = ADVANCED_FACE ( 'NONE', ( #272 ), #152, .T. ) ;
#345 = DIRECTION ( 'NONE',  ( 0.000000000000000000, 0.000000000000000000, -1.000000000000000000 ) ) ;
#346 = LINE ( 'NONE', #886, #386 ) ;
#347 = DIRECTION ( 'NONE',  ( 0.000000000000000000, 1.000000000000000000, 0.000000000000000000 ) ) ;
#348 = ORIENTED_EDGE ( 'NONE', *, *, #99, .T. ) ;
#349 = CARTESIAN_POINT ( 'NONE',  ( 0.000000000000000000, 16.00000000000000000, 0.000000000000000000 ) ) ;
#350 = APPLICATION_PROTOCOL_DEFINITION ( 'draft international standard', 'automotive_design', 1998, #818 ) ;
#351 = DIRECTION ( 'NONE',  ( -0.000000000000000000, -1.000000000000000000, -0.000000000000000000 ) ) ;
#352 = EDGE_CURVE ( 'NONE', #172, #487, #887, .T. ) ;
#353 = DIRECTION ( 'NONE',  ( 0.000000000000000000, 0.000000000000000000, -1.000000000000000000 ) ) ;
#354 = LINE ( 'NONE', #1068, #821 ) ;
#355 = CIRCLE ( 'NONE', #240, 15.00000000000000000 ) ;
#356 = VERTEX_POINT ( 'NONE', #180 ) ;
#357 = MANIFOLD_SOLID_BREP ( 'M10x1.0 Tapped Hole1', #265 ) ;
#358 = FACE_OUTER_BOUND ( 'NONE', #320, .T. ) ;
#359 = CARTESIAN_POINT ( 'NONE',  ( 0.000000000000000000, 0.000000000000000000, -12.00000000000000355 ) ) ;
#360 = PRODUCT_DEFINITION ( 'UNKNOWN', '', #328, #1006 ) ;
#361 = PLANE ( 'NONE',  #699 ) ;
#362 = DIRECTION ( 'NONE',  ( 0.000000000000000000, 0.000000000000000000, -1.000000000000000000 ) ) ;
#363 = FACE_OUTER_BOUND ( 'NONE', #750, .T. ) ;
#364 = VERTEX_POINT ( 'NONE', #614 ) ;
#365 = AXIS2_PLACEMENT_3D ( 'NONE', #1019, #927, #1106 ) ;
#366 = CARTESIAN_POINT ( 'NONE',  ( 1.469576158976823750E-15, 2.000000000000000000, -11.99999999999999822 ) ) ;
#367 = VECTOR ( 'NONE', #1055, 1000.000000000000000 ) ;
#368 = AXIS2_PLACEMENT_3D ( 'NONE', #121, #207, #637 ) ;
#369 = CARTESIAN_POINT ( 'NONE',  ( 0.000000000000000000, 0.5000000000000004441, 0.000000000000000000 ) ) ;
#370 = LINE ( 'NONE', #380, #880 ) ;
#371 = CARTESIAN_POINT ( 'NONE',  ( 0.000000000000000000, 3.499999999999998668, -13.49999999999999822 ) ) ;
#372 = EDGE_LOOP ( 'NONE', ( #576, #202, #679, #1112 ) ) ;
#373 = DIRECTION ( 'NONE',  ( 0.000000000000000000, 0.000000000000000000, -1.000000000000000000 ) ) ;
#374 = DIRECTION ( 'NONE',  ( -0.000000000000000000, 1.000000000000000000, -0.000000000000000000 ) ) ;
#375 = EDGE_LOOP ( 'NONE', ( #680, #1129 ) ) ;
#376 = CIRCLE ( 'NONE', #593, 6.000000000000000000 ) ;
#377 = EDGE_CURVE ( 'NONE', #541, #811, #608, .T. ) ;
#378 = EDGE_CURVE ( 'NONE', #128, #57, #338, .T. ) ;
#379 = CARTESIAN_POINT ( 'NONE',  ( 0.000000000000000000, 0.000000000000000000, -6.000000000000000000 ) ) ;
#380 = CARTESIAN_POINT ( 'NONE',  ( 0.000000000000000000, 2.000000000000000000, 11.99999999999999822 ) ) ;
#381 = EDGE_LOOP ( 'NONE', ( #427, #844 ) ) ;
#382 = PRODUCT_RELATED_PRODUCT_CATEGORY ( 'part', '', ( #141 ) ) ;
#383 = CIRCLE ( 'NONE', #1022, 12.00000000000000178 ) ;
#384 = AXIS2_PLACEMENT_3D ( 'NONE', #19, #569, #108 ) ;
#385 = FACE_BOUND ( 'NONE', #895, .T. ) ;
#386 = VECTOR ( 'NONE', #170, 1000.000000000000000 ) ;
#387 = CONICAL_SURFACE ( 'NONE', #45, 12.00000000000000000, 0.7853981633974482790 ) ;
#388 = DIRECTION ( 'NONE',  ( 0.000000000000000000, 0.000000000000000000, -1.000000000000000000 ) ) ;
#389 = VERTEX_POINT ( 'NONE', #171 ) ;
#390 = EDGE_CURVE ( 'NONE', #502, #1026, #354, .T. ) ;
#391 = CARTESIAN_POINT ( 'NONE',  ( 0.000000000000000000, 17.50000000000000000, -12.00000000000000178 ) ) ;
#392 = FACE_OUTER_BOUND ( 'NONE', #939, .T. ) ;
#393 = CARTESIAN_POINT ( 'NONE',  ( 0.000000000000000000, 10.50000000000000355, -11.99999999999999822 ) ) ;
#394 = ORIENTED_EDGE ( 'NONE', *, *, #700, .F. ) ;
#395 = ORIENTED_EDGE ( 'NONE', *, *, #749, .T. ) ;
#396 = AXIS2_PLACEMENT_3D ( 'NONE', #425, #232, #566 ) ;
#397 = AXIS2_PLACEMENT_3D ( 'NONE', #862, #143, #825 ) ;
#398 = LINE ( 'NONE', #1000, #649 ) ;
#399 = LINE ( 'NONE', #738, #192 ) ;
#400 = DIRECTION ( 'NONE',  ( 0.000000000000000000, 0.000000000000000000, -1.000000000000000000 ) ) ;
#401 = EDGE_CURVE ( 'NONE', #901, #412, #1082, .T. ) ;
#402 = CARTESIAN_POINT ( 'NONE',  ( 0.000000000000000000, 3.499999999999998668, 0.000000000000000000 ) ) ;
#403 = EDGE_LOOP ( 'NONE', ( #639, #32, #1039, #129 ) ) ;
#404 = AXIS2_PLACEMENT_3D ( 'NONE', #293, #646, #306 ) ;
#405 = DIRECTION ( 'NONE',  ( 0.000000000000000000, 0.000000000000000000, -1.000000000000000000 ) ) ;
#406 = CIRCLE ( 'NONE', #761, 13.49999999999999822 ) ;
#407 = CIRCLE ( 'NONE', #495, 13.50000000000000178 ) ;
#408 = ORIENTED_EDGE ( 'NONE', *, *, #194, .F. ) ;
#409 = ORIENTED_EDGE ( 'NONE', *, *, #839, .F. ) ;
#410 = DIRECTION ( 'NONE',  ( 0.000000000000000000, 0.000000000000000000, 1.000000000000000000 ) ) ;
#411 = CYLINDRICAL_SURFACE ( 'NONE', #337, 15.00000000000000000 ) ;
#412 = VERTEX_POINT ( 'NONE', #881 ) ;
#413 = EDGE_CURVE ( 'NONE', #901, #888, #167, .T. ) ;
#414 = ADVANCED_FACE ( 'NONE', ( #702 ), #1113, .T. ) ;
#415 = CIRCLE ( 'NONE', #1108, 4.499999999999995559 ) ;
#416 = ORIENTED_EDGE ( 'NONE', *, *, #131, .F. ) ;
#417 = ORIENTED_EDGE ( 'NONE', *, *, #110, .F. ) ;
#418 = LINE ( 'NONE', #292, #1141 ) ;
#419 = FACE_OUTER_BOUND ( 'NONE', #133, .T. ) ;
#420 = AXIS2_PLACEMENT_3D ( 'NONE', #874, #1135, #1059 ) ;
#421 = VERTEX_POINT ( 'NONE', #263 ) ;
#422 = AXIS2_PLACEMENT_3D ( 'NONE', #64, #1049, #1126 ) ;
#423 = VERTEX_POINT ( 'NONE', #620 ) ;
#424 = CIRCLE ( 'NONE', #604, 13.50000000000000000 ) ;
#425 = CARTESIAN_POINT ( 'NONE',  ( 0.000000000000000000, 17.50000000000000000, 0.000000000000000000 ) ) ;
#426 = EDGE_CURVE ( 'NONE', #995, #524, #564, .T. ) ;
#427 = ORIENTED_EDGE ( 'NONE', *, *, #1027, .T. ) ;
#428 =( NAMED_UNIT ( * ) PLANE_ANGLE_UNIT ( ) SI_UNIT ( $, .RADIAN. ) );
#429 = EDGE_LOOP ( 'NONE', ( #748, #101, #1012, #480 ) ) ;
#430 = DIRECTION ( 'NONE',  ( -0.000000000000000000, -1.000000000000000000, -0.000000000000000000 ) ) ;
#431 = DIRECTION ( 'NONE',  ( -0.000000000000000000, -1.000000000000000000, -0.000000000000000000 ) ) ;
#432 = CARTESIAN_POINT ( 'NONE',  ( 0.000000000000000000, 24.99999999999999645, -6.000000000000000000 ) ) ;
#433 = DIRECTION ( 'NONE',  ( 0.000000000000000000, 0.000000000000000000, -1.000000000000000000 ) ) ;
#434 = FILL_AREA_STYLE ('',( #867 ) ) ;
#435 = ORIENTED_EDGE ( 'NONE', *, *, #1137, .T. ) ;
#436 = EDGE_CURVE ( 'NONE', #942, #104, #689, .T. ) ;
#437 = CYLINDRICAL_SURFACE ( 'NONE', #422, 6.000000000000000000 ) ;
#438 = LINE ( 'NONE', #782, #745 ) ;
#439 = CARTESIAN_POINT ( 'NONE',  ( 0.000000000000000000, 24.99999999999998579, 0.000000000000000000 ) ) ;
#440 = VECTOR ( 'NONE', #447, 1000.000000000000000 ) ;
#441 = PRESENTATION_STYLE_ASSIGNMENT (( #963 ) ) ;
#442 = ORIENTED_EDGE ( 'NONE', *, *, #203, .F. ) ;
#443 = CYLINDRICAL_SURFACE ( 'NONE', #969, 4.499999999999995559 ) ;
#444 = AXIS2_PLACEMENT_3D ( 'NONE', #733, #23, #810 ) ;
#445 = VECTOR ( 'NONE', #974, 1000.000000000000000 ) ;
#446 = DIRECTION ( 'NONE',  ( 0.000000000000000000, 0.000000000000000000, 1.000000000000000000 ) ) ;
#447 = DIRECTION ( 'NONE',  ( -0.000000000000000000, -1.000000000000000000, -0.000000000000000000 ) ) ;
#448 = ORIENTED_EDGE ( 'NONE', *, *, #378, .F. ) ;
#449 = DIRECTION ( 'NONE',  ( -0.000000000000000000, -1.000000000000000000, -0.000000000000000000 ) ) ;
#450 = APPLICATION_PROTOCOL_DEFINITION ( 'draft international standard', 'automotive_design', 1998, #714 ) ;
#451 = EDGE_CURVE ( 'NONE', #63, #586, #462, .T. ) ;
#452 = CARTESIAN_POINT ( 'NONE',  ( 0.000000000000000000, 12.50000000000000355, 0.000000000000000000 ) ) ;
#453 = CARTESIAN_POINT ( 'NONE',  ( 0.000000000000000000, 1.925929944387235853E-31, -6.000000000000000000 ) ) ;
#454 = DIRECTION ( 'NONE',  ( 0.000000000000000000, 0.000000000000000000, -1.000000000000000000 ) ) ;
#455 = AXIS2_PLACEMENT_3D ( 'NONE', #549, #102, #812 ) ;
#456 = ORIENTED_EDGE ( 'NONE', *, *, #135, .F. ) ;
#457 = LINE ( 'NONE', #255, #367 ) ;
#458 = DIRECTION ( 'NONE',  ( -0.000000000000000000, -1.000000000000000000, -0.000000000000000000 ) ) ;
#459 = CARTESIAN_POINT ( 'NONE',  ( 0.000000000000000000, 24.99999999999998579, -13.00000000000000000 ) ) ;
#460 = FACE_OUTER_BOUND ( 'NONE', #697, .T. ) ;
#461 = ORIENTED_EDGE ( 'NONE', *, *, #1079, .F. ) ;
#462 = CIRCLE ( 'NONE', #855, 11.99999999999999822 ) ;
#463 = VECTOR ( 'NONE', #245, 1000.000000000000114 ) ;
#464 = FACE_BOUND ( 'NONE', #39, .T. ) ;
#465 = FACE_OUTER_BOUND ( 'NONE', #191, .T. ) ;
#466 = EDGE_CURVE ( 'NONE', #412, #116, #399, .T. ) ;
#467 = ORIENTED_EDGE ( 'NONE', *, *, #331, .F. ) ;
#468 = CARTESIAN_POINT ( 'NONE',  ( 0.000000000000000000, 0.000000000000000000, 0.000000000000000000 ) ) ;
#469 = DIRECTION ( 'NONE',  ( 0.000000000000000000, 0.000000000000000000, -1.000000000000000000 ) ) ;
#470 = ORIENTED_EDGE ( 'NONE', *, *, #708, .F. ) ;
#471 = ADVANCED_FACE ( 'NONE', ( #658 ), #509, .T. ) ;
#472 = FACE_OUTER_BOUND ( 'NONE', #40, .T. ) ;
#473 = EDGE_LOOP ( 'NONE', ( #4, #1069 ) ) ;
#474 = VERTEX_POINT ( 'NONE', #666 ) ;
#475 = VECTOR ( 'NONE', #523, 1000.000000000000114 ) ;
#476 = CIRCLE ( 'NONE', #1045, 6.000000000000000000 ) ;
#477 = DIRECTION ( 'NONE',  ( -0.000000000000000000, -1.000000000000000000, -0.000000000000000000 ) ) ;
#478 = DIRECTION ( 'NONE',  ( 0.000000000000000000, 0.000000000000000000, -1.000000000000000000 ) ) ;
#479 = CARTESIAN_POINT ( 'NONE',  ( 0.000000000000000000, 7.000000000000000000, -13.49999999999999822 ) ) ;
#480 = ORIENTED_EDGE ( 'NONE', *, *, #667, .F. ) ;
#481 = ORIENTED_EDGE ( 'NONE', *, *, #830, .T. ) ;
#482 = ADVANCED_FACE ( 'NONE', ( #226 ), #832, .T. ) ;
#483 = CARTESIAN_POINT ( 'NONE',  ( 0.000000000000000000, 22.99999999999998579, 0.000000000000000000 ) ) ;
#484 = FACE_BOUND ( 'NONE', #860, .T. ) ;
#485 = DIRECTION ( 'NONE',  ( -0.000000000000000000, -1.000000000000000000, -0.000000000000000000 ) ) ;
#486 = DIRECTION ( 'NONE',  ( -0.000000000000000000, -1.000000000000000000, -0.000000000000000000 ) ) ;
#487 = VERTEX_POINT ( 'NONE', #222 ) ;
#488 = EDGE_LOOP ( 'NONE', ( #1089, #506, #70, #1096 ) ) ;
#489 = DIRECTION ( 'NONE',  ( -0.000000000000000000, -1.000000000000000000, -0.000000000000000000 ) ) ;
#490 = VERTEX_POINT ( 'NONE', #838 ) ;
#491 = ORIENTED_EDGE ( 'NONE', *, *, #164, .T. ) ;
#492 = CIRCLE ( 'NONE', #1131, 13.49999999999999822 ) ;
#493 = CARTESIAN_POINT ( 'NONE',  ( 1.469576158976823750E-15, 5.499999999999999112, 11.99999999999999822 ) ) ;
#494 = AXIS2_PLACEMENT_3D ( 'NONE', #746, #567, #478 ) ;
#495 = AXIS2_PLACEMENT_3D ( 'NONE', #1041, #162, #1061 ) ;
#496 = ORIENTED_EDGE ( 'NONE', *, *, #451, .F. ) ;
#497 = EDGE_CURVE ( 'NONE', #356, #911, #656, .T. ) ;
#498 = VERTEX_POINT ( 'NONE', #981 ) ;
#499 = CARTESIAN_POINT ( 'NONE',  ( 0.000000000000000000, 20.00000000000000000, -12.00000000000000355 ) ) ;
#500 = ORIENTED_EDGE ( 'NONE', *, *, #203, .T. ) ;
#501 = ADVANCED_FACE ( 'NONE', ( #484, #392 ), #305, .T. ) ;
#502 = VERTEX_POINT ( 'NONE', #493 ) ;
#503 = LINE ( 'NONE', #323, #504 ) ;
#504 = VECTOR ( 'NONE', #53, 1000.000000000000000 ) ;
#505 = ORIENTED_EDGE ( 'NONE', *, *, #158, .T. ) ;
#506 = ORIENTED_EDGE ( 'NONE', *, *, #377, .T. ) ;
#507 =( LENGTH_UNIT ( ) NAMED_UNIT ( * ) SI_UNIT ( .MILLI., .METRE. ) );
#508 = EDGE_CURVE ( 'NONE', #882, #648, #784, .T. ) ;
#509 = TOROIDAL_SURFACE ( 'NONE', #365, 13.00000000000000000, 2.000000000000000888 ) ;
#510 = FACE_OUTER_BOUND ( 'NONE', #274, .T. ) ;
#511 = AXIS2_PLACEMENT_3D ( 'NONE', #371, #826, #715 ) ;
#512 = ORIENTED_EDGE ( 'NONE', *, *, #508, .F. ) ;
#513 = ORIENTED_EDGE ( 'NONE', *, *, #1086, .F. ) ;
#514 = CIRCLE ( 'NONE', #368, 11.99999999999999822 ) ;
#515 = DIRECTION ( 'NONE',  ( -0.000000000000000000, -1.000000000000000000, -0.000000000000000000 ) ) ;
#516 = DIRECTION ( 'NONE',  ( -0.000000000000000000, -1.000000000000000000, -0.000000000000000000 ) ) ;
#517 = DIRECTION ( 'NONE',  ( 0.000000000000000000, 0.000000000000000000, -1.000000000000000000 ) ) ;
#518 = CARTESIAN_POINT ( 'NONE',  ( 1.836970198721029589E-15, 0.000000000000000000, 15.00000000000000000 ) ) ;
#519 = ORIENTED_EDGE ( 'NONE', *, *, #635, .F. ) ;
#520 = CARTESIAN_POINT ( 'NONE',  ( 0.000000000000000000, 2.000000000000000000, 0.000000000000000000 ) ) ;
#521 = AXIS2_PLACEMENT_3D ( 'NONE', #199, #281, #728 ) ;
#522 = FACE_OUTER_BOUND ( 'NONE', #845, .T. ) ;
#523 = DIRECTION ( 'NONE',  ( 8.659560562354932858E-17, 0.7071067811865474617, -0.7071067811865474617 ) ) ;
#524 = VERTEX_POINT ( 'NONE', #1001 ) ;
#525 = CARTESIAN_POINT ( 'NONE',  ( 0.000000000000000000, 3.499999999999998668, -11.99999999999999822 ) ) ;
#526 = CARTESIAN_POINT ( 'NONE',  ( 0.000000000000000000, 0.000000000000000000, 0.000000000000000000 ) ) ;
#527 = CARTESIAN_POINT ( 'NONE',  ( 0.000000000000000000, 0.000000000000000000, 0.000000000000000000 ) ) ;
#528 = EDGE_CURVE ( 'NONE', #412, #901, #744, .T. ) ;
#529 = EDGE_LOOP ( 'NONE', ( #123, #1004, #124, #118 ) ) ;
#530 = AXIS2_PLACEMENT_3D ( 'NONE', #1138, #958, #446 ) ;
#531 = EDGE_CURVE ( 'NONE', #541, #676, #899, .T. ) ;
#532 = AXIS2_PLACEMENT_3D ( 'NONE', #776, #163, #763 ) ;
#533 = DIRECTION ( 'NONE',  ( -0.000000000000000000, -1.000000000000000000, -0.000000000000000000 ) ) ;
#534 = DIRECTION ( 'NONE',  ( 0.000000000000000000, 0.000000000000000000, -1.000000000000000000 ) ) ;
#535 = SURFACE_SIDE_STYLE ('',( #692 ) ) ;
#536 = EDGE_LOOP ( 'NONE', ( #289, #736, #224, #571 ) ) ;
#537 = CARTESIAN_POINT ( 'NONE',  ( 0.000000000000000000, 24.99999999999999289, 0.000000000000000000 ) ) ;
#538 = CARTESIAN_POINT ( 'NONE',  ( 0.000000000000000000, 3.851859888774471706E-31, 0.000000000000000000 ) ) ;
#539 = CARTESIAN_POINT ( 'NONE',  ( 0.000000000000000000, 14.00000000000000355, 0.000000000000000000 ) ) ;
#540 =( NAMED_UNIT ( * ) SI_UNIT ( $, .STERADIAN. ) SOLID_ANGLE_UNIT ( ) );
#541 = VERTEX_POINT ( 'NONE', #1072 ) ;
#542 = ADVANCED_FACE ( 'NONE', ( #90 ), #843, .T. ) ;
#543 = DIRECTION ( 'NONE',  ( 0.000000000000000000, 0.000000000000000000, -1.000000000000000000 ) ) ;
#544 = DIRECTION ( 'NONE',  ( 0.000000000000000000, 0.7071067811865473507, 0.7071067811865477948 ) ) ;
#545 = DIRECTION ( 'NONE',  ( 0.000000000000000000, 0.000000000000000000, -1.000000000000000000 ) ) ;
#546 = ORIENTED_EDGE ( 'NONE', *, *, #708, .T. ) ;
#547 = AXIS2_PLACEMENT_3D ( 'NONE', #894, #85, #339 ) ;
#548 = VECTOR ( 'NONE', #72, 1000.000000000000000 ) ;
#549 = CARTESIAN_POINT ( 'NONE',  ( 0.000000000000000000, 24.99999999999999289, -13.00000000000000000 ) ) ;
#550 = FACE_BOUND ( 'NONE', #20, .T. ) ;
#551 = EDGE_CURVE ( 'NONE', #1109, #260, #1115, .T. ) ;
#552 = ADVANCED_FACE ( 'NONE', ( #1102 ), #100, .F. ) ;
#553 = ORIENTED_EDGE ( 'NONE', *, *, #1086, .T. ) ;
#554 = EDGE_LOOP ( 'NONE', ( #806, #312 ) ) ;
#555 = CARTESIAN_POINT ( 'NONE',  ( 1.653273178848926669E-15, 10.50000000000000355, -13.49999999999999822 ) ) ;
#556 = CARTESIAN_POINT ( 'NONE',  ( 0.000000000000000000, 3.499999999999999112, 0.000000000000000000 ) ) ;
#557 = ORIENTED_EDGE ( 'NONE', *, *, #883, .F. ) ;
#558 = ADVANCED_FACE ( 'NONE', ( #752, #460 ), #11, .T. ) ;
#559 = VERTEX_POINT ( 'NONE', #278 ) ;
#560 = CARTESIAN_POINT ( 'NONE',  ( 1.469576158976823750E-15, 3.499999999999998668, 11.99999999999999822 ) ) ;
#561 = LINE ( 'NONE', #653, #640 ) ;
#562 = EDGE_LOOP ( 'NONE', ( #241, #615, #467, #717 ) ) ;
#563 = ADVANCED_FACE ( 'NONE', ( #633 ), #29, .T. ) ;
#564 = CIRCLE ( 'NONE', #56, 4.499999999999995559 ) ;
#565 = AXIS2_PLACEMENT_3D ( 'NONE', #955, #889, #965 ) ;
#566 = DIRECTION ( 'NONE',  ( 0.000000000000000000, 0.000000000000000000, -1.000000000000000000 ) ) ;
#567 = DIRECTION ( 'NONE',  ( -0.000000000000000000, -1.000000000000000000, -0.000000000000000000 ) ) ;
#568 = AXIS2_PLACEMENT_3D ( 'NONE', #439, #866, #159 ) ;
#569 = DIRECTION ( 'NONE',  ( 0.000000000000000000, -1.000000000000000000, -0.000000000000000000 ) ) ;
#570 = DIRECTION ( 'NONE',  ( 0.000000000000000000, 0.000000000000000000, -1.000000000000000000 ) ) ;
#571 = ORIENTED_EDGE ( 'NONE', *, *, #1013, .T. ) ;
#572 = EDGE_CURVE ( 'NONE', #389, #559, #334, .T. ) ;
#573 = CARTESIAN_POINT ( 'NONE',  ( 0.000000000000000000, 24.99999999999999645, 0.000000000000000000 ) ) ;
#574 = DIRECTION ( 'NONE',  ( -0.000000000000000000, -1.000000000000000000, -0.000000000000000000 ) ) ;
#575 = PLANE ( 'NONE',  #988 ) ;
#576 = ORIENTED_EDGE ( 'NONE', *, *, #378, .T. ) ;
#577 = AXIS2_PLACEMENT_3D ( 'NONE', #538, #630, #809 ) ;
#578 = ADVANCED_FACE ( 'NONE', ( #61 ), #175, .T. ) ;
#579 = DIRECTION ( 'NONE',  ( 0.000000000000000000, 0.000000000000000000, -1.000000000000000000 ) ) ;
#580 = DIRECTION ( 'NONE',  ( 0.000000000000000000, 0.000000000000000000, -1.000000000000000000 ) ) ;
#581 = ORIENTED_EDGE ( 'NONE', *, *, #531, .T. ) ;
#582 = CIRCLE ( 'NONE', #783, 11.99999999999999822 ) ;
#583 = MECHANICAL_DESIGN_GEOMETRIC_PRESENTATION_REPRESENTATION (  '', ( #707 ), #173 ) ;
#584 = DIRECTION ( 'NONE',  ( -0.000000000000000000, -1.000000000000000000, -0.000000000000000000 ) ) ;
#585 = CIRCLE ( 'NONE', #176, 13.49999999999999822 ) ;
#586 = VERTEX_POINT ( 'NONE', #1025 ) ;
#587 = ADVANCED_FACE ( 'NONE', ( #419 ), #267, .T. ) ;
#588 = ORIENTED_EDGE ( 'NONE', *, *, #817, .F. ) ;
#589 = VERTEX_POINT ( 'NONE', #244 ) ;
#590 = EDGE_CURVE ( 'NONE', #559, #609, #406, .T. ) ;
#591 = ORIENTED_EDGE ( 'NONE', *, *, #310, .F. ) ;
#592 = CARTESIAN_POINT ( 'NONE',  ( 7.347880794884119736E-16, 24.49999999999999645, 6.000000000000000000 ) ) ;
#593 = AXIS2_PLACEMENT_3D ( 'NONE', #369, #458, #705 ) ;
#594 = DIRECTION ( 'NONE',  ( -0.000000000000000000, -1.000000000000000000, -0.000000000000000000 ) ) ;
#595 = ORIENTED_EDGE ( 'NONE', *, *, #839, .T. ) ;
#596 = ORIENTED_EDGE ( 'NONE', *, *, #830, .F. ) ;
#597 = DIRECTION ( 'NONE',  ( -0.000000000000000000, -1.000000000000000000, -0.000000000000000000 ) ) ;
#598 = DIRECTION ( 'NONE',  ( -0.000000000000000000, -1.000000000000000000, -0.000000000000000000 ) ) ;
#599 = AXIS2_PLACEMENT_3D ( 'NONE', #68, #347, #792 ) ;
#600 = DIRECTION ( 'NONE',  ( -0.000000000000000000, -1.000000000000000000, -0.000000000000000000 ) ) ;
#601 = CIRCLE ( 'NONE', #530, 4.499999999999995559 ) ;
#602 = CARTESIAN_POINT ( 'NONE',  ( 0.000000000000000000, 9.000000000000001776, 0.000000000000000000 ) ) ;
#603 = EDGE_LOOP ( 'NONE', ( #780, #1136, #1125, #1028 ) ) ;
#604 = AXIS2_PLACEMENT_3D ( 'NONE', #539, #684, #534 ) ;
#605 = DIRECTION ( 'NONE',  ( -1.000000000000000000, 0.000000000000000000, 0.000000000000000000 ) ) ;
#606 = EDGE_CURVE ( 'NONE', #128, #498, #1043, .T. ) ;
#607 = DIRECTION ( 'NONE',  ( 0.000000000000000000, 1.000000000000000000, 0.000000000000000000 ) ) ;
#608 = LINE ( 'NONE', #1128, #6 ) ;
#609 = VERTEX_POINT ( 'NONE', #144 ) ;
#610 = CARTESIAN_POINT ( 'NONE',  ( 0.000000000000000000, 3.499999999999999112, 0.000000000000000000 ) ) ;
#611 = AXIS2_PLACEMENT_3D ( 'NONE', #909, #892, #107 ) ;
#612 = ADVANCED_FACE ( 'NONE', ( #957 ), #1007, .T. ) ;
#613 = CARTESIAN_POINT ( 'NONE',  ( 0.000000000000000000, 17.50000000000000000, -13.50000000000000178 ) ) ;
#614 = CARTESIAN_POINT ( 'NONE',  ( 1.469576158976823947E-15, 12.50000000000000355, 12.00000000000000000 ) ) ;
#615 = ORIENTED_EDGE ( 'NONE', *, *, #1079, .T. ) ;
#616 = SHAPE_DEFINITION_REPRESENTATION ( #1020, #769 ) ;
#617 = CYLINDRICAL_SURFACE ( 'NONE', #17, 6.000000000000000000 ) ;
#618 = DIRECTION ( 'NONE',  ( 0.000000000000000000, 0.000000000000000000, -1.000000000000000000 ) ) ;
#619 = AXIS2_PLACEMENT_3D ( 'NONE', #732, #489, #652 ) ;
#620 = CARTESIAN_POINT ( 'NONE',  ( 0.000000000000000000, 14.00000000000000178, -12.00000000000000000 ) ) ;
#621 = ORIENTED_EDGE ( 'NONE', *, *, #257, .F. ) ;
#622 = LINE ( 'NONE', #877, #155 ) ;
#623 = CIRCLE ( 'NONE', #309, 15.00000000000000000 ) ;
#624 = CARTESIAN_POINT ( 'NONE',  ( 0.000000000000000000, 0.000000000000000000, 0.000000000000000000 ) ) ;
#625 = FACE_OUTER_BOUND ( 'NONE', #945, .T. ) ;
#626 = FACE_BOUND ( 'NONE', #375, .T. ) ;
#627 = CARTESIAN_POINT ( 'NONE',  ( 0.000000000000000000, 0.5000000000000004441, 0.000000000000000000 ) ) ;
#628 = ORIENTED_EDGE ( 'NONE', *, *, #75, .T. ) ;
#629 = EDGE_CURVE ( 'NONE', #502, #609, #871, .T. ) ;
#630 = DIRECTION ( 'NONE',  ( -0.000000000000000000, -1.000000000000000000, -0.000000000000000000 ) ) ;
#631 = LINE ( 'NONE', #713, #764 ) ;
#632 = CIRCLE ( 'NONE', #611, 2.000000000000000000 ) ;
#633 = FACE_OUTER_BOUND ( 'NONE', #1101, .T. ) ;
#634 = ORIENTED_EDGE ( 'NONE', *, *, #352, .F. ) ;
#635 = EDGE_CURVE ( 'NONE', #901, #423, #756, .T. ) ;
#636 = DIRECTION ( 'NONE',  ( -0.000000000000000000, -1.000000000000000000, -0.000000000000000000 ) ) ;
#637 = DIRECTION ( 'NONE',  ( 0.000000000000000000, 0.000000000000000000, -1.000000000000000000 ) ) ;
#638 = VERTEX_POINT ( 'NONE', #1110 ) ;
#639 = ORIENTED_EDGE ( 'NONE', *, *, #466, .F. ) ;
#640 = VECTOR ( 'NONE', #922, 1000.000000000000114 ) ;
#641 = DIRECTION ( 'NONE',  ( 0.000000000000000000, 1.000000000000000000, 0.000000000000000000 ) ) ;
#642 = DIRECTION ( 'NONE',  ( 0.000000000000000000, 1.000000000000000000, 0.000000000000000000 ) ) ;
#643 = ORIENTED_EDGE ( 'NONE', *, *, #816, .F. ) ;
#644 = ORIENTED_EDGE ( 'NONE', *, *, #673, .F. ) ;
#645 = DIRECTION ( 'NONE',  ( 0.000000000000000000, 0.000000000000000000, -1.000000000000000000 ) ) ;
#646 = DIRECTION ( 'NONE',  ( -0.000000000000000000, -1.000000000000000000, -0.000000000000000000 ) ) ;
#647 = EDGE_CURVE ( 'NONE', #364, #1109, #438, .T. ) ;
#648 = VERTEX_POINT ( 'NONE', #949 ) ;
#649 = VECTOR ( 'NONE', #1036, 1000.000000000000000 ) ;
#650 = EDGE_LOOP ( 'NONE', ( #47, #664 ) ) ;
#651 = DIRECTION ( 'NONE',  ( -0.000000000000000000, -1.000000000000000000, -0.000000000000000000 ) ) ;
#652 = DIRECTION ( 'NONE',  ( 0.000000000000000000, 0.000000000000000000, -1.000000000000000000 ) ) ;
#653 = CARTESIAN_POINT ( 'NONE',  ( 0.000000000000000000, 16.00000000000000000, 12.00000000000000000 ) ) ;
#654 = DIRECTION ( 'NONE',  ( -0.000000000000000000, -1.000000000000000000, -0.000000000000000000 ) ) ;
#655 = ORIENTED_EDGE ( 'NONE', *, *, #551, .T. ) ;
#656 = CIRCLE ( 'NONE', #804, 4.499999999999995559 ) ;
#657 = CONICAL_SURFACE ( 'NONE', #565, 11.99999999999999822, 0.7853981633974477239 ) ;
#658 = FACE_OUTER_BOUND ( 'NONE', #372, .T. ) ;
#659 = AXIS2_PLACEMENT_3D ( 'NONE', #1088, #719, #898 ) ;
#660 = DIRECTION ( 'NONE',  ( -0.000000000000000000, -1.000000000000000000, -0.000000000000000000 ) ) ;
#661 = DIRECTION ( 'NONE',  ( -0.000000000000000000, -1.000000000000000000, -0.000000000000000000 ) ) ;
#662 = EDGE_CURVE ( 'NONE', #325, #932, #96, .T. ) ;
#663 = ORIENTED_EDGE ( 'NONE', *, *, #413, .F. ) ;
#664 = ORIENTED_EDGE ( 'NONE', *, *, #75, .F. ) ;
#665 = CIRCLE ( 'NONE', #125, 12.00000000000000000 ) ;
#666 = CARTESIAN_POINT ( 'NONE',  ( 7.347880794884119736E-16, 0.000000000000000000, 6.000000000000000000 ) ) ;
#667 = EDGE_CURVE ( 'NONE', #389, #837, #678, .T. ) ;
#668 = ORIENTED_EDGE ( 'NONE', *, *, #390, .F. ) ;
#669 = ORIENTED_EDGE ( 'NONE', *, *, #149, .F. ) ;
#670 = DIRECTION ( 'NONE',  ( -0.000000000000000000, -1.000000000000000000, -0.000000000000000000 ) ) ;
#671 = DIRECTION ( 'NONE',  ( 0.000000000000000000, 0.000000000000000000, 1.000000000000000000 ) ) ;
#672 = AXIS2_PLACEMENT_3D ( 'NONE', #402, #38, #923 ) ;
#673 = EDGE_CURVE ( 'NONE', #474, #76, #726, .T. ) ;
#674 = CIRCLE ( 'NONE', #568, 13.00000000000000000 ) ;
#675 = ORIENTED_EDGE ( 'NONE', *, *, #551, .F. ) ;
#676 = VERTEX_POINT ( 'NONE', #499 ) ;
#677 = CARTESIAN_POINT ( 'NONE',  ( 0.000000000000000000, 0.5000000000000004441, -6.000000000000000000 ) ) ;
#678 = LINE ( 'NONE', #1050, #287 ) ;
#679 = ORIENTED_EDGE ( 'NONE', *, *, #1033, .F. ) ;
#680 = ORIENTED_EDGE ( 'NONE', *, *, #1105, .T. ) ;
#681 = VECTOR ( 'NONE', #597, 1000.000000000000000 ) ;
#682 = DIRECTION ( 'NONE',  ( 8.659560562354927928E-17, 0.7071067811865479058, -0.7071067811865471286 ) ) ;
#683 = CARTESIAN_POINT ( 'NONE',  ( 0.000000000000000000, 12.50000000000000355, 12.00000000000000000 ) ) ;
#684 = DIRECTION ( 'NONE',  ( -0.000000000000000000, -1.000000000000000000, -0.000000000000000000 ) ) ;
#685 = DIRECTION ( 'NONE',  ( 0.000000000000000000, 0.000000000000000000, -1.000000000000000000 ) ) ;
#686 = ORIENTED_EDGE ( 'NONE', *, *, #817, .T. ) ;
#687 = FACE_OUTER_BOUND ( 'NONE', #529, .T. ) ;
#688 = CARTESIAN_POINT ( 'NONE',  ( 1.469576158976823750E-15, 5.499999999999999112, -11.99999999999999822 ) ) ;
#689 = CIRCLE ( 'NONE', #209, 13.49999999999999822 ) ;
#690 = DIRECTION ( 'NONE',  ( 0.000000000000000000, -1.000000000000000000, -0.000000000000000000 ) ) ;
#691 = VECTOR ( 'NONE', #324, 1000.000000000000000 ) ;
#692 = SURFACE_STYLE_FILL_AREA ( #434 ) ;
#693 = ORIENTED_EDGE ( 'NONE', *, *, #1051, .F. ) ;
#694 = ADVANCED_FACE ( 'NONE', ( #846 ), #24, .T. ) ;
#695 = CARTESIAN_POINT ( 'NONE',  ( 0.000000000000000000, 5.499999999999999112, 11.99999999999999822 ) ) ;
#696 = DIRECTION ( 'NONE',  ( -0.000000000000000000, -1.000000000000000000, -0.000000000000000000 ) ) ;
#697 = EDGE_LOOP ( 'NONE', ( #394, #62 ) ) ;
#698 = EDGE_CURVE ( 'NONE', #676, #1114, #193, .T. ) ;
#699 = AXIS2_PLACEMENT_3D ( 'NONE', #7, #95, #88 ) ;
#700 = EDGE_CURVE ( 'NONE', #421, #25, #231, .T. ) ;
#701 = CARTESIAN_POINT ( 'NONE',  ( 0.000000000000000000, 22.99999999999998579, 0.000000000000000000 ) ) ;
#702 = FACE_OUTER_BOUND ( 'NONE', #773, .T. ) ;
#703 = ORIENTED_EDGE ( 'NONE', *, *, #135, .T. ) ;
#704 = FACE_OUTER_BOUND ( 'NONE', #908, .T. ) ;
#705 = DIRECTION ( 'NONE',  ( 0.000000000000000000, 0.000000000000000000, -1.000000000000000000 ) ) ;
#706 = CARTESIAN_POINT ( 'NONE',  ( 1.469576158976823750E-15, 9.000000000000001776, 11.99999999999999822 ) ) ;
#707 = STYLED_ITEM ( 'NONE', ( #441 ), #357 ) ;
#708 = EDGE_CURVE ( 'NONE', #586, #63, #342, .T. ) ;
#709 = CARTESIAN_POINT ( 'NONE',  ( 0.000000000000000000, 10.50000000000000355, 0.000000000000000000 ) ) ;
#710 = ORIENTED_EDGE ( 'NONE', *, *, #223, .T. ) ;
#711 = DIRECTION ( 'NONE',  ( -0.000000000000000000, -1.000000000000000000, -0.000000000000000000 ) ) ;
#712 = CARTESIAN_POINT ( 'NONE',  ( 0.000000000000000000, 12.50000000000000355, 0.000000000000000000 ) ) ;
#713 = CARTESIAN_POINT ( 'NONE',  ( 0.000000000000000000, 0.000000000000000000, -12.00000000000000000 ) ) ;
#714 = APPLICATION_CONTEXT ( 'automotive_design' ) ;
#715 = DIRECTION ( 'NONE',  ( 0.000000000000000000, -0.000000000000000000, 1.000000000000000000 ) ) ;
#716 = EDGE_CURVE ( 'NONE', #837, #1026, #138, .T. ) ;
#717 = ORIENTED_EDGE ( 'NONE', *, *, #1137, .F. ) ;
#718 = CARTESIAN_POINT ( 'NONE',  ( 0.000000000000000000, 0.000000000000000000, -11.99999999999999822 ) ) ;
#719 = DIRECTION ( 'NONE',  ( -0.000000000000000000, -1.000000000000000000, -0.000000000000000000 ) ) ;
#720 = ORIENTED_EDGE ( 'NONE', *, *, #436, .T. ) ;
#721 = DIRECTION ( 'NONE',  ( -0.000000000000000000, -1.000000000000000000, -0.000000000000000000 ) ) ;
#722 = CARTESIAN_POINT ( 'NONE',  ( 1.836970198721029589E-15, 22.99999999999998579, 15.00000000000000000 ) ) ;
#723 = ORIENTED_EDGE ( 'NONE', *, *, #273, .F. ) ;
#724 = CIRCLE ( 'NONE', #934, 11.99999999999999822 ) ;
#725 = VECTOR ( 'NONE', #962, 1000.000000000000000 ) ;
#726 = CIRCLE ( 'NONE', #250, 6.000000000000000000 ) ;
#727 = ADVANCED_FACE ( 'NONE', ( #740 ), #300, .T. ) ;
#728 = DIRECTION ( 'NONE',  ( 0.000000000000000000, 0.000000000000000000, 1.000000000000000000 ) ) ;
#729 = PLANE ( 'NONE',  #384 ) ;
#730 = ORIENTED_EDGE ( 'NONE', *, *, #497, .T. ) ;
#731 = CARTESIAN_POINT ( 'NONE',  ( 0.000000000000000000, 0.000000000000000000, -12.00000000000000000 ) ) ;
#732 = CARTESIAN_POINT ( 'NONE',  ( 0.000000000000000000, 10.50000000000000355, 0.000000000000000000 ) ) ;
#733 = CARTESIAN_POINT ( 'NONE',  ( 0.000000000000000000, 0.000000000000000000, 0.000000000000000000 ) ) ;
#734 = ORIENTED_EDGE ( 'NONE', *, *, #716, .T. ) ;
#735 = CONICAL_SURFACE ( 'NONE', #521, 11.99999999999999822, 0.7853981633974471688 ) ;
#736 = ORIENTED_EDGE ( 'NONE', *, *, #947, .F. ) ;
#737 = DIRECTION ( 'NONE',  ( -0.000000000000000000, -1.000000000000000000, -0.000000000000000000 ) ) ;
#738 = CARTESIAN_POINT ( 'NONE',  ( 1.469576158976823947E-15, 0.000000000000000000, 12.00000000000000000 ) ) ;
#739 = CARTESIAN_POINT ( 'NONE',  ( 0.000000000000000000, 24.49999999999999645, 0.000000000000000000 ) ) ;
#740 = FACE_OUTER_BOUND ( 'NONE', #429, .T. ) ;
#741 = ORIENTED_EDGE ( 'NONE', *, *, #816, .T. ) ;
#742 = EDGE_CURVE ( 'NONE', #999, #1104, #268, .T. ) ;
#743 = ORIENTED_EDGE ( 'NONE', *, *, #1094, .F. ) ;
#744 = CIRCLE ( 'NONE', #247, 12.00000000000000000 ) ;
#745 = VECTOR ( 'NONE', #598, 1000.000000000000000 ) ;
#746 = CARTESIAN_POINT ( 'NONE',  ( 0.000000000000000000, 20.00000000000000000, 0.000000000000000000 ) ) ;
#747 = AXIS2_PLACEMENT_3D ( 'NONE', #701, #696, #1057 ) ;
#748 = ORIENTED_EDGE ( 'NONE', *, *, #217, .T. ) ;
#749 = EDGE_CURVE ( 'NONE', #104, #942, #585, .T. ) ;
#750 = EDGE_LOOP ( 'NONE', ( #417, #512, #828, #48 ) ) ;
#751 = ADVANCED_FACE ( 'NONE', ( #358 ), #437, .F. ) ;
#752 = FACE_BOUND ( 'NONE', #960, .T. ) ;
#753 = FACE_OUTER_BOUND ( 'NONE', #249, .T. ) ;
#754 = ORIENTED_EDGE ( 'NONE', *, *, #940, .F. ) ;
#755 = VECTOR ( 'NONE', #210, 1000.000000000000000 ) ;
#756 = LINE ( 'NONE', #1118, #691 ) ;
#757 = ORIENTED_EDGE ( 'NONE', *, *, #466, .T. ) ;
#758 = ORIENTED_EDGE ( 'NONE', *, *, #401, .T. ) ;
#759 = CARTESIAN_POINT ( 'NONE',  ( 1.469576158976823947E-15, 0.000000000000000000, 12.00000000000000000 ) ) ;
#760 = AXIS2_PLACEMENT_3D ( 'NONE', #160, #186, #80 ) ;
#761 = AXIS2_PLACEMENT_3D ( 'NONE', #233, #431, #251 ) ;
#762 = ADVANCED_FACE ( 'NONE', ( #781 ), #443, .F. ) ;
#763 = DIRECTION ( 'NONE',  ( 0.000000000000000000, 0.000000000000000000, 1.000000000000000000 ) ) ;
#764 = VECTOR ( 'NONE', #212, 1000.000000000000000 ) ;
#765 = CARTESIAN_POINT ( 'NONE',  ( 0.000000000000000000, 0.000000000000000000, 0.000000000000000000 ) ) ;
#766 = ORIENTED_EDGE ( 'NONE', *, *, #451, .T. ) ;
#767 = CYLINDRICAL_SURFACE ( 'NONE', #259, 12.00000000000000000 ) ;
#768 = CARTESIAN_POINT ( 'NONE',  ( 0.000000000000000000, 22.99999999999998579, -13.00000000000000000 ) ) ;
#769 = ADVANCED_BREP_SHAPE_REPRESENTATION ( 'CF_Tube_Insert', ( #357, #961 ), #69 ) ;
#770 = DIRECTION ( 'NONE',  ( -0.000000000000000000, -1.000000000000000000, -0.000000000000000000 ) ) ;
#771 = CARTESIAN_POINT ( 'NONE',  ( 0.000000000000000000, 0.000000000000000000, 0.000000000000000000 ) ) ;
#772 = DIRECTION ( 'NONE',  ( -0.000000000000000000, -1.000000000000000000, -0.000000000000000000 ) ) ;
#773 = EDGE_LOOP ( 'NONE', ( #254, #854, #628, #321 ) ) ;
#774 = DIRECTION ( 'NONE',  ( 0.000000000000000000, 0.000000000000000000, -1.000000000000000000 ) ) ;
#775 = AXIS2_PLACEMENT_3D ( 'NONE', #1029, #477, #206 ) ;
#776 = CARTESIAN_POINT ( 'NONE',  ( 0.000000000000000000, 12.50000000000000355, 0.000000000000000000 ) ) ;
#777 = FACE_OUTER_BOUND ( 'NONE', #1139, .T. ) ;
#778 = CYLINDRICAL_SURFACE ( 'NONE', #230, 12.00000000000000000 ) ;
#779 = ADVANCED_FACE ( 'NONE', ( #687 ), #657, .T. ) ;
#780 = ORIENTED_EDGE ( 'NONE', *, *, #1033, .T. ) ;
#781 = FACE_OUTER_BOUND ( 'NONE', #295, .T. ) ;
#782 = CARTESIAN_POINT ( 'NONE',  ( 1.469576158976823947E-15, 0.000000000000000000, 12.00000000000000000 ) ) ;
#783 = AXIS2_PLACEMENT_3D ( 'NONE', #42, #661, #580 ) ;
#784 = CIRCLE ( 'NONE', #92, 6.000000000000000000 ) ;
#785 = DIRECTION ( 'NONE',  ( 0.000000000000000000, 0.000000000000000000, -1.000000000000000000 ) ) ;
#786 = DIRECTION ( 'NONE',  ( 0.000000000000000000, 0.000000000000000000, -1.000000000000000000 ) ) ;
#787 = CIRCLE ( 'NONE', #659, 15.00000000000000000 ) ;
#788 = CARTESIAN_POINT ( 'NONE',  ( 1.469576158976823947E-15, 16.00000000000000000, -12.00000000000000000 ) ) ;
#789 = ORIENTED_EDGE ( 'NONE', *, *, #883, .T. ) ;
#790 = EDGE_CURVE ( 'NONE', #63, #104, #457, .T. ) ;
#791 = DIRECTION ( 'NONE',  ( -0.000000000000000000, -1.000000000000000000, -0.000000000000000000 ) ) ;
#792 = DIRECTION ( 'NONE',  ( 0.000000000000000000, 0.000000000000000000, 1.000000000000000000 ) ) ;
#793 = ORIENTED_EDGE ( 'NONE', *, *, #978, .T. ) ;
#794 = DIRECTION ( 'NONE',  ( 0.000000000000000000, 0.000000000000000000, -1.000000000000000000 ) ) ;
#795 = DIRECTION ( 'NONE',  ( 0.000000000000000000, 1.000000000000000000, 0.000000000000000000 ) ) ;
#796 = FACE_OUTER_BOUND ( 'NONE', #554, .T. ) ;
#797 = CARTESIAN_POINT ( 'NONE',  ( 0.000000000000000000, 10.50000000000000355, 13.49999999999999822 ) ) ;
#798 = DIRECTION ( 'NONE',  ( -0.000000000000000000, -1.000000000000000000, -0.000000000000000000 ) ) ;
#799 = ORIENTED_EDGE ( 'NONE', *, *, #318, .F. ) ;
#800 = DIRECTION ( 'NONE',  ( 0.000000000000000000, 1.000000000000000000, 0.000000000000000000 ) ) ;
#801 = ADVANCED_FACE ( 'NONE', ( #704 ), #387, .T. ) ;
#802 = CARTESIAN_POINT ( 'NONE',  ( 0.000000000000000000, 24.49999999999999645, 4.499999999999995559 ) ) ;
#803 = CARTESIAN_POINT ( 'NONE',  ( 0.000000000000000000, 19.99999999999999645, 0.000000000000000000 ) ) ;
#804 = AXIS2_PLACEMENT_3D ( 'NONE', #1097, #1092, #130 ) ;
#805 = DIRECTION ( 'NONE',  ( -0.000000000000000000, -1.000000000000000000, -0.000000000000000000 ) ) ;
#806 = ORIENTED_EDGE ( 'NONE', *, *, #749, .F. ) ;
#807 = AXIS2_PLACEMENT_3D ( 'NONE', #526, #770, #785 ) ;
#808 = CIRCLE ( 'NONE', #1084, 12.00000000000000355 ) ;
#809 = DIRECTION ( 'NONE',  ( 0.000000000000000000, 0.000000000000000000, -1.000000000000000000 ) ) ;
#810 = DIRECTION ( 'NONE',  ( 0.000000000000000000, 0.000000000000000000, -1.000000000000000000 ) ) ;
#811 = VERTEX_POINT ( 'NONE', #174 ) ;
#812 = DIRECTION ( 'NONE',  ( 0.000000000000000000, -0.000000000000000000, 1.000000000000000000 ) ) ;
#813 = CARTESIAN_POINT ( 'NONE',  ( 0.000000000000000000, 17.50000000000000000, 0.000000000000000000 ) ) ;
#814 = CIRCLE ( 'NONE', #33, 12.00000000000000000 ) ;
#815 = ORIENTED_EDGE ( 'NONE', *, *, #947, .T. ) ;
#816 = EDGE_CURVE ( 'NONE', #888, #638, #407, .T. ) ;
#817 = EDGE_CURVE ( 'NONE', #15, #25, #5, .T. ) ;
#818 = APPLICATION_CONTEXT ( 'automotive_design' ) ;
#819 = DIRECTION ( 'NONE',  ( 0.000000000000000000, 0.000000000000000000, -1.000000000000000000 ) ) ;
#820 = CARTESIAN_POINT ( 'NONE',  ( 0.000000000000000000, 7.000000000000000000, 0.000000000000000000 ) ) ;
#821 = VECTOR ( 'NONE', #959, 1000.000000000000000 ) ;
#822 = ORIENTED_EDGE ( 'NONE', *, *, #590, .F. ) ;
#823 = UNCERTAINTY_MEASURE_WITH_UNIT (LENGTH_MEASURE( 1.000000000000000082E-05 ), #330, 'distance_accuracy_value', 'NONE');
#824 = ORIENTED_EDGE ( 'NONE', *, *, #16, .F. ) ;
#825 = DIRECTION ( 'NONE',  ( 0.000000000000000000, 0.000000000000000000, -1.000000000000000000 ) ) ;
#826 = DIRECTION ( 'NONE',  ( 0.000000000000000000, 1.000000000000000000, 0.000000000000000000 ) ) ;
#827 = DIRECTION ( 'NONE',  ( 0.000000000000000000, -0.000000000000000000, 1.000000000000000000 ) ) ;
#828 = ORIENTED_EDGE ( 'NONE', *, *, #890, .T. ) ;
#829 = EDGE_LOOP ( 'NONE', ( #954, #215, #799, #977 ) ) ;
#830 = EDGE_CURVE ( 'NONE', #648, #882, #476, .T. ) ;
#831 = CYLINDRICAL_SURFACE ( 'NONE', #397, 6.000000000000000000 ) ;
#832 = CYLINDRICAL_SURFACE ( 'NONE', #987, 11.99999999999999822 ) ;
#833 = DIRECTION ( 'NONE',  ( 0.000000000000000000, 0.000000000000000000, -1.000000000000000000 ) ) ;
#834 = DIRECTION ( 'NONE',  ( 0.000000000000000000, 0.000000000000000000, -1.000000000000000000 ) ) ;
#835 = ORIENTED_EDGE ( 'NONE', *, *, #110, .T. ) ;
#836 = AXIS2_PLACEMENT_3D ( 'NONE', #297, #516, #946 ) ;
#837 = VERTEX_POINT ( 'NONE', #525 ) ;
#838 = CARTESIAN_POINT ( 'NONE',  ( 0.000000000000000000, 14.00000000000000355, 13.50000000000000000 ) ) ;
#839 = EDGE_CURVE ( 'NONE', #586, #942, #622, .T. ) ;
#840 = DIRECTION ( 'NONE',  ( 0.000000000000000000, 0.000000000000000000, -1.000000000000000000 ) ) ;
#841 = EDGE_LOOP ( 'NONE', ( #448, #912 ) ) ;
#842 = COLOUR_RGB ( '',0.7921568627450980005, 0.8196078431372548767, 0.9333333333333333481 ) ;
#843 = CYLINDRICAL_SURFACE ( 'NONE', #1064, 11.99999999999999822 ) ;
#844 = ORIENTED_EDGE ( 'NONE', *, *, #662, .T. ) ;
#845 = EDGE_LOOP ( 'NONE', ( #1034, #793 ) ) ;
#846 = FACE_OUTER_BOUND ( 'NONE', #264, .T. ) ;
#847 = ORIENTED_EDGE ( 'NONE', *, *, #54, .T. ) ;
#848 = EDGE_LOOP ( 'NONE', ( #557, #644 ) ) ;
#849 = CIRCLE ( 'NONE', #87, 11.99999999999999822 ) ;
#850 = ADVANCED_FACE ( 'NONE', ( #71 ), #242, .T. ) ;
#851 = FACE_OUTER_BOUND ( 'NONE', #181, .T. ) ;
#852 = CARTESIAN_POINT ( 'NONE',  ( 0.000000000000000000, 7.000000000000000000, 0.000000000000000000 ) ) ;
#853 = ORIENTED_EDGE ( 'NONE', *, *, #667, .T. ) ;
#854 = ORIENTED_EDGE ( 'NONE', *, *, #1111, .T. ) ;
#855 = AXIS2_PLACEMENT_3D ( 'NONE', #602, #953, #35 ) ;
#856 = AXIS2_PLACEMENT_3D ( 'NONE', #520, #1044, #150 ) ;
#857 = CONICAL_SURFACE ( 'NONE', #8, 12.00000000000000000, 0.7853981633974482790 ) ;
#858 = AXIS2_PLACEMENT_3D ( 'NONE', #271, #600, #353 ) ;
#859 = CYLINDRICAL_SURFACE ( 'NONE', #807, 12.00000000000000000 ) ;
#860 = EDGE_LOOP ( 'NONE', ( #754, #915 ) ) ;
#861 = ORIENTED_EDGE ( 'NONE', *, *, #698, .T. ) ;
#862 = CARTESIAN_POINT ( 'NONE',  ( 0.000000000000000000, 0.000000000000000000, 0.000000000000000000 ) ) ;
#863 = CARTESIAN_POINT ( 'NONE',  ( 0.000000000000000000, 9.000000000000001776, 0.000000000000000000 ) ) ;
#864 = ADVANCED_FACE ( 'NONE', ( #510 ), #859, .T. ) ;
#865 = DIRECTION ( 'NONE',  ( 0.000000000000000000, 1.000000000000000000, 0.000000000000000000 ) ) ;
#866 = DIRECTION ( 'NONE',  ( -0.000000000000000000, -1.000000000000000000, -0.000000000000000000 ) ) ;
#867 = FILL_AREA_STYLE_COLOUR ( '', #842 ) ;
#868 = ORIENTED_EDGE ( 'NONE', *, *, #1051, .T. ) ;
#869 = DIRECTION ( 'NONE',  ( 8.659560562354936556E-17, 0.7071067811865473507, -0.7071067811865477948 ) ) ;
#870 = DIRECTION ( 'NONE',  ( 1.000000000000000000, 0.000000000000000000, 0.000000000000000000 ) ) ;
#871 = LINE ( 'NONE', #695, #548 ) ;
#872 = CARTESIAN_POINT ( 'NONE',  ( 0.000000000000000000, 0.000000000000000000, -6.000000000000000000 ) ) ;
#873 = EDGE_CURVE ( 'NONE', #364, #490, #1121, .T. ) ;
#874 = CARTESIAN_POINT ( 'NONE',  ( 0.000000000000000000, 12.50000000000000355, 0.000000000000000000 ) ) ;
#875 = ORIENTED_EDGE ( 'NONE', *, *, #131, .T. ) ;
#876 = ADVANCED_FACE ( 'NONE', ( #777 ), #857, .T. ) ;
#877 = CARTESIAN_POINT ( 'NONE',  ( 1.469576158976823750E-15, 9.000000000000001776, -11.99999999999999822 ) ) ;
#878 = AXIS2_PLACEMENT_3D ( 'NONE', #36, #660, #219 ) ;
#879 = FACE_OUTER_BOUND ( 'NONE', #1090, .T. ) ;
#880 = VECTOR ( 'NONE', #544, 999.9999999999998863 ) ;
#881 = CARTESIAN_POINT ( 'NONE',  ( 1.469576158976823947E-15, 16.00000000000000000, 12.00000000000000000 ) ) ;
#882 = VERTEX_POINT ( 'NONE', #432 ) ;
#883 = EDGE_CURVE ( 'NONE', #76, #474, #213, .T. ) ;
#884 = DIRECTION ( 'NONE',  ( -0.000000000000000000, 1.000000000000000000, -0.000000000000000000 ) ) ;
#885 = LINE ( 'NONE', #379, #280 ) ;
#886 = CARTESIAN_POINT ( 'NONE',  ( 1.469576158976823750E-15, 0.000000000000000000, 11.99999999999999822 ) ) ;
#887 = LINE ( 'NONE', #518, #440 ) ;
#888 = VERTEX_POINT ( 'NONE', #261 ) ;
#889 = DIRECTION ( 'NONE',  ( 0.000000000000000000, 1.000000000000000000, 0.000000000000000000 ) ) ;
#890 = EDGE_CURVE ( 'NONE', #882, #1119, #885, .T. ) ;
#891 = AXIS2_PLACEMENT_3D ( 'NONE', #335, #1046, #373 ) ;
#892 = DIRECTION ( 'NONE',  ( 1.000000000000000000, 0.000000000000000000, -1.224646799147353207E-16 ) ) ;
#893 = DIRECTION ( 'NONE',  ( -0.000000000000000000, -1.000000000000000000, -0.000000000000000000 ) ) ;
#894 = CARTESIAN_POINT ( 'NONE',  ( 0.000000000000000000, 24.99999999999998579, 0.000000000000000000 ) ) ;
#895 = EDGE_LOOP ( 'NONE', ( #1073, #655 ) ) ;
#896 = ADVANCED_FACE ( 'NONE', ( #472 ), #617, .F. ) ;
#897 = CARTESIAN_POINT ( 'NONE',  ( 7.347880794884119736E-16, 0.5000000000000004441, 6.000000000000000000 ) ) ;
#898 = DIRECTION ( 'NONE',  ( 0.000000000000000000, 0.000000000000000000, -1.000000000000000000 ) ) ;
#899 = CIRCLE ( 'NONE', #494, 12.00000000000000355 ) ;
#900 = DIRECTION ( 'NONE',  ( -0.000000000000000000, -1.000000000000000000, -0.000000000000000000 ) ) ;
#901 = VERTEX_POINT ( 'NONE', #286 ) ;
#902 = AXIS2_PLACEMENT_3D ( 'NONE', #253, #893, #433 ) ;
#903 = AXIS2_PLACEMENT_3D ( 'NONE', #183, #341, #774 ) ;
#904 = FACE_OUTER_BOUND ( 'NONE', #841, .T. ) ;
#905 = DIRECTION ( 'NONE',  ( 0.000000000000000000, 0.000000000000000000, -1.000000000000000000 ) ) ;
#906 = EDGE_CURVE ( 'NONE', #1104, #999, #376, .T. ) ;
#907 = ORIENTED_EDGE ( 'NONE', *, *, #890, .F. ) ;
#908 = EDGE_LOOP ( 'NONE', ( #332, #1048, #741, #111 ) ) ;
#909 = CARTESIAN_POINT ( 'NONE',  ( 1.592040838891559095E-15, 22.99999999999998579, 13.00000000000000000 ) ) ;
#910 = FACE_OUTER_BOUND ( 'NONE', #925, .T. ) ;
#911 = VERTEX_POINT ( 'NONE', #802 ) ;
#912 = ORIENTED_EDGE ( 'NONE', *, *, #54, .F. ) ;
#913 = CARTESIAN_POINT ( 'NONE',  ( 0.000000000000000000, 7.000000000000000000, 0.000000000000000000 ) ) ;
#914 = CARTESIAN_POINT ( 'NONE',  ( 1.469576158976823750E-15, 2.000000000000000000, 11.99999999999999822 ) ) ;
#915 = ORIENTED_EDGE ( 'NONE', *, *, #426, .F. ) ;
#916 = EDGE_LOOP ( 'NONE', ( #161, #766, #229, #86 ) ) ;
#917 = AXIS2_PLACEMENT_3D ( 'NONE', #768, #605, #256 ) ;
#918 = ADVANCED_FACE ( 'NONE', ( #1080, #184 ), #18, .T. ) ;
#919 = AXIS2_PLACEMENT_3D ( 'NONE', #30, #1077, #200 ) ;
#920 = CARTESIAN_POINT ( 'NONE',  ( 1.469576158976823750E-15, 10.50000000000000355, 11.99999999999999822 ) ) ;
#921 = DIRECTION ( 'NONE',  ( -0.000000000000000000, -1.000000000000000000, -0.000000000000000000 ) ) ;
#922 = DIRECTION ( 'NONE',  ( 0.000000000000000000, 0.7071067811865474617, 0.7071067811865474617 ) ) ;
#923 = DIRECTION ( 'NONE',  ( 0.000000000000000000, 0.000000000000000000, -1.000000000000000000 ) ) ;
#924 = ORIENTED_EDGE ( 'NONE', *, *, #931, .F. ) ;
#925 = EDGE_LOOP ( 'NONE', ( #546, #348, #929, #924 ) ) ;
#926 = EDGE_CURVE ( 'NONE', #116, #423, #1124, .T. ) ;
#927 = DIRECTION ( 'NONE',  ( -0.000000000000000000, -1.000000000000000000, -0.000000000000000000 ) ) ;
#928 = CARTESIAN_POINT ( 'NONE',  ( 0.000000000000000000, 3.851859888774471706E-31, 0.000000000000000000 ) ) ;
#929 = ORIENTED_EDGE ( 'NONE', *, *, #1027, .F. ) ;
#930 = CARTESIAN_POINT ( 'NONE',  ( 0.000000000000000000, 0.000000000000000000, 0.000000000000000000 ) ) ;
#931 = EDGE_CURVE ( 'NONE', #586, #932, #195, .T. ) ;
#932 = VERTEX_POINT ( 'NONE', #1076 ) ;
#933 = ORIENTED_EDGE ( 'NONE', *, *, #647, .F. ) ;
#934 = AXIS2_PLACEMENT_3D ( 'NONE', #277, #189, #905 ) ;
#935 = VECTOR ( 'NONE', #374, 1000.000000000000000 ) ;
#936 = CARTESIAN_POINT ( 'NONE',  ( 0.000000000000000000, 0.000000000000000000, 0.000000000000000000 ) ) ;
#937 = FACE_OUTER_BOUND ( 'NONE', #488, .T. ) ;
#938 = ADVANCED_FACE ( 'NONE', ( #625 ), #735, .T. ) ;
#939 = EDGE_LOOP ( 'NONE', ( #228, #316 ) ) ;
#940 = EDGE_CURVE ( 'NONE', #524, #995, #415, .T. ) ;
#941 = CARTESIAN_POINT ( 'NONE',  ( 0.000000000000000000, 24.49999999999999645, -4.000000000000000000 ) ) ;
#942 = VERTEX_POINT ( 'NONE', #555 ) ;
#943 = AXIS2_PLACEMENT_3D ( 'NONE', #270, #641, #1 ) ;
#944 = CARTESIAN_POINT ( 'NONE',  ( 1.653273178848926867E-15, 14.00000000000000355, -13.50000000000000000 ) ) ;
#945 = EDGE_LOOP ( 'NONE', ( #470, #595, #720, #296 ) ) ;
#946 = DIRECTION ( 'NONE',  ( 0.000000000000000000, 0.000000000000000000, -1.000000000000000000 ) ) ;
#947 = EDGE_CURVE ( 'NONE', #364, #972, #1016, .T. ) ;
#948 = AXIS2_PLACEMENT_3D ( 'NONE', #765, #1031, #840 ) ;
#949 = CARTESIAN_POINT ( 'NONE',  ( 7.347880794884119736E-16, 24.99999999999999645, 6.000000000000000000 ) ) ;
#950 = AXIS2_PLACEMENT_3D ( 'NONE', #613, #607, #1122 ) ;
#951 = CARTESIAN_POINT ( 'NONE',  ( 0.000000000000000000, 16.00000000000000000, 0.000000000000000000 ) ) ;
#952 = CARTESIAN_POINT ( 'NONE',  ( 0.000000000000000000, 17.50000000000000000, 0.000000000000000000 ) ) ;
#953 = DIRECTION ( 'NONE',  ( -0.000000000000000000, -1.000000000000000000, -0.000000000000000000 ) ) ;
#954 = ORIENTED_EDGE ( 'NONE', *, *, #991, .T. ) ;
#955 = CARTESIAN_POINT ( 'NONE',  ( 0.000000000000000000, 5.499999999999999112, 0.000000000000000000 ) ) ;
#956 = ADVANCED_FACE ( 'NONE', ( #385, #796 ), #361, .T. ) ;
#957 = FACE_OUTER_BOUND ( 'NONE', #536, .T. ) ;
#958 = DIRECTION ( 'NONE',  ( 0.000000000000000000, 1.000000000000000000, 0.000000000000000000 ) ) ;
#959 = DIRECTION ( 'NONE',  ( -0.000000000000000000, -1.000000000000000000, -0.000000000000000000 ) ) ;
#960 = EDGE_LOOP ( 'NONE', ( #734, #964 ) ) ;
#961 = AXIS2_PLACEMENT_3D ( 'NONE', #624, #1062, #870 ) ;
#962 = DIRECTION ( 'NONE',  ( -0.000000000000000000, -1.000000000000000000, -0.000000000000000000 ) ) ;
#963 = SURFACE_STYLE_USAGE ( .BOTH. , #535 ) ;
#964 = ORIENTED_EDGE ( 'NONE', *, *, #257, .T. ) ;
#965 = DIRECTION ( 'NONE',  ( 0.000000000000000000, 0.000000000000000000, 1.000000000000000000 ) ) ;
#966 = AXIS2_PLACEMENT_3D ( 'NONE', #1038, #3, #454 ) ;
#967 = AXIS2_PLACEMENT_3D ( 'NONE', #298, #921, #120 ) ;
#968 = CARTESIAN_POINT ( 'NONE',  ( 0.000000000000000000, 12.50000000000000355, -12.00000000000000000 ) ) ;
#969 = AXIS2_PLACEMENT_3D ( 'NONE', #537, #884, #333 ) ;
#970 = LINE ( 'NONE', #299, #935 ) ;
#971 = AXIS2_PLACEMENT_3D ( 'NONE', #479, #642, #827 ) ;
#972 = VERTEX_POINT ( 'NONE', #968 ) ;
#973 = DIRECTION ( 'NONE',  ( 8.659560562354922997E-17, 0.7071067811865483499, -0.7071067811865466846 ) ) ;
#974 = DIRECTION ( 'NONE',  ( -0.000000000000000000, -1.000000000000000000, -0.000000000000000000 ) ) ;
#975 = DIRECTION ( 'NONE',  ( 0.000000000000000000, 0.000000000000000000, -1.000000000000000000 ) ) ;
#976 = FACE_OUTER_BOUND ( 'NONE', #603, .T. ) ;
#977 = ORIENTED_EDGE ( 'NONE', *, *, #223, .F. ) ;
#978 = EDGE_CURVE ( 'NONE', #279, #589, #205, .T. ) ;
#979 = DIRECTION ( 'NONE',  ( 0.000000000000000000, 0.000000000000000000, -1.000000000000000000 ) ) ;
#980 = DIRECTION ( 'NONE',  ( -0.000000000000000000, -1.000000000000000000, -0.000000000000000000 ) ) ;
#981 = CARTESIAN_POINT ( 'NONE',  ( 0.000000000000000000, 22.99999999999998579, -15.00000000000000000 ) ) ;
#982 = ORIENTED_EDGE ( 'NONE', *, *, #158, .F. ) ;
#983 = DIRECTION ( 'NONE',  ( 0.000000000000000000, 0.000000000000000000, 1.000000000000000000 ) ) ;
#984 = EDGE_CURVE ( 'NONE', #57, #172, #632, .T. ) ;
#985 = PLANE ( 'NONE',  #455 ) ;
#986 = CARTESIAN_POINT ( 'NONE',  ( 0.000000000000000000, 3.499999999999998668, 0.000000000000000000 ) ) ;
#987 = AXIS2_PLACEMENT_3D ( 'NONE', #218, #190, #405 ) ;
#988 = AXIS2_PLACEMENT_3D ( 'NONE', #941, #145, #1015 ) ;
#989 = ORIENTED_EDGE ( 'NONE', *, *, #37, .T. ) ;
#990 = AXIS2_PLACEMENT_3D ( 'NONE', #122, #486, #834 ) ;
#991 = EDGE_CURVE ( 'NONE', #972, #364, #814, .T. ) ;
#992 = CARTESIAN_POINT ( 'NONE',  ( 0.000000000000000000, 14.00000000000000178, 0.000000000000000000 ) ) ;
#993 = DIRECTION ( 'NONE',  ( 0.000000000000000000, 0.000000000000000000, -1.000000000000000000 ) ) ;
#994 = EDGE_LOOP ( 'NONE', ( #340, #1100, #44, #998 ) ) ;
#995 = VERTEX_POINT ( 'NONE', #188 ) ;
#996 = FACE_OUTER_BOUND ( 'NONE', #31, .T. ) ;
#997 = DIRECTION ( 'NONE',  ( 0.000000000000000000, 0.000000000000000000, -1.000000000000000000 ) ) ;
#998 = ORIENTED_EDGE ( 'NONE', *, *, #302, .T. ) ;
#999 = VERTEX_POINT ( 'NONE', #897 ) ;
#1000 = CARTESIAN_POINT ( 'NONE',  ( 0.000000000000000000, 0.000000000000000000, -15.00000000000000000 ) ) ;
#1001 = CARTESIAN_POINT ( 'NONE',  ( 0.000000000000000000, 0.5000000000000004441, 4.499999999999995559 ) ) ;
#1002 = FACE_BOUND ( 'NONE', #381, .T. ) ;
#1003 = DIRECTION ( 'NONE',  ( 0.000000000000000000, 0.000000000000000000, -1.000000000000000000 ) ) ;
#1004 = ORIENTED_EDGE ( 'NONE', *, *, #572, .T. ) ;
#1005 = ADVANCED_FACE ( 'NONE', ( #464, #904 ), #985, .T. ) ;
#1006 = PRODUCT_DEFINITION_CONTEXT ( 'detailed design', #714, 'design' ) ;
#1007 = CONICAL_SURFACE ( 'NONE', #532, 12.00000000000000000, 0.7853981633974482790 ) ;
#1008 = AXIS2_PLACEMENT_3D ( 'NONE', #986, #980, #469 ) ;
#1009 = DIRECTION ( 'NONE',  ( 0.000000000000000000, -1.000000000000000000, -0.000000000000000000 ) ) ;
#1010 = CARTESIAN_POINT ( 'NONE',  ( 1.469576158976823750E-15, 7.000000000000000000, 11.99999999999999822 ) ) ;
#1011 = CYLINDRICAL_SURFACE ( 'NONE', #948, 12.00000000000000355 ) ;
#1012 = ORIENTED_EDGE ( 'NONE', *, *, #716, .F. ) ;
#1013 = EDGE_CURVE ( 'NONE', #490, #12, #221, .T. ) ;
#1014 = CARTESIAN_POINT ( 'NONE',  ( 0.000000000000000000, 0.5000000000000004441, -4.000000000000002665 ) ) ;
#1015 = DIRECTION ( 'NONE',  ( 0.000000000000000000, -0.000000000000000000, 1.000000000000000000 ) ) ;
#1016 = CIRCLE ( 'NONE', #51, 12.00000000000000000 ) ;
#1017 = ORIENTED_EDGE ( 'NONE', *, *, #673, .T. ) ;
#1018 = EDGE_CURVE ( 'NONE', #999, #474, #503, .T. ) ;
#1019 = CARTESIAN_POINT ( 'NONE',  ( 0.000000000000000000, 22.99999999999998579, 0.000000000000000000 ) ) ;
#1020 = PRODUCT_DEFINITION_SHAPE ( 'NONE', 'NONE',  #360 ) ;
#1021 = EDGE_LOOP ( 'NONE', ( #1083, #822 ) ) ;
#1022 = AXIS2_PLACEMENT_3D ( 'NONE', #928, #485, #1123 ) ;
#1023 = ORIENTED_EDGE ( 'NONE', *, *, #700, .T. ) ;
#1024 = CIRCLE ( 'NONE', #747, 15.00000000000000000 ) ;
#1025 = CARTESIAN_POINT ( 'NONE',  ( 0.000000000000000000, 9.000000000000001776, -11.99999999999999822 ) ) ;
#1026 = VERTEX_POINT ( 'NONE', #560 ) ;
#1027 = EDGE_CURVE ( 'NONE', #932, #325, #849, .T. ) ;
#1028 = ORIENTED_EDGE ( 'NONE', *, *, #1058, .F. ) ;
#1029 = CARTESIAN_POINT ( 'NONE',  ( 0.000000000000000000, 14.00000000000000355, 0.000000000000000000 ) ) ;
#1030 = DIRECTION ( 'NONE',  ( -0.000000000000000000, -1.000000000000000000, -0.000000000000000000 ) ) ;
#1031 = DIRECTION ( 'NONE',  ( -0.000000000000000000, -1.000000000000000000, -0.000000000000000000 ) ) ;
#1032 = VECTOR ( 'NONE', #156, 1000.000000000000114 ) ;
#1033 = EDGE_CURVE ( 'NONE', #498, #172, #355, .T. ) ;
#1034 = ORIENTED_EDGE ( 'NONE', *, *, #331, .T. ) ;
#1035 = CIRCLE ( 'NONE', #836, 6.000000000000000000 ) ;
#1036 = DIRECTION ( 'NONE',  ( -0.000000000000000000, -1.000000000000000000, -0.000000000000000000 ) ) ;
#1037 = LINE ( 'NONE', #872, #269 ) ;
#1038 = CARTESIAN_POINT ( 'NONE',  ( 0.000000000000000000, 16.00000000000000000, 0.000000000000000000 ) ) ;
#1039 = ORIENTED_EDGE ( 'NONE', *, *, #635, .T. ) ;
#1040 = ADVANCED_FACE ( 'NONE', ( #851 ), #831, .F. ) ;
#1041 = CARTESIAN_POINT ( 'NONE',  ( 0.000000000000000000, 17.50000000000000000, 0.000000000000000000 ) ) ;
#1042 = CIRCLE ( 'NONE', #878, 11.99999999999999822 ) ;
#1043 = CIRCLE ( 'NONE', #917, 2.000000000000000000 ) ;
#1044 = DIRECTION ( 'NONE',  ( 0.000000000000000000, 1.000000000000000000, 0.000000000000000000 ) ) ;
#1045 = AXIS2_PLACEMENT_3D ( 'NONE', #169, #711, #266 ) ;
#1046 = DIRECTION ( 'NONE',  ( -0.000000000000000000, -1.000000000000000000, -0.000000000000000000 ) ) ;
#1047 = CARTESIAN_POINT ( 'NONE',  ( 7.347880794884119736E-16, 0.000000000000000000, 6.000000000000000000 ) ) ;
#1048 = ORIENTED_EDGE ( 'NONE', *, *, #413, .T. ) ;
#1049 = DIRECTION ( 'NONE',  ( -0.000000000000000000, -1.000000000000000000, -0.000000000000000000 ) ) ;
#1050 = CARTESIAN_POINT ( 'NONE',  ( 0.000000000000000000, 0.000000000000000000, -11.99999999999999822 ) ) ;
#1051 = EDGE_CURVE ( 'NONE', #524, #911, #418, .T. ) ;
#1052 = FACE_OUTER_BOUND ( 'NONE', #562, .T. ) ;
#1053 = CYLINDRICAL_SURFACE ( 'NONE', #760, 6.000000000000000000 ) ;
#1054 = ORIENTED_EDGE ( 'NONE', *, *, #940, .T. ) ;
#1055 = DIRECTION ( 'NONE',  ( 0.000000000000000000, 0.7071067811865483499, 0.7071067811865466846 ) ) ;
#1056 = VECTOR ( 'NONE', #533, 1000.000000000000000 ) ;
#1057 = DIRECTION ( 'NONE',  ( 0.000000000000000000, 0.000000000000000000, -1.000000000000000000 ) ) ;
#1058 = EDGE_CURVE ( 'NONE', #498, #50, #398, .T. ) ;
#1059 = DIRECTION ( 'NONE',  ( 0.000000000000000000, 0.000000000000000000, 1.000000000000000000 ) ) ;
#1060 = ORIENTED_EDGE ( 'NONE', *, *, #1094, .T. ) ;
#1061 = DIRECTION ( 'NONE',  ( 0.000000000000000000, 0.000000000000000000, -1.000000000000000000 ) ) ;
#1062 = DIRECTION ( 'NONE',  ( 0.000000000000000000, 0.000000000000000000, 1.000000000000000000 ) ) ;
#1063 = AXIS2_PLACEMENT_3D ( 'NONE', #739, #1098, #833 ) ;
#1064 = AXIS2_PLACEMENT_3D ( 'NONE', #930, #900, #46 ) ;
#1065 = DIRECTION ( 'NONE',  ( -0.000000000000000000, -1.000000000000000000, -0.000000000000000000 ) ) ;
#1066 = PLANE ( 'NONE',  #950 ) ;
#1067 = CIRCLE ( 'NONE', #322, 13.49999999999999822 ) ;
#1068 = CARTESIAN_POINT ( 'NONE',  ( 1.469576158976823750E-15, 0.000000000000000000, 11.99999999999999822 ) ) ;
#1069 = ORIENTED_EDGE ( 'NONE', *, *, #497, .F. ) ;
#1070 = DIRECTION ( 'NONE',  ( -0.000000000000000000, -1.000000000000000000, -0.000000000000000000 ) ) ;
#1071 = DIRECTION ( 'NONE',  ( -0.000000000000000000, -1.000000000000000000, -0.000000000000000000 ) ) ;
#1072 = CARTESIAN_POINT ( 'NONE',  ( 1.469576158976824342E-15, 20.00000000000000000, 12.00000000000000355 ) ) ;
#1073 = ORIENTED_EDGE ( 'NONE', *, *, #318, .T. ) ;
#1074 = ADVANCED_FACE ( 'NONE', ( #996 ), #767, .T. ) ;
#1075 = AXIS2_PLACEMENT_3D ( 'NONE', #992, #276, #22 ) ;
#1076 = CARTESIAN_POINT ( 'NONE',  ( 0.000000000000000000, 7.000000000000000000, -11.99999999999999822 ) ) ;
#1077 = DIRECTION ( 'NONE',  ( -0.000000000000000000, -1.000000000000000000, -0.000000000000000000 ) ) ;
#1078 = ORIENTED_EDGE ( 'NONE', *, *, #1018, .T. ) ;
#1079 = EDGE_CURVE ( 'NONE', #153, #279, #243, .T. ) ;
#1080 = FACE_BOUND ( 'NONE', #315, .T. ) ;
#1081 = DIRECTION ( 'NONE',  ( -0.000000000000000000, -1.000000000000000000, -0.000000000000000000 ) ) ;
#1082 = CIRCLE ( 'NONE', #966, 12.00000000000000000 ) ;
#1083 = ORIENTED_EDGE ( 'NONE', *, *, #302, .F. ) ;
#1084 = AXIS2_PLACEMENT_3D ( 'NONE', #282, #1093, #388 ) ;
#1085 = VERTEX_POINT ( 'NONE', #592 ) ;
#1086 = EDGE_CURVE ( 'NONE', #1085, #1119, #1035, .T. ) ;
#1087 = CARTESIAN_POINT ( 'NONE',  ( 1.469576158976823947E-15, 12.50000000000000355, -12.00000000000000000 ) ) ;
#1088 = CARTESIAN_POINT ( 'NONE',  ( 0.000000000000000000, 19.99999999999999645, 0.000000000000000000 ) ) ;
#1089 = ORIENTED_EDGE ( 'NONE', *, *, #273, .T. ) ;
#1090 = EDGE_LOOP ( 'NONE', ( #442, #643 ) ) ;
#1091 = DIRECTION ( 'NONE',  ( 0.000000000000000000, 0.000000000000000000, -1.000000000000000000 ) ) ;
#1092 = DIRECTION ( 'NONE',  ( 0.000000000000000000, 1.000000000000000000, 0.000000000000000000 ) ) ;
#1093 = DIRECTION ( 'NONE',  ( -0.000000000000000000, -1.000000000000000000, -0.000000000000000000 ) ) ;
#1094 = EDGE_CURVE ( 'NONE', #423, #116, #665, .T. ) ;
#1095 = ORIENTED_EDGE ( 'NONE', *, *, #790, .T. ) ;
#1096 = ORIENTED_EDGE ( 'NONE', *, *, #698, .F. ) ;
#1097 = CARTESIAN_POINT ( 'NONE',  ( 0.000000000000000000, 24.49999999999999645, 0.000000000000000000 ) ) ;
#1098 = DIRECTION ( 'NONE',  ( -0.000000000000000000, -1.000000000000000000, -0.000000000000000000 ) ) ;
#1099 = TOROIDAL_SURFACE ( 'NONE', #404, 13.00000000000000000, 2.000000000000000888 ) ;
#1100 = ORIENTED_EDGE ( 'NONE', *, *, #235, .F. ) ;
#1101 = EDGE_LOOP ( 'NONE', ( #239, #581, #861, #142 ) ) ;
#1102 = FACE_OUTER_BOUND ( 'NONE', #109, .T. ) ;
#1103 = ORIENTED_EDGE ( 'NONE', *, *, #978, .F. ) ;
#1104 = VERTEX_POINT ( 'NONE', #677 ) ;
#1105 = EDGE_CURVE ( 'NONE', #1114, #811, #106, .T. ) ;
#1106 = DIRECTION ( 'NONE',  ( 0.000000000000000000, 0.000000000000000000, -1.000000000000000000 ) ) ;
#1107 = CARTESIAN_POINT ( 'NONE',  ( 1.653273178848926669E-15, 3.499999999999999112, -13.49999999999999822 ) ) ;
#1108 = AXIS2_PLACEMENT_3D ( 'NONE', #83, #178, #543 ) ;
#1109 = VERTEX_POINT ( 'NONE', #920 ) ;
#1110 = CARTESIAN_POINT ( 'NONE',  ( 0.000000000000000000, 17.50000000000000000, 13.50000000000000178 ) ) ;
#1111 = EDGE_CURVE ( 'NONE', #972, #12, #327, .T. ) ;
#1112 = ORIENTED_EDGE ( 'NONE', *, *, #606, .F. ) ;
#1113 = CONICAL_SURFACE ( 'NONE', #420, 12.00000000000000000, 0.7853981633974482790 ) ;
#1114 = VERTEX_POINT ( 'NONE', #391 ) ;
#1115 = CIRCLE ( 'NONE', #619, 11.99999999999999822 ) ;
#1116 = VECTOR ( 'NONE', #869, 999.9999999999998863 ) ;
#1117 = CARTESIAN_POINT ( 'NONE',  ( 0.000000000000000000, 0.000000000000000000, 0.000000000000000000 ) ) ;
#1118 = CARTESIAN_POINT ( 'NONE',  ( 0.000000000000000000, 0.000000000000000000, -12.00000000000000000 ) ) ;
#1119 = VERTEX_POINT ( 'NONE', #34 ) ;
#1120 = EDGE_LOOP ( 'NONE', ( #284, #847, #225, #456 ) ) ;
#1121 = LINE ( 'NONE', #683, #463 ) ;
#1122 = DIRECTION ( 'NONE',  ( 0.000000000000000000, -0.000000000000000000, 1.000000000000000000 ) ) ;
#1123 = DIRECTION ( 'NONE',  ( 0.000000000000000000, 0.000000000000000000, -1.000000000000000000 ) ) ;
#1124 = CIRCLE ( 'NONE', #1075, 12.00000000000000000 ) ;
#1125 = ORIENTED_EDGE ( 'NONE', *, *, #182, .F. ) ;
#1126 = DIRECTION ( 'NONE',  ( 0.000000000000000000, 0.000000000000000000, -1.000000000000000000 ) ) ;
#1127 = CARTESIAN_POINT ( 'NONE',  ( 1.469576158976823947E-15, 14.00000000000000178, 12.00000000000000000 ) ) ;
#1128 = CARTESIAN_POINT ( 'NONE',  ( 1.469576158976824342E-15, 0.000000000000000000, 12.00000000000000355 ) ) ;
#1129 = ORIENTED_EDGE ( 'NONE', *, *, #94, .T. ) ;
#1130 = DIRECTION ( 'NONE',  ( 0.000000000000000000, 0.000000000000000000, -1.000000000000000000 ) ) ;
#1131 = AXIS2_PLACEMENT_3D ( 'NONE', #820, #574, #400 ) ;
#1132 = DIRECTION ( 'NONE',  ( -0.000000000000000000, -1.000000000000000000, -0.000000000000000000 ) ) ;
#1133 = AXIS2_PLACEMENT_3D ( 'NONE', #214, #654, #1003 ) ;
#1134 = DIRECTION ( 'NONE',  ( -0.000000000000000000, -1.000000000000000000, -0.000000000000000000 ) ) ;
#1135 = DIRECTION ( 'NONE',  ( 0.000000000000000000, 1.000000000000000000, 0.000000000000000000 ) ) ;
#1136 = ORIENTED_EDGE ( 'NONE', *, *, #352, .T. ) ;
#1137 = EDGE_CURVE ( 'NONE', #15, #589, #65, .T. ) ;
#1138 = CARTESIAN_POINT ( 'NONE',  ( 0.000000000000000000, 24.49999999999999645, 0.000000000000000000 ) ) ;
#1139 = EDGE_LOOP ( 'NONE', ( #663, #168, #301, #500 ) ) ;
#1140 = CARTESIAN_POINT ( 'NONE',  ( 0.000000000000000000, 10.50000000000000355, 0.000000000000000000 ) ) ;
#1141 = VECTOR ( 'NONE', #237, 1000.000000000000000 ) ;
ENDSEC;
END-ISO-10303-21;
