ISO-10303-21;
HEADER;
FILE_DESCRIPTION (( 'STEP AP214' ),
    '1' );
FILE_NAME ('Tilt_Side_Panel.STEP',
    '2025-11-12T17:55:11',
    ( '' ),
    ( '' ),
    'SwSTEP 2.0',
    'SolidWorks 2024',
    '' );
FILE_SCHEMA (( 'AUTOMOTIVE_DESIGN' ));
ENDSEC;

DATA;
#1 = DIRECTION ( 'NONE',  ( -1.000000000000000000, -0.000000000000000000, -0.000000000000000000 ) ) ;
#2 = MANIFOLD_SOLID_BREP ( 'Boss-Extrude1', #142 ) ;
#3 = ORIENTED_EDGE ( 'NONE', *, *, #117, .F. ) ;
#4 = DIRECTION ( 'NONE',  ( 0.000000000000000000, 0.9230769230769229061, 0.3846153846153849143 ) ) ;
#5 = LINE ( 'NONE', #94, #514 ) ;
#6 = VERTEX_POINT ( 'NONE', #796 ) ;
#7 = FACE_BOUND ( 'NONE', #372, .T. ) ;
#8 = EDGE_CURVE ( 'NONE', #557, #482, #748, .T. ) ;
#9 = AXIS2_PLACEMENT_3D ( 'NONE', #199, #524, #196 ) ;
#10 = ORIENTED_EDGE ( 'NONE', *, *, #416, .F. ) ;
#11 = VECTOR ( 'NONE', #63, 1000.000000000000000 ) ;
#12 = DIRECTION ( 'NONE',  ( 1.000000000000000000, 0.000000000000000000, 0.000000000000000000 ) ) ;
#13 = ORIENTED_EDGE ( 'NONE', *, *, #738, .T. ) ;
#14 = DIRECTION ( 'NONE',  ( 0.000000000000000000, -0.9230769230769230171, -0.3846153846153850253 ) ) ;
#15 = ORIENTED_EDGE ( 'NONE', *, *, #399, .T. ) ;
#16 = CARTESIAN_POINT ( 'NONE',  ( 0.000000000000000000, -40.00000000000000000, 3.099999999999995648 ) ) ;
#17 = DIRECTION ( 'NONE',  ( 0.000000000000000000, 0.000000000000000000, -1.000000000000000000 ) ) ;
#18 = ORIENTED_EDGE ( 'NONE', *, *, #715, .F. ) ;
#19 = CARTESIAN_POINT ( 'NONE',  ( 0.000000000000000000, 16.99999999999999645, 16.66666666666666785 ) ) ;
#20 = DIRECTION ( 'NONE',  ( 0.000000000000000000, 0.000000000000000000, 1.000000000000000000 ) ) ;
#21 = AXIS2_PLACEMENT_3D ( 'NONE', #256, #818, #403 ) ;
#22 = EDGE_CURVE ( 'NONE', #494, #276, #804, .T. ) ;
#23 = VECTOR ( 'NONE', #578, 1000.000000000000000 ) ;
#24 = CARTESIAN_POINT ( 'NONE',  ( 2.500000000000000000, 16.99999999999999645, 51.60000000000000142 ) ) ;
#25 = CARTESIAN_POINT ( 'NONE',  ( 2.500000000000000000, 16.99999999999999645, -50.00000000000000000 ) ) ;
#26 = CIRCLE ( 'NONE', #604, 3.100000000000000533 ) ;
#27 = ORIENTED_EDGE ( 'NONE', *, *, #405, .T. ) ;
#28 = DIRECTION ( 'NONE',  ( 0.000000000000000000, -1.000000000000000000, 0.000000000000000000 ) ) ;
#29 = CARTESIAN_POINT ( 'NONE',  ( 2.500000000000000000, -28.28427124746185584, 25.18427124746194323 ) ) ;
#30 = CYLINDRICAL_SURFACE ( 'NONE', #307, 1.600000000000000755 ) ;
#31 = DIRECTION ( 'NONE',  ( -0.000000000000000000, 1.000000000000000000, 3.469446951953614189E-16 ) ) ;
#32 = EDGE_LOOP ( 'NONE', ( #422, #424, #859, #268 ) ) ;
#33 = LINE ( 'NONE', #301, #23 ) ;
#34 = ORIENTED_EDGE ( 'NONE', *, *, #376, .T. ) ;
#35 = PLANE ( 'NONE',  #203 ) ;
#36 = CARTESIAN_POINT ( 'NONE',  ( 0.000000000000000000, 16.99999999999999645, -48.40000000000000568 ) ) ;
#37 = VERTEX_POINT ( 'NONE', #455 ) ;
#38 = DIRECTION ( 'NONE',  ( -1.000000000000000000, -0.000000000000000000, -0.000000000000000000 ) ) ;
#39 = VECTOR ( 'NONE', #625, 1000.000000000000000 ) ;
#40 = CARTESIAN_POINT ( 'NONE',  ( 2.500000000000000000, 16.99999999999999645, -18.26666666666666572 ) ) ;
#41 = CIRCLE ( 'NONE', #348, 3.100000000000000533 ) ;
#42 = EDGE_LOOP ( 'NONE', ( #562, #133 ) ) ;
#43 = ADVANCED_FACE ( 'NONE', ( #587 ), #600, .F. ) ;
#44 = CARTESIAN_POINT ( 'NONE',  ( 2.500000000000000000, 1.999999999999998224, -55.00000000000000711 ) ) ;
#45 = DIRECTION ( 'NONE',  ( 0.000000000000000000, 0.000000000000000000, -1.000000000000000000 ) ) ;
#46 = ORIENTED_EDGE ( 'NONE', *, *, #547, .F. ) ;
#47 = CARTESIAN_POINT ( 'NONE',  ( 2.500000000000000000, -28.28427124746185584, 25.18427124746194323 ) ) ;
#48 = ORIENTED_EDGE ( 'NONE', *, *, #164, .T. ) ;
#49 = DIRECTION ( 'NONE',  ( -1.000000000000000000, -0.000000000000000000, -0.000000000000000000 ) ) ;
#50 = CARTESIAN_POINT ( 'NONE',  ( 2.500000000000000000, 22.00000000000000000, -55.00000000000000000 ) ) ;
#51 = CARTESIAN_POINT ( 'NONE',  ( 2.500000000000000000, 16.99999999999999645, -50.00000000000000000 ) ) ;
#52 = FACE_BOUND ( 'NONE', #300, .T. ) ;
#53 = ORIENTED_EDGE ( 'NONE', *, *, #448, .F. ) ;
#54 = CARTESIAN_POINT ( 'NONE',  ( 0.000000000000000000, -28.28427124746185584, 28.28427124746194465 ) ) ;
#55 = PRODUCT_RELATED_PRODUCT_CATEGORY ( 'part', '', ( #617 ) ) ;
#56 = FACE_OUTER_BOUND ( 'NONE', #197, .T. ) ;
#57 = AXIS2_PLACEMENT_3D ( 'NONE', #721, #318, #369 ) ;
#58 = EDGE_LOOP ( 'NONE', ( #401, #638 ) ) ;
#59 = ORIENTED_EDGE ( 'NONE', *, *, #364, .F. ) ;
#60 = CARTESIAN_POINT ( 'NONE',  ( 2.500000000000000000, 0.000000000000000000, 0.000000000000000000 ) ) ;
#61 = CARTESIAN_POINT ( 'NONE',  ( 2.500000000000000000, 16.99999999999999645, 16.66666666666666785 ) ) ;
#62 = ORIENTED_EDGE ( 'NONE', *, *, #131, .T. ) ;
#63 = DIRECTION ( 'NONE',  ( -1.000000000000000000, -0.000000000000000000, -0.000000000000000000 ) ) ;
#64 = VERTEX_POINT ( 'NONE', #400 ) ;
#65 = ADVANCED_FACE ( 'NONE', ( #471 ), #668, .T. ) ;
#66 = ORIENTED_EDGE ( 'NONE', *, *, #663, .F. ) ;
#67 = DIRECTION ( 'NONE',  ( -1.000000000000000000, -0.000000000000000000, -0.000000000000000000 ) ) ;
#68 = VECTOR ( 'NONE', #380, 1000.000000000000000 ) ;
#69 = VERTEX_POINT ( 'NONE', #595 ) ;
#70 = AXIS2_PLACEMENT_3D ( 'NONE', #561, #434, #528 ) ;
#71 = LINE ( 'NONE', #608, #555 ) ;
#72 = VERTEX_POINT ( 'NONE', #187 ) ;
#73 = CARTESIAN_POINT ( 'NONE',  ( 0.000000000000000000, 1.999999999999998224, 55.00000000000000000 ) ) ;
#74 = ORIENTED_EDGE ( 'NONE', *, *, #819, .T. ) ;
#75 = EDGE_CURVE ( 'NONE', #174, #509, #463, .T. ) ;
#76 = CIRCLE ( 'NONE', #570, 1.599999999999997202 ) ;
#77 = EDGE_LOOP ( 'NONE', ( #460, #377 ) ) ;
#78 = CIRCLE ( 'NONE', #109, 1.599999999999997202 ) ;
#79 = VECTOR ( 'NONE', #501, 1000.000000000000000 ) ;
#80 = CARTESIAN_POINT ( 'NONE',  ( 0.000000000000000000, 1.999999999999998224, -55.00000000000000711 ) ) ;
#81 = EDGE_CURVE ( 'NONE', #544, #727, #161, .T. ) ;
#82 = VERTEX_POINT ( 'NONE', #125 ) ;
#83 = FACE_OUTER_BOUND ( 'NONE', #148, .T. ) ;
#84 = ORIENTED_EDGE ( 'NONE', *, *, #164, .F. ) ;
#85 = ADVANCED_FACE ( 'NONE', ( #459 ), #263, .F. ) ;
#86 = CARTESIAN_POINT ( 'NONE',  ( 0.000000000000000000, -28.28427124746185584, 25.18427124746194323 ) ) ;
#87 = DIRECTION ( 'NONE',  ( 1.000000000000000000, 0.000000000000000000, 0.000000000000000000 ) ) ;
#88 = DIRECTION ( 'NONE',  ( 0.000000000000000000, 0.000000000000000000, 1.000000000000000000 ) ) ;
#89 = ORIENTED_EDGE ( 'NONE', *, *, #212, .T. ) ;
#90 = CARTESIAN_POINT ( 'NONE',  ( 0.000000000000000000, 22.00000000000000000, 55.00000000000000000 ) ) ;
#91 = FACE_OUTER_BOUND ( 'NONE', #616, .T. ) ;
#92 = CIRCLE ( 'NONE', #613, 3.099999999999998757 ) ;
#93 = AXIS2_PLACEMENT_3D ( 'NONE', #169, #844, #225 ) ;
#94 = CARTESIAN_POINT ( 'NONE',  ( 2.500000000000000000, 22.00000000000000000, -55.00000000000000000 ) ) ;
#95 = ORIENTED_EDGE ( 'NONE', *, *, #269, .F. ) ;
#96 = CARTESIAN_POINT ( 'NONE',  ( 0.000000000000000000, -46.98725209745123976, -7.153901601690043854 ) ) ;
#97 = FACE_OUTER_BOUND ( 'NONE', #549, .T. ) ;
#98 = FACE_OUTER_BOUND ( 'NONE', #126, .T. ) ;
#99 = ADVANCED_FACE ( 'NONE', ( #219 ), #293, .F. ) ;
#100 = ORIENTED_EDGE ( 'NONE', *, *, #631, .F. ) ;
#101 = DIRECTION ( 'NONE',  ( 0.000000000000000000, -0.000000000000000000, -1.000000000000000000 ) ) ;
#102 = FACE_OUTER_BOUND ( 'NONE', #833, .T. ) ;
#103 = LINE ( 'NONE', #373, #436 ) ;
#104 = EDGE_CURVE ( 'NONE', #643, #879, #5, .T. ) ;
#105 = ORIENTED_EDGE ( 'NONE', *, *, #586, .F. ) ;
#106 = FACE_BOUND ( 'NONE', #136, .T. ) ;
#107 = LINE ( 'NONE', #799, #686 ) ;
#108 = APPLICATION_CONTEXT ( 'automotive_design' ) ;
#109 = AXIS2_PLACEMENT_3D ( 'NONE', #786, #175, #316 ) ;
#110 = EDGE_LOOP ( 'NONE', ( #534, #13, #178, #264 ) ) ;
#111 = EDGE_CURVE ( 'NONE', #271, #72, #658, .T. ) ;
#112 = DIRECTION ( 'NONE',  ( 0.000000000000000000, 0.000000000000000000, -1.000000000000000000 ) ) ;
#113 =( NAMED_UNIT ( * ) PLANE_ANGLE_UNIT ( ) SI_UNIT ( $, .RADIAN. ) );
#114 = CARTESIAN_POINT ( 'NONE',  ( 2.500000000000000000, 16.99999999999999645, -16.66666666666666785 ) ) ;
#115 = PLANE ( 'NONE',  #880 ) ;
#116 = ORIENTED_EDGE ( 'NONE', *, *, #529, .F. ) ;
#117 = EDGE_CURVE ( 'NONE', #69, #322, #487, .T. ) ;
#118 = CARTESIAN_POINT ( 'NONE',  ( 2.500000000000000000, 16.99999999999999645, -50.00000000000000000 ) ) ;
#119 = ORIENTED_EDGE ( 'NONE', *, *, #205, .F. ) ;
#120 = LINE ( 'NONE', #254, #308 ) ;
#121 = VERTEX_POINT ( 'NONE', #24 ) ;
#122 = CIRCLE ( 'NONE', #347, 1.600000000000000755 ) ;
#123 = AXIS2_PLACEMENT_3D ( 'NONE', #550, #28, #101 ) ;
#124 = DIRECTION ( 'NONE',  ( 1.000000000000000000, 0.000000000000000000, 0.000000000000000000 ) ) ;
#125 = CARTESIAN_POINT ( 'NONE',  ( 0.000000000000000000, -36.95518130045157079, 18.40733729460335510 ) ) ;
#126 = EDGE_LOOP ( 'NONE', ( #311, #743, #361, #255 ) ) ;
#127 = EDGE_CURVE ( 'NONE', #584, #295, #287, .T. ) ;
#128 = ORIENTED_EDGE ( 'NONE', *, *, #519, .T. ) ;
#129 = EDGE_LOOP ( 'NONE', ( #343, #353, #722, #207, #355, #694, #116 ) ) ;
#130 = CARTESIAN_POINT ( 'NONE',  ( 0.000000000000000000, 0.000000000000000000, 0.000000000000000000 ) ) ;
#131 = EDGE_CURVE ( 'NONE', #727, #648, #134, .T. ) ;
#132 = DIRECTION ( 'NONE',  ( 0.000000000000000000, 0.000000000000000000, -1.000000000000000000 ) ) ;
#133 = ORIENTED_EDGE ( 'NONE', *, *, #481, .T. ) ;
#134 = LINE ( 'NONE', #823, #603 ) ;
#135 = AXIS2_PLACEMENT_3D ( 'NONE', #396, #177, #182 ) ;
#136 = EDGE_LOOP ( 'NONE', ( #100, #589 ) ) ;
#137 = PLANE ( 'NONE',  #809 ) ;
#138 = ORIENTED_EDGE ( 'NONE', *, *, #728, .F. ) ;
#139 = EDGE_CURVE ( 'NONE', #798, #661, #76, .T. ) ;
#140 = ORIENTED_EDGE ( 'NONE', *, *, #493, .T. ) ;
#141 = ADVANCED_FACE ( 'NONE', ( #204 ), #222, .F. ) ;
#142 = CLOSED_SHELL ( 'NONE', ( #602, #305, #85, #141, #596, #99, #230, #667, #855, #673, #147, #552, #537, #65, #283, #869, #788, #430, #393, #510, #649, #486, #703, #43, #645 ) ) ;
#143 = EDGE_LOOP ( 'NONE', ( #27, #163 ) ) ;
#144 = CARTESIAN_POINT ( 'NONE',  ( 2.500000000000000000, 16.99999999999999645, 50.00000000000000000 ) ) ;
#145 = AXIS2_PLACEMENT_3D ( 'NONE', #792, #445, #709 ) ;
#146 = APPLICATION_CONTEXT ( 'automotive_design' ) ;
#147 = ADVANCED_FACE ( 'NONE', ( #267 ), #137, .F. ) ;
#148 = EDGE_LOOP ( 'NONE', ( #46, #456, #572, #611 ) ) ;
#149 = DIRECTION ( 'NONE',  ( 1.000000000000000000, 0.000000000000000000, 0.000000000000000000 ) ) ;
#150 = CARTESIAN_POINT ( 'NONE',  ( 0.000000000000000000, 1.999999999999998224, 55.00000000000000000 ) ) ;
#151 = DIRECTION ( 'NONE',  ( 1.000000000000000000, 0.000000000000000000, 0.000000000000000000 ) ) ;
#152 = CARTESIAN_POINT ( 'NONE',  ( 2.500000000000000000, -50.00000000000000000, -3.061616997868381859E-15 ) ) ;
#153 = ORIENTED_EDGE ( 'NONE', *, *, #618, .F. ) ;
#154 = LINE ( 'NONE', #282, #477 ) ;
#155 = ORIENTED_EDGE ( 'NONE', *, *, #22, .T. ) ;
#156 = CARTESIAN_POINT ( 'NONE',  ( 0.000000000000000000, 16.99999999999999645, -18.26666666666666572 ) ) ;
#157 = DIRECTION ( 'NONE',  ( 0.000000000000000000, 0.000000000000000000, -1.000000000000000000 ) ) ;
#158 = DIRECTION ( 'NONE',  ( 0.000000000000000000, 0.000000000000000000, 1.000000000000000000 ) ) ;
#159 = EDGE_LOOP ( 'NONE', ( #579, #717, #384, #189 ) ) ;
#160 = CARTESIAN_POINT ( 'NONE',  ( 0.000000000000000000, -28.28427124746185584, 28.28427124746194465 ) ) ;
#161 = CIRCLE ( 'NONE', #732, 1.600000000000002531 ) ;
#162 = CARTESIAN_POINT ( 'NONE',  ( 2.500000000000000000, 1.999999999999998224, -55.00000000000000711 ) ) ;
#163 = ORIENTED_EDGE ( 'NONE', *, *, #506, .T. ) ;
#164 = EDGE_CURVE ( 'NONE', #749, #237, #166, .T. ) ;
#165 = VECTOR ( 'NONE', #697, 1000.000000000000000 ) ;
#166 = LINE ( 'NONE', #358, #419 ) ;
#167 = CYLINDRICAL_SURFACE ( 'NONE', #718, 1.599999999999997202 ) ;
#168 = ORIENTED_EDGE ( 'NONE', *, *, #631, .T. ) ;
#169 = CARTESIAN_POINT ( 'NONE',  ( 0.000000000000000000, -36.95518130045157079, 15.30733729460335368 ) ) ;
#170 = CARTESIAN_POINT ( 'NONE',  ( 2.500000000000000000, -28.28427124746185584, 28.28427124746194465 ) ) ;
#171 = EDGE_LOOP ( 'NONE', ( #138, #278, #696, #615 ) ) ;
#172 = CARTESIAN_POINT ( 'NONE',  ( 2.500000000000000000, -40.00000000000000000, -3.100000000000004974 ) ) ;
#173 =( NAMED_UNIT ( * ) SI_UNIT ( $, .STERADIAN. ) SOLID_ANGLE_UNIT ( ) );
#174 = VERTEX_POINT ( 'NONE', #411 ) ;
#175 = DIRECTION ( 'NONE',  ( 1.000000000000000000, 0.000000000000000000, 0.000000000000000000 ) ) ;
#176 = EDGE_CURVE ( 'NONE', #584, #382, #535, .T. ) ;
#177 = DIRECTION ( 'NONE',  ( 0.000000000000000000, -3.469446951953614189E-16, 1.000000000000000000 ) ) ;
#178 = ORIENTED_EDGE ( 'NONE', *, *, #860, .T. ) ;
#179 = CARTESIAN_POINT ( 'NONE',  ( 2.500000000000000000, -36.95518130045157079, 18.40733729460335155 ) ) ;
#180 = CIRCLE ( 'NONE', #878, 50.00000000000000000 ) ;
#181 = CIRCLE ( 'NONE', #217, 3.100000000000000533 ) ;
#182 = DIRECTION ( 'NONE',  ( 0.000000000000000000, -1.000000000000000000, -3.469446951953614189E-16 ) ) ;
#183 = EDGE_CURVE ( 'NONE', #482, #557, #671, .T. ) ;
#184 = CARTESIAN_POINT ( 'NONE',  ( 0.000000000000000000, 22.00000000000000000, 55.00000000000000000 ) ) ;
#185 = ORIENTED_EDGE ( 'NONE', *, *, #580, .T. ) ;
#186 = CARTESIAN_POINT ( 'NONE',  ( 0.000000000000000000, 22.00000000000000000, 55.00000000000000000 ) ) ;
#187 = CARTESIAN_POINT ( 'NONE',  ( 2.500000000000000000, 16.99999999999999645, -18.26666666666666572 ) ) ;
#188 = FACE_BOUND ( 'NONE', #754, .T. ) ;
#189 = ORIENTED_EDGE ( 'NONE', *, *, #299, .F. ) ;
#190 = DIRECTION ( 'NONE',  ( 0.000000000000000000, 0.000000000000000000, 1.000000000000000000 ) ) ;
#191 = DIRECTION ( 'NONE',  ( -1.000000000000000000, -0.000000000000000000, -0.000000000000000000 ) ) ;
#192 = VERTEX_POINT ( 'NONE', #201 ) ;
#193 = AXIS2_PLACEMENT_3D ( 'NONE', #114, #866, #190 ) ;
#194 = CIRCLE ( 'NONE', #465, 3.099999999999998757 ) ;
#195 = AXIS2_PLACEMENT_3D ( 'NONE', #130, #532, #289 ) ;
#196 = DIRECTION ( 'NONE',  ( 0.000000000000000000, 0.000000000000000000, -1.000000000000000000 ) ) ;
#197 = EDGE_LOOP ( 'NONE', ( #390, #406, #672, #48 ) ) ;
#198 = EDGE_CURVE ( 'NONE', #798, #872, #676, .T. ) ;
#199 = CARTESIAN_POINT ( 'NONE',  ( 0.000000000000000000, 16.99999999999999645, -16.66666666666666785 ) ) ;
#200 = ORIENTED_EDGE ( 'NONE', *, *, #543, .F. ) ;
#201 = CARTESIAN_POINT ( 'NONE',  ( 2.500000000000000000, -28.28427124746185584, 31.38427124746194607 ) ) ;
#202 = ORIENTED_EDGE ( 'NONE', *, *, #757, .F. ) ;
#203 = AXIS2_PLACEMENT_3D ( 'NONE', #44, #518, #802 ) ;
#204 = FACE_OUTER_BOUND ( 'NONE', #498, .T. ) ;
#205 = EDGE_CURVE ( 'NONE', #655, #192, #92, .T. ) ;
#206 = AXIS2_PLACEMENT_3D ( 'NONE', #170, #458, #444 ) ;
#207 = ORIENTED_EDGE ( 'NONE', *, *, #493, .F. ) ;
#208 = ORIENTED_EDGE ( 'NONE', *, *, #243, .T. ) ;
#209 = ORIENTED_EDGE ( 'NONE', *, *, #418, .F. ) ;
#210 = DIRECTION ( 'NONE',  ( -1.000000000000000000, -0.000000000000000000, -0.000000000000000000 ) ) ;
#211 = FACE_OUTER_BOUND ( 'NONE', #288, .T. ) ;
#212 = EDGE_CURVE ( 'NONE', #69, #688, #71, .T. ) ;
#213 = AXIS2_PLACEMENT_3D ( 'NONE', #427, #478, #298 ) ;
#214 = ORIENTED_EDGE ( 'NONE', *, *, #687, .F. ) ;
#215 = CARTESIAN_POINT ( 'NONE',  ( 2.500000000000000000, 16.99999999999999645, 18.26666666666666572 ) ) ;
#216 = AXIS2_PLACEMENT_3D ( 'NONE', #610, #461, #729 ) ;
#217 = AXIS2_PLACEMENT_3D ( 'NONE', #425, #689, #622 ) ;
#218 = DIRECTION ( 'NONE',  ( 0.000000000000000000, 0.000000000000000000, 1.000000000000000000 ) ) ;
#219 = FACE_OUTER_BOUND ( 'NONE', #32, .T. ) ;
#220 = ORIENTED_EDGE ( 'NONE', *, *, #131, .F. ) ;
#221 = CARTESIAN_POINT ( 'NONE',  ( 2.500000000000000000, -36.95518130045157079, 12.20733729460335226 ) ) ;
#222 = CYLINDRICAL_SURFACE ( 'NONE', #554, 1.600000000000000755 ) ;
#223 = PRODUCT_DEFINITION_SHAPE ( 'NONE', 'NONE',  #678 ) ;
#224 = VERTEX_POINT ( 'NONE', #492 ) ;
#225 = DIRECTION ( 'NONE',  ( 0.000000000000000000, 0.000000000000000000, -1.000000000000000000 ) ) ;
#226 = FACE_BOUND ( 'NONE', #143, .T. ) ;
#227 = ORIENTED_EDGE ( 'NONE', *, *, #747, .T. ) ;
#228 = CARTESIAN_POINT ( 'NONE',  ( 2.500000000000000000, 22.00000000000000000, 55.00000000000000000 ) ) ;
#229 = ORIENTED_EDGE ( 'NONE', *, *, #8, .T. ) ;
#230 = ADVANCED_FACE ( 'NONE', ( #414 ), #605, .F. ) ;
#231 = FACE_OUTER_BOUND ( 'NONE', #705, .T. ) ;
#232 = STYLED_ITEM ( 'NONE', ( #653 ), #2 ) ;
#233 = DIRECTION ( 'NONE',  ( -1.000000000000000000, -0.000000000000000000, -0.000000000000000000 ) ) ;
#234 = CIRCLE ( 'NONE', #588, 1.600000000000002531 ) ;
#235 = PRODUCT_DEFINITION_FORMATION_WITH_SPECIFIED_SOURCE ( 'ANY', '', #617, .NOT_KNOWN. ) ;
#236 = CARTESIAN_POINT ( 'NONE',  ( 2.500000000000000000, -46.98725209745123976, -7.153901601690043854 ) ) ;
#237 = VERTEX_POINT ( 'NONE', #73 ) ;
#238 = FACE_BOUND ( 'NONE', #77, .T. ) ;
#239 = DIRECTION ( 'NONE',  ( -1.000000000000000000, -0.000000000000000000, -0.000000000000000000 ) ) ;
#240 = ORIENTED_EDGE ( 'NONE', *, *, #715, .T. ) ;
#241 = CARTESIAN_POINT ( 'NONE',  ( 2.500000000000000000, 16.99999999999999645, -15.06666666666666465 ) ) ;
#242 = CARTESIAN_POINT ( 'NONE',  ( 2.500000000000000000, 1.999999999999998224, 55.00000000000000000 ) ) ;
#243 = EDGE_CURVE ( 'NONE', #82, #468, #761, .T. ) ;
#244 = FILL_AREA_STYLE_COLOUR ( '', #435 ) ;
#245 = DIRECTION ( 'NONE',  ( 1.000000000000000000, 0.000000000000000000, 0.000000000000000000 ) ) ;
#246 = CIRCLE ( 'NONE', #644, 1.600000000000002531 ) ;
#247 = DIRECTION ( 'NONE',  ( -1.000000000000000000, -0.000000000000000000, -0.000000000000000000 ) ) ;
#248 = CYLINDRICAL_SURFACE ( 'NONE', #275, 3.100000000000000533 ) ;
#249 = DIRECTION ( 'NONE',  ( -1.000000000000000000, -0.000000000000000000, -0.000000000000000000 ) ) ;
#250 = DIRECTION ( 'NONE',  ( 0.000000000000000000, 0.000000000000000000, -1.000000000000000000 ) ) ;
#251 = ORIENTED_EDGE ( 'NONE', *, *, #875, .T. ) ;
#252 = DIRECTION ( 'NONE',  ( 1.000000000000000000, 0.000000000000000000, 0.000000000000000000 ) ) ;
#253 = CARTESIAN_POINT ( 'NONE',  ( 2.500000000000000000, 0.000000000000000000, 3.100000000000000533 ) ) ;
#254 = CARTESIAN_POINT ( 'NONE',  ( 2.500000000000000000, 0.000000000000000000, 3.100000000000000533 ) ) ;
#255 = ORIENTED_EDGE ( 'NONE', *, *, #580, .F. ) ;
#256 = CARTESIAN_POINT ( 'NONE',  ( 2.500000000000000000, 16.99999999999999645, 16.66666666666666785 ) ) ;
#257 =( NAMED_UNIT ( * ) SI_UNIT ( $, .STERADIAN. ) SOLID_ANGLE_UNIT ( ) );
#258 = ORIENTED_EDGE ( 'NONE', *, *, #710, .T. ) ;
#259 = EDGE_CURVE ( 'NONE', #509, #382, #180, .T. ) ;
#260 = PRESENTATION_LAYER_ASSIGNMENT (  '', '', ( #232 ) ) ;
#261 = AXIS2_PLACEMENT_3D ( 'NONE', #560, #344, #820 ) ;
#262 = AXIS2_PLACEMENT_3D ( 'NONE', #765, #149, #830 ) ;
#263 = CYLINDRICAL_SURFACE ( 'NONE', #346, 1.599999999999997202 ) ;
#264 = ORIENTED_EDGE ( 'NONE', *, *, #481, .F. ) ;
#265 = DIRECTION ( 'NONE',  ( 0.000000000000000000, 0.000000000000000000, -1.000000000000000000 ) ) ;
#266 = FACE_BOUND ( 'NONE', #331, .T. ) ;
#267 = FACE_OUTER_BOUND ( 'NONE', #874, .T. ) ;
#268 = ORIENTED_EDGE ( 'NONE', *, *, #279, .F. ) ;
#269 = EDGE_CURVE ( 'NONE', #224, #749, #107, .T. ) ;
#270 = DIRECTION ( 'NONE',  ( 0.000000000000000000, 0.000000000000000000, -1.000000000000000000 ) ) ;
#271 = VERTEX_POINT ( 'NONE', #241 ) ;
#272 = DIRECTION ( 'NONE',  ( 0.000000000000000000, 0.000000000000000000, -1.000000000000000000 ) ) ;
#273 =( GEOMETRIC_REPRESENTATION_CONTEXT ( 3 ) GLOBAL_UNCERTAINTY_ASSIGNED_CONTEXT ( ( #598 ) ) GLOBAL_UNIT_ASSIGNED_CONTEXT ( ( #404, #664, #257 ) ) REPRESENTATION_CONTEXT ( 'NONE', 'WORKASPACE' ) );
#274 = AXIS2_PLACEMENT_3D ( 'NONE', #335, #662, #745 ) ;
#275 = AXIS2_PLACEMENT_3D ( 'NONE', #389, #657, #845 ) ;
#276 = VERTEX_POINT ( 'NONE', #186 ) ;
#277 = LINE ( 'NONE', #150, #825 ) ;
#278 = ORIENTED_EDGE ( 'NONE', *, *, #329, .T. ) ;
#279 = EDGE_CURVE ( 'NONE', #37, #82, #324, .T. ) ;
#280 = CYLINDRICAL_SURFACE ( 'NONE', #779, 50.00000000000000000 ) ;
#281 = VERTEX_POINT ( 'NONE', #704 ) ;
#282 = CARTESIAN_POINT ( 'NONE',  ( 2.500000000000000000, 3.796405077356795411E-16, -3.100000000000000533 ) ) ;
#283 = ADVANCED_FACE ( 'NONE', ( #851 ), #35, .F. ) ;
#284 = CARTESIAN_POINT ( 'NONE',  ( 0.000000000000000000, -19.23076923076921929, 46.15384615384616041 ) ) ;
#285 = DIRECTION ( 'NONE',  ( 0.000000000000000000, 0.000000000000000000, 1.000000000000000000 ) ) ;
#286 = CARTESIAN_POINT ( 'NONE',  ( 2.500000000000000000, 16.99999999999999645, -15.06666666666666465 ) ) ;
#287 = CIRCLE ( 'NONE', #685, 10.00000000000000533 ) ;
#288 = EDGE_LOOP ( 'NONE', ( #632, #736, #62, #838 ) ) ;
#289 = DIRECTION ( 'NONE',  ( 0.000000000000000000, 0.000000000000000000, -1.000000000000000000 ) ) ;
#290 = CIRCLE ( 'NONE', #145, 3.100000000000000533 ) ;
#291 = CIRCLE ( 'NONE', #574, 1.599999999999997202 ) ;
#292 = DIRECTION ( 'NONE',  ( 0.000000000000000000, 0.000000000000000000, 1.000000000000000000 ) ) ;
#293 = CYLINDRICAL_SURFACE ( 'NONE', #850, 3.099999999999998757 ) ;
#294 = DIRECTION ( 'NONE',  ( -1.000000000000000000, -0.000000000000000000, -0.000000000000000000 ) ) ;
#295 = VERTEX_POINT ( 'NONE', #236 ) ;
#296 = DIRECTION ( 'NONE',  ( 1.000000000000000000, 0.000000000000000000, 0.000000000000000000 ) ) ;
#297 = ORIENTED_EDGE ( 'NONE', *, *, #842, .F. ) ;
#298 = DIRECTION ( 'NONE',  ( 0.000000000000000000, 0.000000000000000000, -1.000000000000000000 ) ) ;
#299 = EDGE_CURVE ( 'NONE', #192, #333, #513, .T. ) ;
#300 = EDGE_LOOP ( 'NONE', ( #153, #386 ) ) ;
#301 = CARTESIAN_POINT ( 'NONE',  ( 0.000000000000000000, 22.00000000000000000, -55.00000000000000000 ) ) ;
#302 = CARTESIAN_POINT ( 'NONE',  ( 2.500000000000000000, 16.99999999999999645, -16.66666666666666785 ) ) ;
#303 = ORIENTED_EDGE ( 'NONE', *, *, #176, .F. ) ;
#304 = FACE_BOUND ( 'NONE', #690, .T. ) ;
#305 = ADVANCED_FACE ( 'NONE', ( #98 ), #635, .F. ) ;
#306 = MECHANICAL_DESIGN_GEOMETRIC_PRESENTATION_REPRESENTATION (  '', ( #232 ), #273 ) ;
#307 = AXIS2_PLACEMENT_3D ( 'NONE', #612, #684, #218 ) ;
#308 = VECTOR ( 'NONE', #191, 1000.000000000000000 ) ;
#309 = CYLINDRICAL_SURFACE ( 'NONE', #488, 3.100000000000000533 ) ;
#310 = LINE ( 'NONE', #576, #79 ) ;
#311 = ORIENTED_EDGE ( 'NONE', *, *, #111, .T. ) ;
#312 = EDGE_CURVE ( 'NONE', #333, #817, #194, .T. ) ;
#313 = DIRECTION ( 'NONE',  ( 0.000000000000000000, 0.000000000000000000, -1.000000000000000000 ) ) ;
#314 = DIRECTION ( 'NONE',  ( -1.000000000000000000, -0.000000000000000000, -0.000000000000000000 ) ) ;
#315 = CARTESIAN_POINT ( 'NONE',  ( 2.500000000000000000, 1.999999999999998224, -55.00000000000000711 ) ) ;
#316 = DIRECTION ( 'NONE',  ( 0.000000000000000000, 0.000000000000000000, -1.000000000000000000 ) ) ;
#317 = CARTESIAN_POINT ( 'NONE',  ( 2.500000000000000000, 16.99999999999999645, 48.40000000000000568 ) ) ;
#318 = DIRECTION ( 'NONE',  ( 1.000000000000000000, 0.000000000000000000, 0.000000000000000000 ) ) ;
#319 = DIRECTION ( 'NONE',  ( 0.000000000000000000, -0.9230769230769230171, -0.3846153846153850253 ) ) ;
#320 = VERTEX_POINT ( 'NONE', #457 ) ;
#321 = DIRECTION ( 'NONE',  ( 1.000000000000000000, 0.000000000000000000, 0.000000000000000000 ) ) ;
#322 = VERTEX_POINT ( 'NONE', #172 ) ;
#323 = AXIS2_PLACEMENT_3D ( 'NONE', #302, #569, #863 ) ;
#324 = LINE ( 'NONE', #179, #68 ) ;
#325 = AXIS2_PLACEMENT_3D ( 'NONE', #789, #794, #45 ) ;
#326 = FILL_AREA_STYLE ('',( #244 ) ) ;
#327 = EDGE_LOOP ( 'NONE', ( #601, #708, #606, #345, #467, #677, #464 ) ) ;
#328 = CYLINDRICAL_SURFACE ( 'NONE', #216, 3.100000000000000533 ) ;
#329 = EDGE_CURVE ( 'NONE', #503, #37, #290, .T. ) ;
#330 = DIRECTION ( 'NONE',  ( -0.000000000000000000, -0.000000000000000000, 1.000000000000000000 ) ) ;
#331 = EDGE_LOOP ( 'NONE', ( #847, #15 ) ) ;
#332 = CARTESIAN_POINT ( 'NONE',  ( 0.000000000000000000, 0.000000000000000000, 0.000000000000000000 ) ) ;
#333 = VERTEX_POINT ( 'NONE', #868 ) ;
#334 = VERTEX_POINT ( 'NONE', #388 ) ;
#335 = CARTESIAN_POINT ( 'NONE',  ( 0.000000000000000000, 0.000000000000000000, 0.000000000000000000 ) ) ;
#336 = VECTOR ( 'NONE', #877, 1000.000000000000000 ) ;
#337 = CIRCLE ( 'NONE', #451, 3.100000000000000533 ) ;
#338 = AXIS2_PLACEMENT_3D ( 'NONE', #160, #371, #781 ) ;
#339 = DIRECTION ( 'NONE',  ( 0.000000000000000000, 0.000000000000000000, 1.000000000000000000 ) ) ;
#340 = ORIENTED_EDGE ( 'NONE', *, *, #813, .T. ) ;
#341 = EDGE_CURVE ( 'NONE', #879, #224, #103, .T. ) ;
#342 = DIRECTION ( 'NONE',  ( 1.000000000000000000, 0.000000000000000000, 0.000000000000000000 ) ) ;
#343 = ORIENTED_EDGE ( 'NONE', *, *, #774, .F. ) ;
#344 = DIRECTION ( 'NONE',  ( 1.000000000000000000, 0.000000000000000000, 0.000000000000000000 ) ) ;
#345 = ORIENTED_EDGE ( 'NONE', *, *, #127, .T. ) ;
#346 = AXIS2_PLACEMENT_3D ( 'NONE', #816, #314, #339 ) ;
#347 = AXIS2_PLACEMENT_3D ( 'NONE', #351, #882, #265 ) ;
#348 = AXIS2_PLACEMENT_3D ( 'NONE', #454, #402, #469 ) ;
#349 = ORIENTED_EDGE ( 'NONE', *, *, #183, .T. ) ;
#350 = CARTESIAN_POINT ( 'NONE',  ( 2.500000000000000000, 16.99999999999999645, 15.06666666666666465 ) ) ;
#351 = CARTESIAN_POINT ( 'NONE',  ( 2.500000000000000000, 16.99999999999999645, -16.66666666666666785 ) ) ;
#352 = EDGE_CURVE ( 'NONE', #647, #121, #642, .T. ) ;
#353 = ORIENTED_EDGE ( 'NONE', *, *, #22, .F. ) ;
#354 = LINE ( 'NONE', #834, #675 ) ;
#355 = ORIENTED_EDGE ( 'NONE', *, *, #747, .F. ) ;
#356 = DIRECTION ( 'NONE',  ( 0.000000000000000000, 0.000000000000000000, -1.000000000000000000 ) ) ;
#357 = DIRECTION ( 'NONE',  ( -1.000000000000000000, -0.000000000000000000, -0.000000000000000000 ) ) ;
#358 = CARTESIAN_POINT ( 'NONE',  ( 2.500000000000000000, 1.999999999999998224, 55.00000000000000000 ) ) ;
#359 = FACE_OUTER_BOUND ( 'NONE', #849, .T. ) ;
#360 = CIRCLE ( 'NONE', #836, 3.100000000000000533 ) ;
#361 = ORIENTED_EDGE ( 'NONE', *, *, #8, .F. ) ;
#362 = DIRECTION ( 'NONE',  ( 0.000000000000000000, 0.000000000000000000, -1.000000000000000000 ) ) ;
#363 = CARTESIAN_POINT ( 'NONE',  ( 2.500000000000000000, 16.99999999999999645, -51.60000000000000142 ) ) ;
#364 = EDGE_CURVE ( 'NONE', #661, #798, #407, .T. ) ;
#365 = CARTESIAN_POINT ( 'NONE',  ( 2.500000000000000000, -40.00000000000000000, -4.898587196589413026E-15 ) ) ;
#366 = ORIENTED_EDGE ( 'NONE', *, *, #139, .T. ) ;
#367 = CARTESIAN_POINT ( 'NONE',  ( 2.500000000000000000, 16.99999999999999645, -48.40000000000000568 ) ) ;
#368 = DIRECTION ( 'NONE',  ( -1.000000000000000000, -0.000000000000000000, -0.000000000000000000 ) ) ;
#369 = DIRECTION ( 'NONE',  ( 0.000000000000000000, 0.000000000000000000, -1.000000000000000000 ) ) ;
#370 = ORIENTED_EDGE ( 'NONE', *, *, #573, .T. ) ;
#371 = DIRECTION ( 'NONE',  ( 1.000000000000000000, 0.000000000000000000, 0.000000000000000000 ) ) ;
#372 = EDGE_LOOP ( 'NONE', ( #240, #34 ) ) ;
#373 = CARTESIAN_POINT ( 'NONE',  ( 2.500000000000000000, 22.00000000000000000, 55.00000000000000000 ) ) ;
#374 = DIRECTION ( 'NONE',  ( -1.000000000000000000, -0.000000000000000000, -0.000000000000000000 ) ) ;
#375 = APPLICATION_PROTOCOL_DEFINITION ( 'draft international standard', 'automotive_design', 1998, #146 ) ;
#376 = EDGE_CURVE ( 'NONE', #320, #648, #234, .T. ) ;
#377 = ORIENTED_EDGE ( 'NONE', *, *, #329, .F. ) ;
#378 = AXIS2_PLACEMENT_3D ( 'NONE', #118, #252, #112 ) ;
#379 = VECTOR ( 'NONE', #633, 1000.000000000000000 ) ;
#380 = DIRECTION ( 'NONE',  ( -1.000000000000000000, -0.000000000000000000, -0.000000000000000000 ) ) ;
#381 = ORIENTED_EDGE ( 'NONE', *, *, #768, .T. ) ;
#382 = VERTEX_POINT ( 'NONE', #651 ) ;
#383 = DIRECTION ( 'NONE',  ( 0.000000000000000000, 0.000000000000000000, -1.000000000000000000 ) ) ;
#384 = ORIENTED_EDGE ( 'NONE', *, *, #312, .F. ) ;
#385 = CARTESIAN_POINT ( 'NONE',  ( 2.500000000000000000, 0.000000000000000000, 0.000000000000000000 ) ) ;
#386 = ORIENTED_EDGE ( 'NONE', *, *, #352, .F. ) ;
#387 = EDGE_CURVE ( 'NONE', #72, #482, #522, .T. ) ;
#388 = CARTESIAN_POINT ( 'NONE',  ( 0.000000000000000000, 1.999999999999998224, -55.00000000000000711 ) ) ;
#389 = CARTESIAN_POINT ( 'NONE',  ( 2.500000000000000000, 0.000000000000000000, 0.000000000000000000 ) ) ;
#390 = ORIENTED_EDGE ( 'NONE', *, *, #529, .T. ) ;
#391 = ORIENTED_EDGE ( 'NONE', *, *, #831, .F. ) ;
#392 = VECTOR ( 'NONE', #247, 1000.000000000000000 ) ;
#393 = ADVANCED_FACE ( 'NONE', ( #575 ), #309, .F. ) ;
#394 =( GEOMETRIC_REPRESENTATION_CONTEXT ( 3 ) GLOBAL_UNCERTAINTY_ASSIGNED_CONTEXT ( ( #744 ) ) GLOBAL_UNIT_ASSIGNED_CONTEXT ( ( #449, #113, #173 ) ) REPRESENTATION_CONTEXT ( 'NONE', 'WORKASPACE' ) );
#395 = CARTESIAN_POINT ( 'NONE',  ( 2.500000000000000000, -40.00000000000000000, -4.898587196589413026E-15 ) ) ;
#396 = CARTESIAN_POINT ( 'NONE',  ( 2.500000000000000000, 22.00000000000000000, -55.00000000000000000 ) ) ;
#397 = EDGE_LOOP ( 'NONE', ( #140, #843, #297, #805 ) ) ;
#398 = CARTESIAN_POINT ( 'NONE',  ( 0.000000000000000000, -36.95518130045157079, 12.20733729460335226 ) ) ;
#399 = EDGE_CURVE ( 'NONE', #281, #872, #78, .T. ) ;
#400 = CARTESIAN_POINT ( 'NONE',  ( 0.000000000000000000, 3.796405077356795411E-16, -3.100000000000000533 ) ) ;
#401 = ORIENTED_EDGE ( 'NONE', *, *, #312, .T. ) ;
#402 = DIRECTION ( 'NONE',  ( 1.000000000000000000, 0.000000000000000000, 0.000000000000000000 ) ) ;
#403 = DIRECTION ( 'NONE',  ( 0.000000000000000000, 0.000000000000000000, -1.000000000000000000 ) ) ;
#404 =( LENGTH_UNIT ( ) NAMED_UNIT ( * ) SI_UNIT ( .MILLI., .METRE. ) );
#405 = EDGE_CURVE ( 'NONE', #688, #545, #699, .T. ) ;
#406 = ORIENTED_EDGE ( 'NONE', *, *, #75, .F. ) ;
#407 = CIRCLE ( 'NONE', #378, 1.599999999999997202 ) ;
#408 = VECTOR ( 'NONE', #49, 1000.000000000000000 ) ;
#409 = CIRCLE ( 'NONE', #338, 3.099999999999998757 ) ;
#410 = PLANE ( 'NONE',  #195 ) ;
#411 = CARTESIAN_POINT ( 'NONE',  ( 2.500000000000000000, -19.23076923076921929, 46.15384615384616041 ) ) ;
#412 = ORIENTED_EDGE ( 'NONE', *, *, #547, .T. ) ;
#413 = DIRECTION ( 'NONE',  ( 1.000000000000000000, 0.000000000000000000, 0.000000000000000000 ) ) ;
#414 = FACE_OUTER_BOUND ( 'NONE', #525, .T. ) ;
#415 = EDGE_LOOP ( 'NONE', ( #208, #479 ) ) ;
#416 = EDGE_CURVE ( 'NONE', #174, #584, #515, .T. ) ;
#417 = ORIENTED_EDGE ( 'NONE', *, *, #259, .T. ) ;
#418 = EDGE_CURVE ( 'NONE', #322, #69, #360, .T. ) ;
#419 = VECTOR ( 'NONE', #497, 1000.000000000000000 ) ;
#420 = AXIS2_PLACEMENT_3D ( 'NONE', #680, #837, #285 ) ;
#421 = CIRCLE ( 'NONE', #70, 1.599999999999997202 ) ;
#422 = ORIENTED_EDGE ( 'NONE', *, *, #806, .T. ) ;
#423 = CARTESIAN_POINT ( 'NONE',  ( 2.500000000000000000, 0.000000000000000000, 0.000000000000000000 ) ) ;
#424 = ORIENTED_EDGE ( 'NONE', *, *, #728, .T. ) ;
#425 = CARTESIAN_POINT ( 'NONE',  ( 2.500000000000000000, -36.95518130045157079, 15.30733729460335368 ) ) ;
#426 = DIRECTION ( 'NONE',  ( -1.000000000000000000, -0.000000000000000000, -0.000000000000000000 ) ) ;
#427 = CARTESIAN_POINT ( 'NONE',  ( 2.500000000000000000, 16.99999999999999645, -16.66666666666666785 ) ) ;
#428 = DIRECTION ( 'NONE',  ( -1.000000000000000000, -0.000000000000000000, -0.000000000000000000 ) ) ;
#429 = ORIENTED_EDGE ( 'NONE', *, *, #183, .F. ) ;
#430 = ADVANCED_FACE ( 'NONE', ( #473 ), #328, .F. ) ;
#431 = DIRECTION ( 'NONE',  ( 1.000000000000000000, 0.000000000000000000, 0.000000000000000000 ) ) ;
#432 = CARTESIAN_POINT ( 'NONE',  ( 0.000000000000000000, 22.00000000000000000, -55.00000000000000000 ) ) ;
#433 = CARTESIAN_POINT ( 'NONE',  ( 2.500000000000000000, -50.00000000000000000, -3.061616997868381859E-15 ) ) ;
#434 = DIRECTION ( 'NONE',  ( 1.000000000000000000, 0.000000000000000000, 0.000000000000000000 ) ) ;
#435 = COLOUR_RGB ( '',0.7921568627450980005, 0.8196078431372548767, 0.9333333333333333481 ) ;
#436 = VECTOR ( 'NONE', #725, 1000.000000000000000 ) ;
#437 = ORIENTED_EDGE ( 'NONE', *, *, #470, .F. ) ;
#438 = DIRECTION ( 'NONE',  ( -1.000000000000000000, -0.000000000000000000, -0.000000000000000000 ) ) ;
#439 = VECTOR ( 'NONE', #210, 1000.000000000000000 ) ;
#440 = CARTESIAN_POINT ( 'NONE',  ( 0.000000000000000000, 0.000000000000000000, 0.000000000000000000 ) ) ;
#441 = SHAPE_DEFINITION_REPRESENTATION ( #223, #650 ) ;
#442 = ORIENTED_EDGE ( 'NONE', *, *, #205, .T. ) ;
#443 = DIRECTION ( 'NONE',  ( 1.000000000000000000, 0.000000000000000000, 0.000000000000000000 ) ) ;
#444 = DIRECTION ( 'NONE',  ( 0.000000000000000000, 0.000000000000000000, 1.000000000000000000 ) ) ;
#445 = DIRECTION ( 'NONE',  ( 1.000000000000000000, 0.000000000000000000, 0.000000000000000000 ) ) ;
#446 = ORIENTED_EDGE ( 'NONE', *, *, #618, .T. ) ;
#447 = CARTESIAN_POINT ( 'NONE',  ( 0.000000000000000000, -40.00000000000000000, -4.898587196589413026E-15 ) ) ;
#448 = EDGE_CURVE ( 'NONE', #727, #544, #626, .T. ) ;
#449 =( LENGTH_UNIT ( ) NAMED_UNIT ( * ) SI_UNIT ( .MILLI., .METRE. ) );
#450 = EDGE_LOOP ( 'NONE', ( #105, #854, #89, #681 ) ) ;
#451 = AXIS2_PLACEMENT_3D ( 'NONE', #332, #599, #876 ) ;
#452 = VECTOR ( 'NONE', #567, 1000.000000000000000 ) ;
#453 = CARTESIAN_POINT ( 'NONE',  ( 2.500000000000000000, 16.99999999999999645, 50.00000000000000000 ) ) ;
#454 = CARTESIAN_POINT ( 'NONE',  ( 2.500000000000000000, 0.000000000000000000, 0.000000000000000000 ) ) ;
#455 = CARTESIAN_POINT ( 'NONE',  ( 2.500000000000000000, -36.95518130045157079, 18.40733729460335510 ) ) ;
#456 = ORIENTED_EDGE ( 'NONE', *, *, #352, .T. ) ;
#457 = CARTESIAN_POINT ( 'NONE',  ( 0.000000000000000000, 16.99999999999999645, 15.06666666666666465 ) ) ;
#458 = DIRECTION ( 'NONE',  ( -1.000000000000000000, -0.000000000000000000, -0.000000000000000000 ) ) ;
#459 = FACE_OUTER_BOUND ( 'NONE', #489, .T. ) ;
#460 = ORIENTED_EDGE ( 'NONE', *, *, #806, .F. ) ;
#461 = DIRECTION ( 'NONE',  ( -1.000000000000000000, -0.000000000000000000, -0.000000000000000000 ) ) ;
#462 = FACE_OUTER_BOUND ( 'NONE', #129, .T. ) ;
#463 = LINE ( 'NONE', #742, #336 ) ;
#464 = ORIENTED_EDGE ( 'NONE', *, *, #341, .T. ) ;
#465 = AXIS2_PLACEMENT_3D ( 'NONE', #54, #245, #782 ) ;
#466 = EDGE_CURVE ( 'NONE', #801, #64, #716, .T. ) ;
#467 = ORIENTED_EDGE ( 'NONE', *, *, #842, .T. ) ;
#468 = VERTEX_POINT ( 'NONE', #398 ) ;
#469 = DIRECTION ( 'NONE',  ( 0.000000000000000000, 0.000000000000000000, -1.000000000000000000 ) ) ;
#470 = EDGE_CURVE ( 'NONE', #879, #494, #530, .T. ) ;
#471 = FACE_OUTER_BOUND ( 'NONE', #784, .T. ) ;
#472 = ORIENTED_EDGE ( 'NONE', *, *, #875, .F. ) ;
#473 = FACE_OUTER_BOUND ( 'NONE', #110, .T. ) ;
#474 = DIRECTION ( 'NONE',  ( 0.000000000000000000, 0.000000000000000000, 1.000000000000000000 ) ) ;
#475 = ORIENTED_EDGE ( 'NONE', *, *, #104, .F. ) ;
#476 = CIRCLE ( 'NONE', #660, 3.100000000000000533 ) ;
#477 = VECTOR ( 'NONE', #483, 1000.000000000000000 ) ;
#478 = DIRECTION ( 'NONE',  ( 1.000000000000000000, 0.000000000000000000, 0.000000000000000000 ) ) ;
#479 = ORIENTED_EDGE ( 'NONE', *, *, #800, .T. ) ;
#480 = ORIENTED_EDGE ( 'NONE', *, *, #81, .F. ) ;
#481 = EDGE_CURVE ( 'NONE', #64, #801, #337, .T. ) ;
#482 = VERTEX_POINT ( 'NONE', #156 ) ;
#483 = DIRECTION ( 'NONE',  ( -1.000000000000000000, -0.000000000000000000, -0.000000000000000000 ) ) ;
#484 = FACE_OUTER_BOUND ( 'NONE', #171, .T. ) ;
#485 = CARTESIAN_POINT ( 'NONE',  ( 0.000000000000000000, 16.99999999999999645, -15.06666666666666465 ) ) ;
#486 = ADVANCED_FACE ( 'NONE', ( #211 ), #30, .F. ) ;
#487 = CIRCLE ( 'NONE', #776, 3.100000000000000533 ) ;
#488 = AXIS2_PLACEMENT_3D ( 'NONE', #856, #239, #511 ) ;
#489 = EDGE_LOOP ( 'NONE', ( #446, #412, #472, #200 ) ) ;
#490 = CARTESIAN_POINT ( 'NONE',  ( 0.000000000000000000, 16.99999999999999645, 50.00000000000000000 ) ) ;
#491 = DIRECTION ( 'NONE',  ( -0.000000000000000000, 0.7153901601690036971, -0.6987252097451238653 ) ) ;
#492 = CARTESIAN_POINT ( 'NONE',  ( 2.500000000000000000, 22.00000000000000000, 55.00000000000000000 ) ) ;
#493 = EDGE_CURVE ( 'NONE', #724, #334, #692, .T. ) ;
#494 = VERTEX_POINT ( 'NONE', #432 ) ;
#495 = LINE ( 'NONE', #706, #439 ) ;
#496 = CARTESIAN_POINT ( 'NONE',  ( 2.500000000000000000, 16.99999999999999645, 51.60000000000000142 ) ) ;
#497 = DIRECTION ( 'NONE',  ( -1.000000000000000000, -0.000000000000000000, -0.000000000000000000 ) ) ;
#498 = EDGE_LOOP ( 'NONE', ( #867, #128, #18, #220 ) ) ;
#499 = CYLINDRICAL_SURFACE ( 'NONE', #797, 1.599999999999997202 ) ;
#500 = CARTESIAN_POINT ( 'NONE',  ( 2.500000000000000000, -36.95518130045157079, 15.30733729460335368 ) ) ;
#501 = DIRECTION ( 'NONE',  ( -1.000000000000000000, -0.000000000000000000, -0.000000000000000000 ) ) ;
#502 = AXIS2_PLACEMENT_3D ( 'NONE', #730, #752, #4 ) ;
#503 = VERTEX_POINT ( 'NONE', #840 ) ;
#504 = CARTESIAN_POINT ( 'NONE',  ( 2.500000000000000000, 1.999999999999998224, 55.00000000000000000 ) ) ;
#505 = AXIS2_PLACEMENT_3D ( 'NONE', #490, #431, #362 ) ;
#506 = EDGE_CURVE ( 'NONE', #545, #688, #476, .T. ) ;
#507 = CARTESIAN_POINT ( 'NONE',  ( 2.500000000000000000, -28.28427124746185584, 31.38427124746194607 ) ) ;
#508 = PRODUCT_CONTEXT ( 'NONE', #108, 'mechanical' ) ;
#509 = VERTEX_POINT ( 'NONE', #284 ) ;
#510 = ADVANCED_FACE ( 'NONE', ( #484 ), #548, .F. ) ;
#511 = DIRECTION ( 'NONE',  ( 0.000000000000000000, 0.000000000000000000, 1.000000000000000000 ) ) ;
#512 = EDGE_LOOP ( 'NONE', ( #53, #480 ) ) ;
#513 = LINE ( 'NONE', #507, #541 ) ;
#514 = VECTOR ( 'NONE', #31, 1000.000000000000000 ) ;
#515 = CIRCLE ( 'NONE', #852, 50.00000000000000000 ) ;
#516 = VECTOR ( 'NONE', #785, 1000.000000000000000 ) ;
#517 = CIRCLE ( 'NONE', #505, 1.599999999999997202 ) ;
#518 = DIRECTION ( 'NONE',  ( -0.000000000000000000, 0.6987252097451238653, 0.7153901601690036971 ) ) ;
#519 = EDGE_CURVE ( 'NONE', #544, #320, #766, .T. ) ;
#520 = DIRECTION ( 'NONE',  ( 0.000000000000000000, 0.000000000000000000, 1.000000000000000000 ) ) ;
#521 = EDGE_LOOP ( 'NONE', ( #229, #349 ) ) ;
#522 = LINE ( 'NONE', #40, #408 ) ;
#523 = CARTESIAN_POINT ( 'NONE',  ( 2.500000000000000000, 16.99999999999999645, 48.40000000000000568 ) ) ;
#524 = DIRECTION ( 'NONE',  ( 1.000000000000000000, 0.000000000000000000, 0.000000000000000000 ) ) ;
#525 = EDGE_LOOP ( 'NONE', ( #597, #824, #527, #858 ) ) ;
#526 = ORIENTED_EDGE ( 'NONE', *, *, #828, .T. ) ;
#527 = ORIENTED_EDGE ( 'NONE', *, *, #405, .F. ) ;
#528 = DIRECTION ( 'NONE',  ( 0.000000000000000000, 0.000000000000000000, -1.000000000000000000 ) ) ;
#529 = EDGE_CURVE ( 'NONE', #237, #509, #277, .T. ) ;
#530 = LINE ( 'NONE', #666, #11 ) ;
#531 = VECTOR ( 'NONE', #319, 999.9999999999998863 ) ;
#532 = DIRECTION ( 'NONE',  ( 1.000000000000000000, 0.000000000000000000, 0.000000000000000000 ) ) ;
#533 = CARTESIAN_POINT ( 'NONE',  ( 2.500000000000000000, 16.99999999999999645, 15.06666666666666465 ) ) ;
#534 = ORIENTED_EDGE ( 'NONE', *, *, #762, .F. ) ;
#535 = LINE ( 'NONE', #433, #39 ) ;
#536 = EDGE_LOOP ( 'NONE', ( #526, #437, #475, #74 ) ) ;
#537 = ADVANCED_FACE ( 'NONE', ( #760 ), #280, .T. ) ;
#538 = CARTESIAN_POINT ( 'NONE',  ( 2.500000000000000000, 16.99999999999999645, -50.00000000000000000 ) ) ;
#539 = ORIENTED_EDGE ( 'NONE', *, *, #75, .T. ) ;
#540 = AXIS2_PLACEMENT_3D ( 'NONE', #395, #249, #520 ) ;
#541 = VECTOR ( 'NONE', #368, 1000.000000000000000 ) ;
#542 = VECTOR ( 'NONE', #583, 999.9999999999998863 ) ;
#543 = EDGE_CURVE ( 'NONE', #121, #701, #559, .T. ) ;
#544 = VERTEX_POINT ( 'NONE', #533 ) ;
#545 = VERTEX_POINT ( 'NONE', #814 ) ;
#546 = DIRECTION ( 'NONE',  ( 0.000000000000000000, 0.000000000000000000, -1.000000000000000000 ) ) ;
#547 = EDGE_CURVE ( 'NONE', #647, #6, #740, .T. ) ;
#548 = CYLINDRICAL_SURFACE ( 'NONE', #864, 3.099999999999998757 ) ;
#549 = EDGE_LOOP ( 'NONE', ( #769, #811, #791, #594 ) ) ;
#550 = CARTESIAN_POINT ( 'NONE',  ( 2.500000000000000000, 22.00000000000000000, 55.00000000000000000 ) ) ;
#551 = DIRECTION ( 'NONE',  ( 0.000000000000000000, 0.000000000000000000, -1.000000000000000000 ) ) ;
#552 = ADVANCED_FACE ( 'NONE', ( #56 ), #803, .F. ) ;
#553 = DIRECTION ( 'NONE',  ( 1.000000000000000000, 0.000000000000000000, 0.000000000000000000 ) ) ;
#554 = AXIS2_PLACEMENT_3D ( 'NONE', #846, #753, #474 ) ;
#555 = VECTOR ( 'NONE', #67, 1000.000000000000000 ) ;
#556 = AXIS2_PLACEMENT_3D ( 'NONE', #787, #428, #88 ) ;
#557 = VERTEX_POINT ( 'NONE', #485 ) ;
#558 = LINE ( 'NONE', #619, #751 ) ;
#559 = LINE ( 'NONE', #496, #165 ) ;
#560 = CARTESIAN_POINT ( 'NONE',  ( 0.000000000000000000, 16.99999999999999645, -16.66666666666666785 ) ) ;
#561 = CARTESIAN_POINT ( 'NONE',  ( 2.500000000000000000, 16.99999999999999645, 50.00000000000000000 ) ) ;
#562 = ORIENTED_EDGE ( 'NONE', *, *, #466, .T. ) ;
#563 = CARTESIAN_POINT ( 'NONE',  ( 2.500000000000000000, 3.796405077356795411E-16, -3.100000000000000533 ) ) ;
#564 = CARTESIAN_POINT ( 'NONE',  ( 0.000000000000000000, 16.99999999999999645, -50.00000000000000000 ) ) ;
#565 = CARTESIAN_POINT ( 'NONE',  ( 2.500000000000000000, -40.00000000000000000, -4.898587196589413026E-15 ) ) ;
#566 = EDGE_LOOP ( 'NONE', ( #417, #303, #10, #539 ) ) ;
#567 = DIRECTION ( 'NONE',  ( 0.000000000000000000, -1.000000000000000000, 0.000000000000000000 ) ) ;
#568 = CARTESIAN_POINT ( 'NONE',  ( 0.000000000000000000, 16.99999999999999645, 18.26666666666666572 ) ) ;
#569 = DIRECTION ( 'NONE',  ( -1.000000000000000000, -0.000000000000000000, -0.000000000000000000 ) ) ;
#570 = AXIS2_PLACEMENT_3D ( 'NONE', #538, #87, #17 ) ;
#571 = DIRECTION ( 'NONE',  ( 1.000000000000000000, 0.000000000000000000, 0.000000000000000000 ) ) ;
#572 = ORIENTED_EDGE ( 'NONE', *, *, #543, .T. ) ;
#573 = EDGE_CURVE ( 'NONE', #72, #271, #122, .T. ) ;
#574 = AXIS2_PLACEMENT_3D ( 'NONE', #564, #124, #707 ) ;
#575 = FACE_OUTER_BOUND ( 'NONE', #450, .T. ) ;
#576 = CARTESIAN_POINT ( 'NONE',  ( 2.500000000000000000, -40.00000000000000000, -3.100000000000004974 ) ) ;
#577 = ORIENTED_EDGE ( 'NONE', *, *, #139, .F. ) ;
#578 = DIRECTION ( 'NONE',  ( -0.000000000000000000, 1.000000000000000000, 3.469446951953614189E-16 ) ) ;
#579 = ORIENTED_EDGE ( 'NONE', *, *, #881, .T. ) ;
#580 = EDGE_CURVE ( 'NONE', #271, #557, #822, .T. ) ;
#581 = DIRECTION ( 'NONE',  ( 0.000000000000000000, 0.000000000000000000, -1.000000000000000000 ) ) ;
#582 = ORIENTED_EDGE ( 'NONE', *, *, #111, .F. ) ;
#583 = DIRECTION ( 'NONE',  ( -0.000000000000000000, 0.7153901601690036971, -0.6987252097451238653 ) ) ;
#584 = VERTEX_POINT ( 'NONE', #152 ) ;
#585 = DIRECTION ( 'NONE',  ( 1.000000000000000000, 0.000000000000000000, 0.000000000000000000 ) ) ;
#586 = EDGE_CURVE ( 'NONE', #322, #545, #310, .T. ) ;
#587 = FACE_OUTER_BOUND ( 'NONE', #659, .T. ) ;
#588 = AXIS2_PLACEMENT_3D ( 'NONE', #646, #641, #383 ) ;
#589 = ORIENTED_EDGE ( 'NONE', *, *, #738, .F. ) ;
#590 = CIRCLE ( 'NONE', #262, 10.00000000000000533 ) ;
#591 = DIRECTION ( 'NONE',  ( 0.000000000000000000, 0.000000000000000000, -1.000000000000000000 ) ) ;
#592 = SURFACE_SIDE_STYLE ('',( #873 ) ) ;
#593 = FACE_BOUND ( 'NONE', #512, .T. ) ;
#594 = ORIENTED_EDGE ( 'NONE', *, *, #399, .F. ) ;
#595 = CARTESIAN_POINT ( 'NONE',  ( 2.500000000000000000, -40.00000000000000000, 3.099999999999995648 ) ) ;
#596 = ADVANCED_FACE ( 'NONE', ( #857 ), #778, .F. ) ;
#597 = ORIENTED_EDGE ( 'NONE', *, *, #117, .T. ) ;
#598 = UNCERTAINTY_MEASURE_WITH_UNIT (LENGTH_MEASURE( 1.000000000000000082E-05 ), #404, 'distance_accuracy_value', 'NONE');
#599 = DIRECTION ( 'NONE',  ( 1.000000000000000000, 0.000000000000000000, 0.000000000000000000 ) ) ;
#600 = CYLINDRICAL_SURFACE ( 'NONE', #193, 1.600000000000002531 ) ;
#601 = ORIENTED_EDGE ( 'NONE', *, *, #269, .T. ) ;
#602 = ADVANCED_FACE ( 'NONE', ( #359 ), #167, .F. ) ;
#603 = VECTOR ( 'NONE', #1, 1000.000000000000000 ) ;
#604 = AXIS2_PLACEMENT_3D ( 'NONE', #423, #296, #356 ) ;
#605 = CYLINDRICAL_SURFACE ( 'NONE', #420, 3.100000000000000533 ) ;
#606 = ORIENTED_EDGE ( 'NONE', *, *, #416, .T. ) ;
#607 = PRODUCT_DEFINITION_CONTEXT ( 'detailed design', #146, 'design' ) ;
#608 = CARTESIAN_POINT ( 'NONE',  ( 2.500000000000000000, -40.00000000000000000, 3.099999999999995648 ) ) ;
#609 = ORIENTED_EDGE ( 'NONE', *, *, #774, .T. ) ;
#610 = CARTESIAN_POINT ( 'NONE',  ( 2.500000000000000000, 0.000000000000000000, 0.000000000000000000 ) ) ;
#611 = ORIENTED_EDGE ( 'NONE', *, *, #768, .F. ) ;
#612 = CARTESIAN_POINT ( 'NONE',  ( 2.500000000000000000, 16.99999999999999645, 16.66666666666666785 ) ) ;
#613 = AXIS2_PLACEMENT_3D ( 'NONE', #841, #342, #157 ) ;
#614 = AXIS2_PLACEMENT_3D ( 'NONE', #853, #637, #571 ) ;
#615 = ORIENTED_EDGE ( 'NONE', *, *, #800, .F. ) ;
#616 = EDGE_LOOP ( 'NONE', ( #391, #442, #683, #202 ) ) ;
#617 = PRODUCT ( 'Tilt_Side_Panel', 'Tilt_Side_Panel', '', ( #508 ) ) ;
#618 = EDGE_CURVE ( 'NONE', #121, #647, #421, .T. ) ;
#619 = CARTESIAN_POINT ( 'NONE',  ( 2.500000000000000000, 22.00000000000000000, 55.00000000000000000 ) ) ;
#620 = CARTESIAN_POINT ( 'NONE',  ( 0.000000000000000000, -36.95518130045157079, 15.30733729460335368 ) ) ;
#621 = ORIENTED_EDGE ( 'NONE', *, *, #466, .F. ) ;
#622 = DIRECTION ( 'NONE',  ( 0.000000000000000000, 0.000000000000000000, -1.000000000000000000 ) ) ;
#623 = DIRECTION ( 'NONE',  ( -1.000000000000000000, -0.000000000000000000, -0.000000000000000000 ) ) ;
#624 = VECTOR ( 'NONE', #330, 1000.000000000000000 ) ;
#625 = DIRECTION ( 'NONE',  ( -1.000000000000000000, -0.000000000000000000, -0.000000000000000000 ) ) ;
#626 = CIRCLE ( 'NONE', #21, 1.600000000000002531 ) ;
#627 = AXIS2_PLACEMENT_3D ( 'NONE', #51, #233, #771 ) ;
#628 = EDGE_LOOP ( 'NONE', ( #582, #764 ) ) ;
#629 = PLANE ( 'NONE',  #123 ) ;
#630 = DIRECTION ( 'NONE',  ( -1.000000000000000000, -0.000000000000000000, -0.000000000000000000 ) ) ;
#631 = EDGE_CURVE ( 'NONE', #640, #790, #41, .T. ) ;
#632 = ORIENTED_EDGE ( 'NONE', *, *, #519, .F. ) ;
#633 = DIRECTION ( 'NONE',  ( -1.000000000000000000, -0.000000000000000000, -0.000000000000000000 ) ) ;
#634 = CYLINDRICAL_SURFACE ( 'NONE', #627, 1.599999999999997202 ) ;
#635 = CYLINDRICAL_SURFACE ( 'NONE', #323, 1.600000000000002531 ) ;
#636 = EDGE_CURVE ( 'NONE', #749, #174, #714, .T. ) ;
#637 = DIRECTION ( 'NONE',  ( 0.000000000000000000, 0.000000000000000000, 1.000000000000000000 ) ) ;
#638 = ORIENTED_EDGE ( 'NONE', *, *, #757, .T. ) ;
#639 = CARTESIAN_POINT ( 'NONE',  ( 0.000000000000000000, 16.99999999999999645, 51.60000000000000142 ) ) ;
#640 = VERTEX_POINT ( 'NONE', #253 ) ;
#641 = DIRECTION ( 'NONE',  ( 1.000000000000000000, 0.000000000000000000, 0.000000000000000000 ) ) ;
#642 = CIRCLE ( 'NONE', #795, 1.599999999999997202 ) ;
#643 = VERTEX_POINT ( 'NONE', #162 ) ;
#644 = AXIS2_PLACEMENT_3D ( 'NONE', #19, #443, #546 ) ;
#645 = ADVANCED_FACE ( 'NONE', ( #97 ), #634, .F. ) ;
#646 = CARTESIAN_POINT ( 'NONE',  ( 0.000000000000000000, 16.99999999999999645, 16.66666666666666785 ) ) ;
#647 = VERTEX_POINT ( 'NONE', #523 ) ;
#648 = VERTEX_POINT ( 'NONE', #568 ) ;
#649 = ADVANCED_FACE ( 'NONE', ( #91 ), #652, .F. ) ;
#650 = ADVANCED_BREP_SHAPE_REPRESENTATION ( 'Tilt_Side_Panel', ( #2, #614 ), #394 ) ;
#651 = CARTESIAN_POINT ( 'NONE',  ( 0.000000000000000000, -50.00000000000000000, -3.061616997868381859E-15 ) ) ;
#652 = CYLINDRICAL_SURFACE ( 'NONE', #206, 3.100000000000001865 ) ;
#653 = PRESENTATION_STYLE_ASSIGNMENT (( #870 ) ) ;
#654 = LINE ( 'NONE', #315, #542 ) ;
#655 = VERTEX_POINT ( 'NONE', #29 ) ;
#656 = DIRECTION ( 'NONE',  ( 0.000000000000000000, 0.000000000000000000, -1.000000000000000000 ) ) ;
#657 = DIRECTION ( 'NONE',  ( -1.000000000000000000, -0.000000000000000000, -0.000000000000000000 ) ) ;
#658 = CIRCLE ( 'NONE', #213, 1.600000000000000755 ) ;
#659 = EDGE_LOOP ( 'NONE', ( #829, #370, #185, #429 ) ) ;
#660 = AXIS2_PLACEMENT_3D ( 'NONE', #682, #12, #551 ) ;
#661 = VERTEX_POINT ( 'NONE', #363 ) ;
#662 = DIRECTION ( 'NONE',  ( 1.000000000000000000, 0.000000000000000000, 0.000000000000000000 ) ) ;
#663 = EDGE_CURVE ( 'NONE', #872, #281, #291, .T. ) ;
#664 =( NAMED_UNIT ( * ) PLANE_ANGLE_UNIT ( ) SI_UNIT ( $, .RADIAN. ) );
#665 = ORIENTED_EDGE ( 'NONE', *, *, #762, .T. ) ;
#666 = CARTESIAN_POINT ( 'NONE',  ( 2.500000000000000000, 22.00000000000000000, -55.00000000000000000 ) ) ;
#667 = ADVANCED_FACE ( 'NONE', ( #102 ), #248, .F. ) ;
#668 = CYLINDRICAL_SURFACE ( 'NONE', #540, 10.00000000000000533 ) ;
#669 = ORIENTED_EDGE ( 'NONE', *, *, #176, .T. ) ;
#670 = CARTESIAN_POINT ( 'NONE',  ( 2.500000000000000000, 16.99999999999999645, -48.40000000000000568 ) ) ;
#671 = CIRCLE ( 'NONE', #261, 1.600000000000000755 ) ;
#672 = ORIENTED_EDGE ( 'NONE', *, *, #636, .F. ) ;
#673 = ADVANCED_FACE ( 'NONE', ( #462, #731, #226, #808, #755, #7, #815, #741, #266 ), #410, .F. ) ;
#674 = AXIS2_PLACEMENT_3D ( 'NONE', #620, #553, #313 ) ;
#675 = VECTOR ( 'NONE', #691, 1000.000000000000000 ) ;
#676 = LINE ( 'NONE', #670, #793 ) ;
#677 = ORIENTED_EDGE ( 'NONE', *, *, #104, .T. ) ;
#678 = PRODUCT_DEFINITION ( 'UNKNOWN', '', #235, #607 ) ;
#679 = DIRECTION ( 'NONE',  ( 0.000000000000000000, 0.000000000000000000, -1.000000000000000000 ) ) ;
#680 = CARTESIAN_POINT ( 'NONE',  ( 2.500000000000000000, -40.00000000000000000, -4.898587196589413026E-15 ) ) ;
#681 = ORIENTED_EDGE ( 'NONE', *, *, #506, .F. ) ;
#682 = CARTESIAN_POINT ( 'NONE',  ( 0.000000000000000000, -40.00000000000000000, -4.898587196589413026E-15 ) ) ;
#683 = ORIENTED_EDGE ( 'NONE', *, *, #299, .T. ) ;
#684 = DIRECTION ( 'NONE',  ( -1.000000000000000000, -0.000000000000000000, -0.000000000000000000 ) ) ;
#685 = AXIS2_PLACEMENT_3D ( 'NONE', #565, #151, #693 ) ;
#686 = VECTOR ( 'NONE', #861, 1000.000000000000000 ) ;
#687 = EDGE_CURVE ( 'NONE', #295, #724, #495, .T. ) ;
#688 = VERTEX_POINT ( 'NONE', #16 ) ;
#689 = DIRECTION ( 'NONE',  ( 1.000000000000000000, 0.000000000000000000, 0.000000000000000000 ) ) ;
#690 = EDGE_LOOP ( 'NONE', ( #756, #119 ) ) ;
#691 = DIRECTION ( 'NONE',  ( -1.000000000000000000, -0.000000000000000000, -0.000000000000000000 ) ) ;
#692 = LINE ( 'NONE', #80, #810 ) ;
#693 = DIRECTION ( 'NONE',  ( 0.000000000000000000, 0.000000000000000000, -1.000000000000000000 ) ) ;
#694 = ORIENTED_EDGE ( 'NONE', *, *, #259, .F. ) ;
#695 = LINE ( 'NONE', #90, #452 ) ;
#696 = ORIENTED_EDGE ( 'NONE', *, *, #279, .T. ) ;
#697 = DIRECTION ( 'NONE',  ( -1.000000000000000000, -0.000000000000000000, -0.000000000000000000 ) ) ;
#698 = DIRECTION ( 'NONE',  ( 0.000000000000000000, 0.000000000000000000, -1.000000000000000000 ) ) ;
#699 = CIRCLE ( 'NONE', #735, 3.100000000000000533 ) ;
#700 = CIRCLE ( 'NONE', #325, 1.599999999999997202 ) ;
#701 = VERTEX_POINT ( 'NONE', #639 ) ;
#702 = CARTESIAN_POINT ( 'NONE',  ( 2.500000000000000000, 1.999999999999998224, -55.00000000000000711 ) ) ;
#703 = ADVANCED_FACE ( 'NONE', ( #83 ), #499, .F. ) ;
#704 = CARTESIAN_POINT ( 'NONE',  ( 0.000000000000000000, 16.99999999999999645, -51.60000000000000142 ) ) ;
#705 = EDGE_LOOP ( 'NONE', ( #155, #780, #827, #773 ) ) ;
#706 = CARTESIAN_POINT ( 'NONE',  ( 2.500000000000000000, -46.98725209745123976, -7.153901601690043854 ) ) ;
#707 = DIRECTION ( 'NONE',  ( 0.000000000000000000, 0.000000000000000000, -1.000000000000000000 ) ) ;
#708 = ORIENTED_EDGE ( 'NONE', *, *, #636, .T. ) ;
#709 = DIRECTION ( 'NONE',  ( 0.000000000000000000, 0.000000000000000000, -1.000000000000000000 ) ) ;
#710 = EDGE_CURVE ( 'NONE', #224, #276, #558, .T. ) ;
#711 = ORIENTED_EDGE ( 'NONE', *, *, #127, .F. ) ;
#712 = FACE_BOUND ( 'NONE', #628, .T. ) ;
#713 = DIRECTION ( 'NONE',  ( 1.000000000000000000, 0.000000000000000000, 0.000000000000000000 ) ) ;
#714 = LINE ( 'NONE', #242, #531 ) ;
#715 = EDGE_CURVE ( 'NONE', #648, #320, #246, .T. ) ;
#716 = CIRCLE ( 'NONE', #274, 3.100000000000000533 ) ;
#717 = ORIENTED_EDGE ( 'NONE', *, *, #831, .T. ) ;
#718 = AXIS2_PLACEMENT_3D ( 'NONE', #25, #294, #158 ) ;
#719 = EDGE_LOOP ( 'NONE', ( #3, #209 ) ) ;
#720 = DIRECTION ( 'NONE',  ( 1.000000000000000000, 0.000000000000000000, 0.000000000000000000 ) ) ;
#721 = CARTESIAN_POINT ( 'NONE',  ( 2.500000000000000000, -28.28427124746185584, 28.28427124746194465 ) ) ;
#722 = ORIENTED_EDGE ( 'NONE', *, *, #828, .F. ) ;
#723 = LINE ( 'NONE', #47, #516 ) ;
#724 = VERTEX_POINT ( 'NONE', #96 ) ;
#725 = DIRECTION ( 'NONE',  ( -0.000000000000000000, -0.000000000000000000, 1.000000000000000000 ) ) ;
#726 = FACE_OUTER_BOUND ( 'NONE', #327, .T. ) ;
#727 = VERTEX_POINT ( 'NONE', #215 ) ;
#728 = EDGE_CURVE ( 'NONE', #503, #468, #839, .T. ) ;
#729 = DIRECTION ( 'NONE',  ( 0.000000000000000000, 0.000000000000000000, 1.000000000000000000 ) ) ;
#730 = CARTESIAN_POINT ( 'NONE',  ( 2.500000000000000000, 1.999999999999998224, 55.00000000000000000 ) ) ;
#731 = FACE_BOUND ( 'NONE', #42, .T. ) ;
#732 = AXIS2_PLACEMENT_3D ( 'NONE', #61, #733, #132 ) ;
#733 = DIRECTION ( 'NONE',  ( 1.000000000000000000, 0.000000000000000000, 0.000000000000000000 ) ) ;
#734 = PLANE ( 'NONE',  #135 ) ;
#735 = AXIS2_PLACEMENT_3D ( 'NONE', #447, #713, #581 ) ;
#736 = ORIENTED_EDGE ( 'NONE', *, *, #81, .T. ) ;
#737 = VECTOR ( 'NONE', #438, 1000.000000000000000 ) ;
#738 = EDGE_CURVE ( 'NONE', #790, #640, #26, .T. ) ;
#739 = ORIENTED_EDGE ( 'NONE', *, *, #860, .F. ) ;
#740 = LINE ( 'NONE', #317, #392 ) ;
#741 = FACE_BOUND ( 'NONE', #521, .T. ) ;
#742 = CARTESIAN_POINT ( 'NONE',  ( 2.500000000000000000, -19.23076923076921929, 46.15384615384616041 ) ) ;
#743 = ORIENTED_EDGE ( 'NONE', *, *, #387, .T. ) ;
#744 = UNCERTAINTY_MEASURE_WITH_UNIT (LENGTH_MEASURE( 1.000000000000000082E-05 ), #449, 'distance_accuracy_value', 'NONE');
#745 = DIRECTION ( 'NONE',  ( 0.000000000000000000, 0.000000000000000000, -1.000000000000000000 ) ) ;
#746 = DIRECTION ( 'NONE',  ( 1.000000000000000000, 0.000000000000000000, 0.000000000000000000 ) ) ;
#747 = EDGE_CURVE ( 'NONE', #382, #724, #590, .T. ) ;
#748 = CIRCLE ( 'NONE', #9, 1.600000000000000755 ) ;
#749 = VERTEX_POINT ( 'NONE', #504 ) ;
#750 = VECTOR ( 'NONE', #357, 1000.000000000000000 ) ;
#751 = VECTOR ( 'NONE', #38, 1000.000000000000000 ) ;
#752 = DIRECTION ( 'NONE',  ( 0.000000000000000000, 0.3846153846153849698, -0.9230769230769230171 ) ) ;
#753 = DIRECTION ( 'NONE',  ( -1.000000000000000000, -0.000000000000000000, -0.000000000000000000 ) ) ;
#754 = EDGE_LOOP ( 'NONE', ( #577, #59 ) ) ;
#755 = FACE_BOUND ( 'NONE', #58, .T. ) ;
#756 = ORIENTED_EDGE ( 'NONE', *, *, #881, .F. ) ;
#757 = EDGE_CURVE ( 'NONE', #817, #333, #409, .T. ) ;
#758 = EDGE_LOOP ( 'NONE', ( #251, #381 ) ) ;
#759 = CARTESIAN_POINT ( 'NONE',  ( 0.000000000000000000, 0.000000000000000000, 3.100000000000000533 ) ) ;
#760 = FACE_OUTER_BOUND ( 'NONE', #566, .T. ) ;
#761 = CIRCLE ( 'NONE', #674, 3.100000000000000533 ) ;
#762 = EDGE_CURVE ( 'NONE', #790, #64, #154, .T. ) ;
#763 = CIRCLE ( 'NONE', #93, 3.100000000000000533 ) ;
#764 = ORIENTED_EDGE ( 'NONE', *, *, #573, .F. ) ;
#765 = CARTESIAN_POINT ( 'NONE',  ( 0.000000000000000000, -40.00000000000000000, -4.898587196589413026E-15 ) ) ;
#766 = LINE ( 'NONE', #350, #750 ) ;
#767 = DIRECTION ( 'NONE',  ( 0.000000000000000000, 0.000000000000000000, 1.000000000000000000 ) ) ;
#768 = EDGE_CURVE ( 'NONE', #6, #701, #517, .T. ) ;
#769 = ORIENTED_EDGE ( 'NONE', *, *, #813, .F. ) ;
#770 = DIRECTION ( 'NONE',  ( -1.000000000000000000, -0.000000000000000000, -0.000000000000000000 ) ) ;
#771 = DIRECTION ( 'NONE',  ( 0.000000000000000000, 0.000000000000000000, 1.000000000000000000 ) ) ;
#772 = DIRECTION ( 'NONE',  ( -1.000000000000000000, -0.000000000000000000, -0.000000000000000000 ) ) ;
#773 = ORIENTED_EDGE ( 'NONE', *, *, #470, .T. ) ;
#774 = EDGE_CURVE ( 'NONE', #276, #237, #695, .T. ) ;
#775 = LINE ( 'NONE', #702, #379 ) ;
#776 = AXIS2_PLACEMENT_3D ( 'NONE', #365, #746, #270 ) ;
#777 = DIRECTION ( 'NONE',  ( -1.000000000000000000, 0.000000000000000000, -0.000000000000000000 ) ) ;
#778 = CYLINDRICAL_SURFACE ( 'NONE', #556, 3.100000000000001865 ) ;
#779 = AXIS2_PLACEMENT_3D ( 'NONE', #832, #623, #292 ) ;
#780 = ORIENTED_EDGE ( 'NONE', *, *, #710, .F. ) ;
#781 = DIRECTION ( 'NONE',  ( 0.000000000000000000, 0.000000000000000000, -1.000000000000000000 ) ) ;
#782 = DIRECTION ( 'NONE',  ( 0.000000000000000000, 0.000000000000000000, -1.000000000000000000 ) ) ;
#783 = APPLICATION_PROTOCOL_DEFINITION ( 'draft international standard', 'automotive_design', 1998, #108 ) ;
#784 = EDGE_LOOP ( 'NONE', ( #227, #214, #711, #669 ) ) ;
#785 = DIRECTION ( 'NONE',  ( -1.000000000000000000, -0.000000000000000000, -0.000000000000000000 ) ) ;
#786 = CARTESIAN_POINT ( 'NONE',  ( 0.000000000000000000, 16.99999999999999645, -50.00000000000000000 ) ) ;
#787 = CARTESIAN_POINT ( 'NONE',  ( 2.500000000000000000, -28.28427124746185584, 28.28427124746194465 ) ) ;
#788 = ADVANCED_FACE ( 'NONE', ( #231 ), #629, .F. ) ;
#789 = CARTESIAN_POINT ( 'NONE',  ( 0.000000000000000000, 16.99999999999999645, 50.00000000000000000 ) ) ;
#790 = VERTEX_POINT ( 'NONE', #563 ) ;
#791 = ORIENTED_EDGE ( 'NONE', *, *, #198, .T. ) ;
#792 = CARTESIAN_POINT ( 'NONE',  ( 2.500000000000000000, -36.95518130045157079, 15.30733729460335368 ) ) ;
#793 = VECTOR ( 'NONE', #772, 1000.000000000000000 ) ;
#794 = DIRECTION ( 'NONE',  ( 1.000000000000000000, 0.000000000000000000, 0.000000000000000000 ) ) ;
#795 = AXIS2_PLACEMENT_3D ( 'NONE', #453, #720, #656 ) ;
#796 = CARTESIAN_POINT ( 'NONE',  ( 0.000000000000000000, 16.99999999999999645, 48.40000000000000568 ) ) ;
#797 = AXIS2_PLACEMENT_3D ( 'NONE', #144, #770, #848 ) ;
#798 = VERTEX_POINT ( 'NONE', #367 ) ;
#799 = CARTESIAN_POINT ( 'NONE',  ( 2.500000000000000000, 22.00000000000000000, 55.00000000000000000 ) ) ;
#800 = EDGE_CURVE ( 'NONE', #468, #82, #763, .T. ) ;
#801 = VERTEX_POINT ( 'NONE', #759 ) ;
#802 = DIRECTION ( 'NONE',  ( 0.000000000000000000, -0.7153901601690036971, 0.6987252097451238653 ) ) ;
#803 = PLANE ( 'NONE',  #502 ) ;
#804 = LINE ( 'NONE', #184, #624 ) ;
#805 = ORIENTED_EDGE ( 'NONE', *, *, #687, .T. ) ;
#806 = EDGE_CURVE ( 'NONE', #37, #503, #181, .T. ) ;
#807 = DIRECTION ( 'NONE',  ( 1.000000000000000000, 0.000000000000000000, 0.000000000000000000 ) ) ;
#808 = FACE_BOUND ( 'NONE', #415, .T. ) ;
#809 = AXIS2_PLACEMENT_3D ( 'NONE', #228, #698, #777 ) ;
#810 = VECTOR ( 'NONE', #491, 999.9999999999998863 ) ;
#811 = ORIENTED_EDGE ( 'NONE', *, *, #364, .T. ) ;
#812 = CARTESIAN_POINT ( 'NONE',  ( 2.500000000000000000, -40.00000000000000000, -4.898587196589413026E-15 ) ) ;
#813 = EDGE_CURVE ( 'NONE', #661, #281, #354, .T. ) ;
#814 = CARTESIAN_POINT ( 'NONE',  ( 0.000000000000000000, -40.00000000000000000, -3.100000000000004974 ) ) ;
#815 = FACE_BOUND ( 'NONE', #758, .T. ) ;
#816 = CARTESIAN_POINT ( 'NONE',  ( 2.500000000000000000, 16.99999999999999645, 50.00000000000000000 ) ) ;
#817 = VERTEX_POINT ( 'NONE', #86 ) ;
#818 = DIRECTION ( 'NONE',  ( 1.000000000000000000, 0.000000000000000000, 0.000000000000000000 ) ) ;
#819 = EDGE_CURVE ( 'NONE', #643, #334, #775, .T. ) ;
#820 = DIRECTION ( 'NONE',  ( 0.000000000000000000, 0.000000000000000000, -1.000000000000000000 ) ) ;
#821 = ORIENTED_EDGE ( 'NONE', *, *, #198, .F. ) ;
#822 = LINE ( 'NONE', #286, #865 ) ;
#823 = CARTESIAN_POINT ( 'NONE',  ( 2.500000000000000000, 16.99999999999999645, 18.26666666666666572 ) ) ;
#824 = ORIENTED_EDGE ( 'NONE', *, *, #586, .T. ) ;
#825 = VECTOR ( 'NONE', #14, 999.9999999999998863 ) ;
#826 = CIRCLE ( 'NONE', #57, 3.099999999999998757 ) ;
#827 = ORIENTED_EDGE ( 'NONE', *, *, #341, .F. ) ;
#828 = EDGE_CURVE ( 'NONE', #334, #494, #33, .T. ) ;
#829 = ORIENTED_EDGE ( 'NONE', *, *, #387, .F. ) ;
#830 = DIRECTION ( 'NONE',  ( 0.000000000000000000, 0.000000000000000000, -1.000000000000000000 ) ) ;
#831 = EDGE_CURVE ( 'NONE', #655, #817, #723, .T. ) ;
#832 = CARTESIAN_POINT ( 'NONE',  ( 2.500000000000000000, 0.000000000000000000, 0.000000000000000000 ) ) ;
#833 = EDGE_LOOP ( 'NONE', ( #168, #665, #621, #739 ) ) ;
#834 = CARTESIAN_POINT ( 'NONE',  ( 2.500000000000000000, 16.99999999999999645, -51.60000000000000142 ) ) ;
#835 = CARTESIAN_POINT ( 'NONE',  ( 2.500000000000000000, -36.95518130045157079, 15.30733729460335368 ) ) ;
#836 = AXIS2_PLACEMENT_3D ( 'NONE', #812, #413, #679 ) ;
#837 = DIRECTION ( 'NONE',  ( -1.000000000000000000, -0.000000000000000000, -0.000000000000000000 ) ) ;
#838 = ORIENTED_EDGE ( 'NONE', *, *, #376, .F. ) ;
#839 = LINE ( 'NONE', #221, #737 ) ;
#840 = CARTESIAN_POINT ( 'NONE',  ( 2.500000000000000000, -36.95518130045157079, 12.20733729460335226 ) ) ;
#841 = CARTESIAN_POINT ( 'NONE',  ( 2.500000000000000000, -28.28427124746185584, 28.28427124746194465 ) ) ;
#842 = EDGE_CURVE ( 'NONE', #295, #643, #654, .T. ) ;
#843 = ORIENTED_EDGE ( 'NONE', *, *, #819, .F. ) ;
#844 = DIRECTION ( 'NONE',  ( 1.000000000000000000, 0.000000000000000000, 0.000000000000000000 ) ) ;
#845 = DIRECTION ( 'NONE',  ( 0.000000000000000000, 0.000000000000000000, 1.000000000000000000 ) ) ;
#846 = CARTESIAN_POINT ( 'NONE',  ( 2.500000000000000000, 16.99999999999999645, 16.66666666666666785 ) ) ;
#847 = ORIENTED_EDGE ( 'NONE', *, *, #663, .T. ) ;
#848 = DIRECTION ( 'NONE',  ( 0.000000000000000000, 0.000000000000000000, 1.000000000000000000 ) ) ;
#849 = EDGE_LOOP ( 'NONE', ( #366, #340, #66, #821 ) ) ;
#850 = AXIS2_PLACEMENT_3D ( 'NONE', #500, #630, #767 ) ;
#851 = FACE_OUTER_BOUND ( 'NONE', #397, .T. ) ;
#852 = AXIS2_PLACEMENT_3D ( 'NONE', #60, #807, #272 ) ;
#853 = CARTESIAN_POINT ( 'NONE',  ( 0.000000000000000000, 0.000000000000000000, 0.000000000000000000 ) ) ;
#854 = ORIENTED_EDGE ( 'NONE', *, *, #418, .T. ) ;
#855 = ADVANCED_FACE ( 'NONE', ( #712, #593, #238, #106, #726, #862, #304, #52, #188 ), #115, .T. ) ;
#856 = CARTESIAN_POINT ( 'NONE',  ( 2.500000000000000000, -40.00000000000000000, -4.898587196589413026E-15 ) ) ;
#857 = FACE_OUTER_BOUND ( 'NONE', #159, .T. ) ;
#858 = ORIENTED_EDGE ( 'NONE', *, *, #212, .F. ) ;
#859 = ORIENTED_EDGE ( 'NONE', *, *, #243, .F. ) ;
#860 = EDGE_CURVE ( 'NONE', #640, #801, #120, .T. ) ;
#861 = DIRECTION ( 'NONE',  ( 0.000000000000000000, -1.000000000000000000, 0.000000000000000000 ) ) ;
#862 = FACE_BOUND ( 'NONE', #719, .T. ) ;
#863 = DIRECTION ( 'NONE',  ( 0.000000000000000000, 0.000000000000000000, 1.000000000000000000 ) ) ;
#864 = AXIS2_PLACEMENT_3D ( 'NONE', #835, #426, #20 ) ;
#865 = VECTOR ( 'NONE', #374, 1000.000000000000000 ) ;
#866 = DIRECTION ( 'NONE',  ( -1.000000000000000000, -0.000000000000000000, -0.000000000000000000 ) ) ;
#867 = ORIENTED_EDGE ( 'NONE', *, *, #448, .T. ) ;
#868 = CARTESIAN_POINT ( 'NONE',  ( 0.000000000000000000, -28.28427124746185584, 31.38427124746194607 ) ) ;
#869 = ADVANCED_FACE ( 'NONE', ( #871 ), #734, .F. ) ;
#870 = SURFACE_STYLE_USAGE ( .BOTH. , #592 ) ;
#871 = FACE_OUTER_BOUND ( 'NONE', #536, .T. ) ;
#872 = VERTEX_POINT ( 'NONE', #36 ) ;
#873 = SURFACE_STYLE_FILL_AREA ( #326 ) ;
#874 = EDGE_LOOP ( 'NONE', ( #609, #84, #95, #258 ) ) ;
#875 = EDGE_CURVE ( 'NONE', #701, #6, #700, .T. ) ;
#876 = DIRECTION ( 'NONE',  ( 0.000000000000000000, 0.000000000000000000, -1.000000000000000000 ) ) ;
#877 = DIRECTION ( 'NONE',  ( -1.000000000000000000, -0.000000000000000000, -0.000000000000000000 ) ) ;
#878 = AXIS2_PLACEMENT_3D ( 'NONE', #440, #585, #591 ) ;
#879 = VERTEX_POINT ( 'NONE', #50 ) ;
#880 = AXIS2_PLACEMENT_3D ( 'NONE', #385, #321, #250 ) ;
#881 = EDGE_CURVE ( 'NONE', #192, #655, #826, .T. ) ;
#882 = DIRECTION ( 'NONE',  ( 1.000000000000000000, 0.000000000000000000, 0.000000000000000000 ) ) ;
ENDSEC;
END-ISO-10303-21;
